<?xml version="1.0" encoding="UTF-8"?>
<svg id="Layer_1" data-name="Layer 1" xmlns="http://www.w3.org/2000/svg" viewBox="0 0 249.48 217.74">
  <defs>
    <style>
      .cls-1 {
        fill: #727456;
      }

      .cls-1, .cls-2 {
        stroke-width: 0px;
      }

      .cls-2 {
        fill: #59554c;
      }
    </style>
  </defs>
  <g>
    <path class="cls-2" d="m141.47,125.22c1.03.14-.15-.06-.52-.14-.47-.1-.94-.22-1.4-.35-.53-.15-1.05-.32-1.57-.5-.33-.12-1.67-.71-.71-.26-1.89-.87-3.7-1.87-5.45-2.99-3.61-2.3-7.02-4.89-10.62-7.21-7.83-5.03-16.36-9.12-25.47-11.19-18.56-4.23-38.04-1.3-55.52,5.79-4.91,1.99-9.62,4.34-14.43,6.55-.54.25-1.07.49-1.61.73-.27.12-.54.24-.81.35.66-.28.14-.06-.23.09-1.15.47-2.32.9-3.5,1.28-1.11.36-2.23.68-3.37.94-.64.15-1.29.28-1.93.39-.22.04-.43.07-.65.1,1.16-.18-.29.01-.43.03-2.6.24-5.13,2.13-5,5,.11,2.5,2.21,5.26,5,5,4.74-.44,9.18-1.68,13.56-3.52s8.55-3.98,12.85-5.91c.49-.22.97-.43,1.46-.65.28-.12.56-.24.84-.36.53-.23-.06.03-.14.06,1.13-.46,2.26-.92,3.4-1.35,2.14-.82,4.3-1.57,6.49-2.25,4.38-1.37,8.85-2.47,13.37-3.22.53-.09,1.06-.17,1.59-.25.23-.03.46-.07.68-.1-.94.14-.15.02.04,0,1.22-.15,2.44-.28,3.67-.38,2.3-.19,4.61-.28,6.91-.28s4.46.1,6.68.29c.54.05,1.07.1,1.6.16.21.02,2.01.26.95.11,1.14.16,2.27.35,3.4.56,2.25.43,4.48.96,6.68,1.62,1.1.33,2.18.68,3.26,1.07.5.18.99.36,1.48.55.21.08.42.16.63.25-.03-.01,1.21.49.65.26s.31.14.44.19c.21.09.41.18.62.27.55.25,1.09.5,1.63.76,1.01.49,2.02.99,3.01,1.52,1.98,1.05,3.92,2.18,5.82,3.37,4.08,2.54,7.89,5.47,11.94,8.05,4.55,2.9,9.34,4.89,14.7,5.61,2.6.35,5.11-2.55,5-5-.13-3.01-2.21-4.63-5-5h0Z"/>
    <path class="cls-2" d="m139.35,126.81c-4.33,3.01-8.19,6.58-12.23,9.95-.41.34-.81.68-1.22,1.01-.23.19-.47.37-.71.57-.61.5.57-.41-.06.05-.91.67-1.82,1.34-2.76,1.96-1.72,1.14-3.52,2.19-5.36,3.13-.92.47-1.86.92-2.81,1.34-.23.1-.47.22-.72.31,1.01-.37.33-.14.11-.05-.55.21-1.09.43-1.64.64-2.02.75-4.09,1.4-6.18,1.93s-4.1.94-6.18,1.25c-.26.04-.52.08-.78.11,1.14-.13.4-.05.15-.03-.52.05-1.05.12-1.57.17-1.11.1-2.23.18-3.35.22-2.1.08-4.21.06-6.32-.06-1.05-.06-2.1-.15-3.14-.27-.26-.03-.52-.06-.78-.09-.74-.08.89.14.16.02-.58-.1-1.17-.18-1.75-.28-2.06-.36-4.11-.84-6.12-1.42-1-.29-2-.61-2.99-.96-.51-.18-1.02-.37-1.52-.56-.28-.11-.55-.22-.83-.33-.88-.34.28.14-.25-.1-8.85-3.86-16.78-9.42-25.41-13.71-5.23-2.6-10.72-4.75-16.34-6.35-2.61-.74-5.26-1.34-7.92-1.88-1.28-.26-2.55-.52-3.8-.9-.26-.08-.51-.16-.77-.25-.29-.1-.99-.54-.11-.03-.58-.34-1.17-.62-1.72-1-2.16-1.48-5.64-.48-6.84,1.79-1.34,2.54-.51,5.26,1.79,6.84,4.16,2.85,9.5,3.2,14.26,4.41,2.45.62,4.88,1.35,7.27,2.18,1.16.4,2.3.83,3.44,1.27.57.22,1.14.45,1.7.69-.81-.34-.08-.03.07.04.42.19.84.37,1.25.56,9,4.09,17.09,9.89,26.05,14.06,8.72,4.07,18.02,6.32,27.66,6.39s18.78-1.92,27.44-5.66c4.77-2.06,9.11-4.76,13.2-7.95,2.27-1.76,4.42-3.66,6.59-5.53,1.03-.89,2.06-1.77,3.11-2.63.23-.19.47-.38.71-.57,1.16-.94-.77.56.42-.33.61-.45,1.22-.9,1.84-1.33,2.14-1.49,3.34-4.45,1.79-6.84-1.37-2.13-4.54-3.39-6.84-1.79h0Z"/>
    <g>
      <path class="cls-2" d="m151.13,130.21s.81-1.03.31-.43.33-.38.35-.4c.38-.45.77-.88,1.18-1.3.86-.89,1.77-1.74,2.73-2.53.15-.12,1.2-.93.23-.2.21-.16.42-.32.64-.47.48-.35.97-.69,1.47-1.02,1.12-.74,2.27-1.43,3.44-2.08s2.28-1.2,3.44-1.75c.49-.23.99-.46,1.48-.68.31-.14.62-.27.94-.41.33-.14.25-.11-.25.11.19-.08.38-.16.57-.23,2.57-1.05,5.18-1.97,7.8-2.87,5.59-1.92,11.19-3.78,16.59-6.21,5.04-2.27,9.67-5.2,13.86-8.82,15.99-13.78,22.01-34.85,28.09-54.23.9-2.87,1.83-5.74,2.81-8.58.52-1.49,1.05-2.97,1.61-4.44.25-.67.51-1.33.78-2,.16-.4.32-.79.48-1.19.09-.22.59-1.4.16-.38,2.43-5.66,5.32-11.1,8.94-16.09,1.54-2.12.43-5.66-1.79-6.84-2.59-1.37-5.2-.47-6.84,1.79-6.65,9.18-10.84,19.86-14.34,30.56-1.69,5.18-3.24,10.4-4.9,15.59-.77,2.4-1.56,4.79-2.41,7.16-.39,1.08-.79,2.16-1.2,3.23-.23.6-.47,1.19-.7,1.79-.1.24-.19.48-.29.71-.07.18-.57,1.4-.09.23-1.84,4.49-4.09,8.86-6.66,12.97-.64,1.02-1.31,2.03-2,3.03-.33.47-.66.93-1,1.39-.15.2-.3.41-.46.61-.6.81.54-.67-.27.34-1.51,1.88-3.12,3.67-4.86,5.35-.87.84-1.77,1.65-2.7,2.43-.39.33-.78.68-1.19.97.91-.63.16-.13-.06.04-.31.23-.63.46-.94.68-2.23,1.57-4.61,2.94-7.06,4.14-.53.26-1.06.51-1.59.75-.33.15-.67.3-1.01.45-.22.1-1.13.48-.23.1-1.36.56-2.74,1.1-4.12,1.61-2.64.98-5.32,1.87-7.98,2.79-11.86,4.05-23.94,8.8-31.56,19.3-1.54,2.12-.43,5.66,1.79,6.84,2.59,1.37,5.2.47,6.84-1.79h0Z"/>
      <path class="cls-2" d="m149.01,127.54c-.56-3.23-1.1-6.46-1.59-9.71-.12-.81-.24-1.62-.35-2.43-.02-.15-.13-.98-.02-.13-.05-.41-.11-.81-.16-1.22-.21-1.71-.41-3.41-.57-5.13-.6-6.33-.82-12.72-.33-19.07.11-1.38.2-2.79.43-4.16-.19,1.18.09-.55.14-.91.12-.75.25-1.49.39-2.23.52-2.7,1.18-5.38,2.01-8,.37-1.18.78-2.35,1.23-3.51.12-.32.25-.64.38-.96.1-.25.48-1.11.05-.14.3-.69.61-1.38.94-2.07,1.16-2.43,2.48-4.77,3.98-7,.39-.57.78-1.14,1.19-1.7.16-.22.33-.45.5-.67-.7.93.15-.18.25-.3.87-1.06,1.78-2.09,2.73-3.08,1.85-1.92,3.84-3.7,5.94-5.33-.88.69.48-.34.75-.54.49-.35.98-.7,1.48-1.04,1.17-.8,2.36-1.56,3.57-2.28,2.28-1.36,4.62-2.61,7.01-3.76,1.24-.6,2.49-1.17,3.75-1.71.25-.11.51-.22.76-.33-.93.4-.24.1-.05.02.77-.31,1.54-.63,2.31-.93,2.58-1.01,5.19-1.95,7.81-2.84,5.32-1.8,10.72-3.38,16.1-5.01,12.71-3.84,25.6-7.99,36.86-15.21,2.2-1.41,3.3-4.51,1.79-6.84-1.42-2.2-4.49-3.3-6.84-1.79-2.51,1.61-5.1,3.07-7.76,4.41-1.24.62-2.49,1.21-3.75,1.77-.67.3-1.33.59-2.01.88.91-.39,0,0-.22.09-.47.19-.95.39-1.43.57-5.49,2.17-11.11,3.98-16.75,5.71-11.28,3.45-22.61,6.67-33.38,11.54-10.54,4.77-20.23,11.38-27.31,20.64-7.2,9.42-10.95,20.9-12.44,32.56-1.9,14.86.4,29.88,2.94,44.51.45,2.58,3.75,4.27,6.15,3.49,2.78-.9,3.97-3.38,3.49-6.15h0Z"/>
    </g>
    <path class="cls-2" d="m231.36,211.4c-1.28-7.84-6.27-14.81-12.11-19.98-6.49-5.75-14.16-9.8-21.6-14.13-3.62-2.11-7.19-4.31-10.67-6.63-1.74-1.16-3.45-2.35-5.14-3.58-.78-.57-1.56-1.14-2.33-1.73-.21-.16-1.28-.99-.58-.44-.47-.37-.93-.73-1.4-1.1-6.35-5.08-12.26-10.73-17.34-17.09-.18-.22-1.14-1.48-.53-.66-.3-.4-.6-.79-.89-1.19-.67-.91-1.32-1.83-1.96-2.76-1.22-1.8-2.38-3.65-3.45-5.54s-2.12-3.93-3.05-5.97c-.23-.51-.45-1.02-.67-1.53.38.9-.08-.23-.21-.54-.43-1.1-.84-2.21-1.21-3.33-.84-2.47-3.48-4.36-6.15-3.49-2.46.79-4.39,3.5-3.49,6.15,5.31,15.7,15.66,29.16,28.12,39.9,6.52,5.62,13.57,10.64,20.89,15.16,7.15,4.41,14.76,8.14,21.55,13.11.18.13.36.27.54.4.15.11.95.75.23.17.4.32.8.64,1.2.97.82.69,1.62,1.4,2.4,2.14s1.52,1.51,2.23,2.31c.31.35.62.7.91,1.06.17.2.33.42.5.62-.27-.31-.38-.51-.06-.07,1.24,1.7,2.3,3.47,3.21,5.37.05.1.31.7.06.11-.29-.68.17.45.18.48.16.42.3.85.43,1.28.32,1.05.56,2.11.74,3.19.42,2.59,3.77,4.26,6.15,3.49,2.8-.91,3.94-3.38,3.49-6.15h0Z"/>
  </g>
  <g>
    <path class="cls-1" d="m134.54,118.7c1.03.14-.15-.06-.52-.14-.47-.1-.94-.22-1.4-.35-.53-.15-1.05-.32-1.57-.5-.33-.12-1.67-.71-.71-.26-1.89-.87-3.7-1.87-5.45-2.99-3.61-2.3-7.02-4.89-10.62-7.21-7.83-5.03-16.36-9.12-25.47-11.19-18.56-4.23-38.04-1.3-55.52,5.79-4.91,1.99-9.62,4.34-14.43,6.55-.54.25-1.07.49-1.61.73-.27.12-.54.24-.81.35.66-.28.14-.06-.23.09-1.15.47-2.32.9-3.5,1.28-1.11.36-2.23.68-3.37.94-.64.15-1.29.28-1.93.39-.22.04-.43.07-.65.1,1.16-.18-.29.01-.43.03-2.6.24-5.13,2.13-5,5,.11,2.5,2.21,5.26,5,5,4.74-.44,9.18-1.68,13.56-3.52s8.55-3.98,12.85-5.91c.49-.22.97-.43,1.46-.65.28-.12.56-.24.84-.36.53-.23-.06.03-.14.06,1.13-.46,2.26-.92,3.4-1.35,2.14-.82,4.3-1.57,6.49-2.25,4.38-1.37,8.85-2.47,13.37-3.22.53-.09,1.06-.17,1.59-.25.23-.03.46-.07.68-.1-.94.14-.15.02.04,0,1.22-.15,2.44-.28,3.67-.38,2.3-.19,4.61-.28,6.91-.28s4.46.1,6.68.29c.54.05,1.07.1,1.6.16.21.02,2.01.26.95.11,1.14.16,2.27.35,3.4.56,2.25.43,4.48.96,6.68,1.62,1.1.33,2.18.68,3.26,1.07.5.18.99.36,1.48.55.21.08.42.16.63.25-.03-.01,1.21.49.65.26s.31.14.44.19c.21.09.41.18.62.27.55.25,1.09.5,1.63.76,1.01.49,2.02.99,3.01,1.52,1.98,1.05,3.92,2.18,5.82,3.37,4.08,2.54,7.89,5.47,11.94,8.05,4.55,2.9,9.34,4.89,14.7,5.61,2.6.35,5.11-2.55,5-5-.13-3.01-2.21-4.63-5-5h0Z"/>
    <path class="cls-1" d="m132.41,120.29c-4.33,3.01-8.19,6.58-12.23,9.95-.41.34-.81.68-1.22,1.01-.23.19-.47.37-.71.57-.61.5.57-.41-.06.05-.91.67-1.82,1.34-2.76,1.96-1.72,1.14-3.52,2.19-5.36,3.13-.92.47-1.86.92-2.81,1.34-.23.1-.47.22-.72.31,1.01-.37.33-.14.11-.05-.55.21-1.09.43-1.64.64-2.02.75-4.09,1.4-6.18,1.93s-4.1.94-6.18,1.25c-.26.04-.52.08-.78.11,1.14-.13.4-.05.15-.03-.52.05-1.05.12-1.57.17-1.11.1-2.23.18-3.35.22-2.1.08-4.21.06-6.32-.06-1.05-.06-2.1-.15-3.14-.27-.26-.03-.52-.06-.78-.09-.74-.08.89.14.16.02-.58-.1-1.17-.18-1.75-.28-2.06-.36-4.11-.84-6.12-1.42-1-.29-2-.61-2.99-.96-.51-.18-1.02-.37-1.52-.56-.28-.11-.55-.22-.83-.33-.88-.34.28.14-.25-.1-8.85-3.86-16.78-9.42-25.41-13.71-5.23-2.6-10.72-4.75-16.34-6.35-2.61-.74-5.26-1.34-7.92-1.88-1.28-.26-2.55-.52-3.8-.9-.26-.08-.51-.16-.77-.25-.29-.1-.99-.54-.11-.03-.58-.34-1.17-.62-1.72-1-2.16-1.48-5.64-.48-6.84,1.79-1.34,2.54-.51,5.26,1.79,6.84,4.16,2.85,9.5,3.2,14.26,4.41,2.45.62,4.88,1.35,7.27,2.18,1.16.4,2.3.83,3.44,1.27.57.22,1.14.45,1.7.69-.81-.34-.08-.03.07.04.42.19.84.37,1.25.56,9,4.09,17.09,9.89,26.05,14.06s18.02,6.32,27.66,6.39,18.78-1.92,27.44-5.66c4.77-2.06,9.11-4.76,13.2-7.95,2.27-1.76,4.42-3.66,6.59-5.53,1.03-.89,2.06-1.77,3.11-2.63.23-.19.47-.38.71-.57,1.16-.94-.77.56.42-.33.61-.45,1.22-.9,1.84-1.33,2.14-1.49,3.34-4.45,1.79-6.84-1.37-2.13-4.54-3.39-6.84-1.79h0Z"/>
    <g>
      <path class="cls-1" d="m144.2,123.69s.81-1.03.31-.43.33-.38.35-.4c.38-.45.77-.88,1.18-1.3.86-.89,1.77-1.74,2.73-2.53.15-.12,1.2-.93.23-.2.21-.16.42-.32.64-.47.48-.35.97-.69,1.47-1.02,1.12-.74,2.27-1.43,3.44-2.08s2.28-1.2,3.44-1.75c.49-.23.99-.46,1.48-.68.31-.14.62-.27.94-.41.33-.14.25-.11-.25.11.19-.08.38-.16.57-.23,2.57-1.05,5.18-1.97,7.8-2.87,5.59-1.92,11.19-3.78,16.59-6.21,5.04-2.27,9.67-5.2,13.86-8.82,15.99-13.78,22.01-34.85,28.09-54.23.9-2.87,1.83-5.74,2.81-8.58.52-1.49,1.05-2.97,1.61-4.44.25-.67.51-1.33.78-2,.16-.4.32-.79.48-1.19.09-.22.59-1.4.16-.38,2.43-5.66,5.32-11.1,8.94-16.09,1.54-2.12.43-5.66-1.79-6.84-2.59-1.37-5.2-.47-6.84,1.79-6.65,9.18-10.84,19.86-14.34,30.56-1.69,5.18-3.24,10.4-4.9,15.59-.77,2.4-1.56,4.79-2.41,7.16-.39,1.08-.79,2.16-1.2,3.23-.23.6-.47,1.19-.7,1.79-.1.24-.19.48-.29.71-.07.18-.57,1.4-.09.23-1.84,4.49-4.09,8.86-6.66,12.97-.64,1.02-1.31,2.03-2,3.03-.33.47-.66.93-1,1.39-.15.2-.3.41-.46.61-.6.81.54-.67-.27.34-1.51,1.88-3.12,3.67-4.86,5.35-.87.84-1.77,1.65-2.7,2.43-.39.33-.78.68-1.19.97.91-.63.16-.13-.06.04-.31.23-.63.46-.94.68-2.23,1.57-4.61,2.94-7.06,4.14-.53.26-1.06.51-1.59.75-.33.15-.67.3-1.01.45-.22.1-1.13.48-.23.1-1.36.56-2.74,1.1-4.12,1.61-2.64.98-5.32,1.87-7.98,2.79-11.86,4.05-23.94,8.8-31.56,19.3-1.54,2.12-.43,5.66,1.79,6.84,2.59,1.37,5.2.47,6.84-1.79h0Z"/>
      <path class="cls-1" d="m142.08,121.03c-.56-3.23-1.1-6.46-1.59-9.71-.12-.81-.24-1.62-.35-2.43-.02-.15-.13-.98-.02-.13-.05-.41-.11-.81-.16-1.22-.21-1.71-.41-3.41-.57-5.13-.6-6.33-.82-12.72-.33-19.07.11-1.38.2-2.79.43-4.16-.19,1.18.09-.55.14-.91.12-.75.25-1.49.39-2.23.52-2.7,1.18-5.38,2.01-8,.37-1.18.78-2.35,1.23-3.51.12-.32.25-.64.38-.96.1-.25.48-1.11.05-.14.3-.69.61-1.38.94-2.07,1.16-2.43,2.48-4.77,3.98-7,.39-.57.78-1.14,1.19-1.7.16-.22.33-.45.5-.67-.7.93.15-.18.25-.3.87-1.06,1.78-2.09,2.73-3.08,1.85-1.92,3.84-3.7,5.94-5.33-.88.69.48-.34.75-.54.49-.35.98-.7,1.48-1.04,1.17-.8,2.36-1.56,3.57-2.28,2.28-1.36,4.62-2.61,7.01-3.76,1.24-.6,2.49-1.17,3.75-1.71.25-.11.51-.22.76-.33-.93.4-.24.1-.05.02.77-.31,1.54-.63,2.31-.93,2.58-1.01,5.19-1.95,7.81-2.84,5.32-1.8,10.72-3.38,16.1-5.01,12.71-3.84,25.6-7.99,36.86-15.21,2.2-1.41,3.3-4.51,1.79-6.84-1.42-2.2-4.49-3.3-6.84-1.79-2.51,1.61-5.1,3.07-7.76,4.41-1.24.62-2.49,1.21-3.75,1.77-.67.3-1.33.59-2.01.88.91-.39,0,0-.22.09-.47.19-.95.39-1.43.57-5.49,2.17-11.11,3.98-16.75,5.71-11.28,3.45-22.61,6.67-33.38,11.54s-20.23,11.38-27.31,20.64-10.95,20.9-12.44,32.56c-1.9,14.86.4,29.88,2.94,44.51.45,2.58,3.75,4.27,6.15,3.49,2.78-.9,3.97-3.38,3.49-6.15h0Z"/>
    </g>
    <path class="cls-1" d="m224.43,204.88c-1.28-7.84-6.27-14.81-12.11-19.98-6.49-5.75-14.16-9.8-21.6-14.13-3.62-2.11-7.19-4.31-10.67-6.63-1.74-1.16-3.45-2.35-5.14-3.58-.78-.57-1.56-1.14-2.33-1.73-.21-.16-1.28-.99-.58-.44-.47-.37-.93-.73-1.4-1.1-6.35-5.08-12.26-10.73-17.34-17.09-.18-.22-1.14-1.48-.53-.66-.3-.4-.6-.79-.89-1.19-.67-.91-1.32-1.83-1.96-2.76-1.22-1.8-2.38-3.65-3.45-5.54s-2.12-3.93-3.05-5.97c-.23-.51-.45-1.02-.67-1.53.38.9-.08-.23-.21-.54-.43-1.1-.84-2.21-1.21-3.33-.84-2.47-3.48-4.36-6.15-3.49-2.46.79-4.39,3.5-3.49,6.15,5.31,15.7,15.66,29.16,28.12,39.9,6.52,5.62,13.57,10.64,20.89,15.16s14.76,8.14,21.55,13.11c.18.13.36.27.54.4.15.11.95.75.23.17.4.32.8.64,1.2.97.82.69,1.62,1.4,2.4,2.14s1.52,1.51,2.23,2.31c.31.35.62.7.91,1.06.17.2.33.42.5.62-.27-.31-.38-.51-.06-.07,1.24,1.7,2.3,3.47,3.21,5.37.05.1.31.7.06.11-.29-.68.17.45.18.48.16.42.3.85.43,1.28.32,1.05.56,2.11.74,3.19.42,2.59,3.77,4.26,6.15,3.49,2.8-.91,3.94-3.38,3.49-6.15h0Z"/>
  </g>
</svg>