<?xml version="1.0" encoding="UTF-8"?>
<svg id="kaartje_tekening" data-name="kaartje tekening" xmlns="http://www.w3.org/2000/svg" viewBox="0 0 617.86 711.74">
  <defs>
    <style>
      .cls-1 {
        opacity: .25;
      }

      .cls-2 {
        fill: #9d9f77;
        stroke-width: 0px;
      }
    </style>
  </defs>
  <g class="cls-1">
    <path class="cls-2" d="m166.6,70.73c-15.17-4.08-31.31,5.15-37.51,19.18-7.45,16.85-1.73,36.15,9.47,49.83s27.74,21.55,43.19,30.35c7.71,4.39,15.17,9.39,20.85,16.31,6.25,7.61,9.9,17.06,12.66,26.4,5.26,17.8,7.68,37.48,2.02,55.49-4.85,15.43-16.19,27.72-31.83,32.48-6.83,2.08-14.2,2.6-21.14.68s-16.53-7.24-16.07-15.49c.56-10,11.17-14.05,19.77-13.78,8.13.26,16.03,3.31,22.71,7.84,13.48,9.13,22.34,24.47,25.27,40.31,3.8,20.46-1.13,41.53-8.6,60.59-14.86,37.91-41.5,71.92-43.98,113.89-.58,9.71.27,19.62,3.02,28.98,2.47,8.4,6.89,15.02,15.38,18.09,13.77,4.97,29.36.93,40.67-7.82,5.6-4.34,10.35-9.92,13.37-16.35s5.07-14.09,3.14-20.82c-2.64-9.21-12.39-7.91-19.96-7.04-7.74.89-15.72,2.43-22.43,6.61-15.59,9.71-15.6,31-15.21,47.34.22,9.2,1.56,18.47,5.35,26.92,3.57,7.97,9.44,14.55,15.91,20.3s14.01,11.15,20.53,17.28,11.66,12.6,16.11,19.94c8.88,14.66,13.99,31.6,14.59,48.74.3,8.42-.5,16.8-2.4,25.01-.72,3.13,4.1,4.47,4.82,1.33,7.51-32.47-1.66-67.9-23.89-92.73-11.5-12.85-27.96-21.14-37.63-35.64-5.42-8.13-7.65-17.71-8.24-27.36s-.38-19.39,1.36-28.64c1.66-8.84,6.03-15.94,14.3-19.88,7.4-3.52,16.16-4.51,24.25-4.89,2.21-.1,4.8-.21,6.44,1.55,1.44,1.55,1.7,4.02,1.72,6.04.04,3.61-.75,7.23-1.96,10.61-2.47,6.93-7.23,12.99-12.98,17.52-5.64,4.46-12.43,7.53-19.54,8.67s-17.4.33-23.09-5.13c-6.46-6.2-7.94-17.85-8.58-26.3-.77-10.14.3-20.32,2.56-30.22,9.11-40.02,36.43-72.81,47.03-112.32,4.84-18.03,6.34-37.84.05-55.72-5.11-14.54-15.01-27.9-28.6-35.51-12.74-7.13-33.86-10.77-43.28,3.5-4.3,6.52-3.84,14.54,1.4,20.34,4.75,5.27,11.85,8.63,18.78,9.8,14.01,2.38,28.47-2.74,39.2-11.73,12.76-10.68,18.59-27.2,19.66-43.43,1.19-17.91-2.75-36.82-9.79-53.25-3.61-8.44-8.68-16.11-15.64-22.16-6.42-5.58-13.84-9.81-21.29-13.84-15.76-8.51-31.88-17.43-41.3-33.35s-9.77-38.11,6.28-49.36c6.34-4.45,14.16-6.41,21.73-4.37,3.11.84,4.44-3.99,1.33-4.82h0Z"/>
    <path class="cls-2" d="m458.81,24.61c-14.77,48.44-17.85,99.22-25.32,149.05-3.63,24.19-8.11,48.49-16.34,71.59-7.62,21.41-18.82,42.78-36.1,57.98-15.9,13.98-38.94,21.69-59.35,13.15-17.16-7.18-29.01-28.92-20.26-46.73,4.08-8.31,12.24-13.9,21.22-15.68,9.6-1.91,19.11,1.41,26.15,8.05,7.21,6.81,11.78,16.07,14.78,25.41,3.46,10.79,5.29,22.14,5.86,33.44,2.4,47.45-17.1,92.73-40.33,132.98-11.42,19.79-23.69,39.86-29.09,62.3-1.27,5.27-2.12,10.65-2.5,16.06s-.68,11.19,1.36,16.19c4.31,10.54,18.17,10.14,27.66,10.97,13.32,1.17,26.69,1.77,40.06,1.8,12.08.03,24.28-.12,36.23-1.97,10.77-1.67,21.33-5.12,30.31-11.43,7.69-5.4,14.02-12.44,19.07-20.34,10.43-16.28,15.61-35.56,18.87-54.43,2.05-11.84,3.57-23.9,3.06-35.94-.46-10.82-2.17-23.61-8.44-32.75-4.96-7.23-14.85-13.7-22.57-6.22-7.08,6.86-10.8,17.77-12.09,27.3-2.85,21.04,5.5,41.34,19.44,56.84,27.97,31.1,80.04,50.99,118.08,26.45,8.15-5.26,15.03-12.32,19.71-20.83,1.55-2.82-2.77-5.35-4.32-2.52-9.8,17.84-29.7,28.16-49.66,29.27-23.3,1.29-46.24-8.28-64.74-21.88-16.7-12.27-30.71-29.86-33.57-50.91-1.39-10.21-.22-21.07,4.26-30.43,1.86-3.88,4.93-10.51,9.54-11.56s8.97,3.34,11.36,6.69c3.19,4.47,4.79,10.03,6,15.32,1.37,5.94,1.97,12.01,2.07,18.09.19,11.67-1.39,23.32-3.5,34.78-3.44,18.64-8.86,37.67-19.92,53.33-5.42,7.67-12.37,14.27-20.61,18.82-10.15,5.6-21.78,7.72-33.22,8.59-12.63.96-25.38.9-38.03.54-12.79-.37-25.72-1.02-38.42-2.71-5.15-.68-10.63-2.17-12.35-7.69-1.59-5.11-.92-11.24-.37-16.48,1.17-11.12,4.62-21.98,9.04-32.22,9.08-21.04,22.08-40.08,32.58-60.4,20.84-40.29,35.7-86.48,28.25-132.22-3.04-18.69-9.85-40.51-27.05-50.93-15.86-9.61-37.98-4.18-47.46,11.88s-3.5,36.71,9.61,48.31c15.62,13.81,39.19,14.03,57.5,5.89,19.67-8.74,34.08-26.39,44.27-44.84,11.36-20.58,18.12-43.36,22.91-66.26,10.19-48.72,12.39-98.7,22.39-147.46,2.41-11.76,5.29-23.42,8.8-34.9.94-3.08-3.88-4.4-4.82-1.33h0Z"/>
    <path class="cls-2" d="m296.17,688.33c-1.17-12.84-1.48-26.45,3.25-38.66,2.2-5.68,5.77-10.83,10.5-14.69,5.27-4.29,11.86-6.67,18.5-7.76,15.24-2.51,30.44,2.51,44.63,7.55,15.02,5.33,30.07,10.51,45.97,12.44,15.25,1.85,30.8.17,44.54-7.01s23.92-17.76,34.1-28.45c21.84-22.95,41.6-47.8,60.14-73.46,18.64-25.81,36.05-52.47,53.31-79.22,2.12-3.28,4.23-6.56,6.34-9.84,1.75-2.71-2.58-5.22-4.32-2.52-17.34,26.92-34.7,53.85-53.19,80.01-18.31,25.91-37.75,51.08-59.23,74.46-10.16,11.05-20.58,22.58-33.2,30.89-6.28,4.14-13.07,7.27-20.39,9.04s-15.27,2.16-22.96,1.61c-15.89-1.13-31.21-6.12-46.12-11.45-14.49-5.18-29.59-10.62-45.23-9.53-13.85.97-27,6.98-34.51,19.04-6.96,11.18-8.19,25.08-7.76,37.95.11,3.21.33,6.42.62,9.62s5.29,3.21,5,0h0Z"/>
    <path class="cls-2" d="m53.34,625.32c14.53-6.37,29.41-12.44,45.16-14.96,13.87-2.22,28.91-1.38,41.75,4.72,10.49,4.97,22.83,15.43,18.58,28.45-1.7,5.21-6.12,8.94-11.74,8.66-6.39-.33-11.48-5.09-14.39-10.44-3.46-6.36-4.77-13.9-5.84-20.99-1.16-7.68-1.59-15.47-1.55-23.23.09-15.71,2.19-31.33,4.75-46.81,2.63-15.91,5.71-31.75,7.82-47.75,1.04-7.91,1.84-15.86,2.2-23.83s.23-15.39-1.12-22.97c-1.23-6.97-3.68-13.77-7.62-19.68-3.46-5.19-7.86-9.57-12.84-13.29-10.05-7.49-22.27-11.87-34.41-14.52-2.96-.65-5.94-1.19-8.93-1.64-1.33-.2-2.69.34-3.08,1.75-.33,1.18.4,2.87,1.75,3.08,12.56,1.92,25.2,5.3,36.24,11.76,5.23,3.06,10.01,6.83,13.97,11.45,4.39,5.12,7.39,11.22,9.08,17.72,1.95,7.49,2.28,15.29,2.08,23s-.94,16.15-1.93,24.18c-2.02,16.34-5.22,32.5-7.91,48.74s-4.93,32.28-5.04,48.6c-.06,8.15.46,16.28,1.66,24.34,1.11,7.51,2.6,15.29,6.13,22.09,3.23,6.23,8.75,11.5,15.77,13.03,6.77,1.47,13.33-1.06,17.29-6.74,3.57-5.14,4.41-12.07,2.58-17.99-2.09-6.76-6.94-12.15-12.55-16.28-12.06-8.88-27.76-11.98-42.49-11.39-16.16.65-31.72,5.73-46.57,11.83-3.79,1.56-7.55,3.18-11.31,4.83-1.24.54-1.52,2.35-.9,3.42.75,1.28,2.18,1.44,3.42.9h0Z"/>
    <path class="cls-2" d="m28.15,165.92c18.04-1.93,37.23-4.03,54.45,3.16,6.94,2.89,13.42,7.3,18.08,13.25,5.01,6.4,7.63,14.59,8.68,22.57,1.76,13.42-1.1,28.91-11.77,38.12-12.51,10.79-30.86,7.84-45.35,3.53-3.75-1.12-8.77-3.33-11.72.55-1.29,1.69-1.49,3.87-1.82,5.9s-.65,4.04-.93,6.06c-1.14,8.31-1.75,16.81,0,25.09,1.58,7.47,5.41,14.37,11.22,19.37,5.24,4.51,11.53,7.41,18,9.7,13.22,4.66,27.81,6.76,39.3,15.33,3.18,2.37,6.07,5.25,8.5,8.39s4.78,6.84,5.96,10.72.96,7.59-1.93,10.44c-2.69,2.64-6.5,3.93-10.08,4.84-16.85,4.3-34.49-2.36-49.02-10.65-15.13-8.63-28.7-19.85-44.55-27.22-3.92-1.82-7.95-3.41-12.09-4.67-3.09-.94-4.41,3.89-1.33,4.82,17.03,5.16,31.38,16.13,46.13,25.66s31.76,18.34,49.93,18.37c4.46,0,8.98-.56,13.28-1.77,3.97-1.12,7.95-2.75,11-5.6,7.36-6.86,3.89-17.16-.83-24.44s-10.86-12.91-18.24-16.91c-6.4-3.47-13.4-5.68-20.36-7.73-12.48-3.67-27.32-6.97-35.2-18.36-4.64-6.71-5.93-14.85-5.78-22.86.08-4.15.49-8.3,1.09-12.41.31-2.15.66-4.29,1.02-6.43.23-1.32.18-3.01,1.83-2.88,1.89.15,3.87,1.09,5.68,1.63,2.04.6,4.1,1.16,6.17,1.65,4.22,1,8.52,1.74,12.85,2.09,8.39.68,17.07-.36,24.57-4.37,13.63-7.28,19.66-22.85,19.91-37.63.14-8.17-1.36-16.54-4.51-24.08s-8.7-14.33-15.7-19.19c-15.06-10.46-34.03-11.69-51.76-10.42-4.91.35-9.8.87-14.69,1.39-1.34.14-2.5,1.05-2.5,2.5,0,1.24,1.15,2.64,2.5,2.5h0Z"/>
    <path class="cls-2" d="m222.14.57c-12.57,9.72-15.44,28.42-8.59,42.33,9.3,18.89,32.77,17.08,47.79,28.5s20.38,31.79,21.79,49.78c1.52,19.52.07,47.5-21.88,55.44-9.21,3.33-20.12-.12-24.69-9.13-4.87-9.59,2.53-18.53,10.58-23.15,8.92-5.12,20.92-8.26,31.1-5.78s16.16,10.43,18.59,19.88c5.54,21.49-9.84,40.48-23.24,55.39-7.38,8.22-15.01,16.38-20.82,25.83s-9.1,19.51-10.55,30.19c-2.85,20.95,1.25,43.13,8.57,62.81,5.92,15.92,15.69,33.08,31.96,40.18,3.9,1.7,7.95,2.63,12.18,3,1.17.1,2.03-.86,2.41-1.84,2.44-6.28-.87-12.48-5.97-16.26-5.38-3.98-11.9-4.91-18.34-3.48-12.77,2.83-21.56,14.28-26.58,25.66-6.2,14.03-9.19,31.09-6.27,46.25s14.2,28.18,23.42,40.85c8.31,11.42,14.13,23.75,16.41,37.76,2.21,13.57,1.09,27.72-3.16,40.78-4.17,12.79-11.57,24.5-21.85,33.25-1.43,1.22-2.99,2.76-4.73,3.51-2.38,1.02-.77-.59.16-1.56,2.15-2.26,5.21-3.33,8.27-3.49,6.13-.31,12.62,2.59,16.52,7.33,5.94,7.22,6.46,17.64,6.05,26.54-.48,10.45-1.96,20.9-3.12,31.3-2.47,22.32-5.15,44.63-8.01,66.9-.41,3.18,4.59,3.15,5,0,2.69-20.89,5.21-41.79,7.55-62.72,1.11-9.89,2.3-19.78,3.18-29.7.74-8.32,1.01-16.99-1.47-25.07-3.82-12.43-16.04-22.25-29.56-19.07-4.13.97-11.74,5.29-10.94,10.41.43,2.71,2.84,4.55,5.54,4.43,3.64-.16,6.85-3.35,9.45-5.59,21.14-18.24,29.93-47.92,26.44-75.11-1.79-14.01-6.84-27.16-14.83-38.79-9.41-13.7-22.27-26.38-25.5-43.3-1.96-10.27-.62-21.37,2-31.41,2.07-7.92,5.3-15.71,10.23-22.3,4.66-6.23,11.21-11.41,19.13-12.4,7.45-.93,19.77,4.66,16.16,13.94l2.41-1.84c-20.14-1.73-32.42-21.43-38.96-38.57-8.07-21.12-12.62-45.7-7.7-68.07,2.62-11.94,8.29-22.47,15.9-31.97s15.76-17.38,22.98-26.64c12.23-15.67,21.11-35.99,12.01-55.38-4.07-8.67-11.78-15.1-21.28-16.83-10.25-1.87-21.31.7-30.56,5.21-7.96,3.88-15.65,10.46-17.06,19.66s4.24,17.54,12.06,21.74c19.34,10.4,38.44-7.65,43.58-25.5,3.08-10.71,3.11-22.29,2.25-33.32-.76-9.67-2.48-19.38-5.94-28.47-3.27-8.58-8.05-16.73-14.94-22.9-7.76-6.94-17.3-9.92-26.97-13.18s-18.81-7.7-22.98-17.54c-3.34-7.89-3.22-17.44.46-25.2,1.85-3.9,4.52-7.16,7.94-9.8,2.54-1.97-1.02-5.48-3.54-3.54h0Z"/>
  </g>
</svg>