<?xml version="1.0" encoding="UTF-8"?>
<svg xmlns="http://www.w3.org/2000/svg" viewBox="0 0 377.94 667.54">
  <defs>
    <style>
      .cls-1 {
        letter-spacing: 0em;
      }

      .cls-2 {
        letter-spacing: -.01em;
      }

      .cls-3 {
        fill: #727456;
        font-family: LuckiestGuy-Regular, 'Luckiest Guy';
        font-size: 37.89px;
      }

      .cls-4 {
        letter-spacing: 0em;
      }

      .cls-5 {
        letter-spacing: 0em;
      }

      .cls-6 {
        letter-spacing: 0em;
      }

      .cls-7 {
        letter-spacing: 0em;
      }

      .cls-8 {
        letter-spacing: 0em;
      }

      .cls-9 {
        letter-spacing: 0em;
      }

      .cls-10 {
        fill: #f2efdf;
      }

      .cls-10, .cls-11, .cls-12 {
        stroke-width: 0px;
      }

      .cls-11 {
        fill: #364023;
      }

      .cls-12 {
        fill: #9d9f77;
      }
    </style>
  </defs>
  <g id="back">
    <rect class="cls-10" x=".48" y=".14" width="375" height="667"/>
  </g>
  <g id="nieuw">
    <path class="cls-12" d="m63.53,43.1c-15.85-4.26-32.26,5.88-38.13,20.66-6.86,17.27-.23,36.64,11.5,50.02s29.15,21.07,44.8,30.44c7.93,4.75,15.32,10.43,20.51,18.2,5.4,8.08,8.62,17.4,11.09,26.73,4.81,18.11,6.46,38.22-.68,55.97-6.02,14.96-19.02,26.11-34.94,29.2-7.13,1.38-14.84.85-21.43-2.35-3.61-1.75-7.32-4.25-9.49-7.68-2.5-3.95-1.78-8.74.74-12.49,5.49-8.19,17.08-8.22,25.64-6.03,7.88,2.01,15.02,6.24,20.93,11.79,12.75,11.99,19.38,28.91,20.07,46.22.85,21.25-6.02,42.03-14.78,61.12-16.87,36.75-42.75,73.54-38.83,115.99.81,8.76,2.45,18.89,7.88,26.1,4.94,6.56,13.54,9.04,21.45,9.38,14.41.61,28.8-6.73,37.67-17.93,4.48-5.66,7.63-12.33,8.66-19.5s-.24-16.09-8.87-17.25c-4.13-.56-8.61.18-12.73.7s-8.05,1.2-11.94,2.4c-7.67,2.38-14.7,6.79-18.71,13.94-4.4,7.82-4.94,17.16-5.39,25.92-.49,9.53-.41,19.24,1.8,28.57s6.74,17.39,12.8,24.53c5.2,6.12,11.57,10.92,17.96,15.71,9,6.74,16.82,14.04,22.68,23.72,7.24,11.95,11.31,25.55,13.67,39.25,1.64,9.48,2.39,19.1,2.66,28.71.09,3.21,5.09,3.22,5,0-.81-28.1-5.73-58.69-24.47-80.84-8.39-9.92-19.88-16.15-29.2-25.04-6.87-6.55-12.56-14.7-15.34-23.84-2.82-9.26-3.06-19.04-2.67-28.64.37-8.92.55-19.02,5.55-26.78,4.68-7.25,13.09-10.36,21.21-11.91,4.16-.79,8.4-1.21,12.62-1.48,2-.13,4.53-.37,6.27.86s2.32,3.76,2.44,5.83c.45,7.4-2.69,14.96-6.98,20.84-8.51,11.66-23.89,19.2-38.39,16.87-4.32-.69-8.95-2.1-12.17-5.17s-4.92-7.72-6.1-12.01c-2.75-9.96-3.26-20.39-2.24-30.65,4.16-41.78,31.96-75.71,45.64-114.33,6.68-18.86,10.32-39.5,6.07-59.34-3.27-15.3-11.89-29.79-24.34-39.36-11.91-9.16-32.31-16-45.54-5.59-5.87,4.62-9.22,12.97-6.15,20.12s10.47,11.4,17.32,13.6c13.83,4.42,29.51.14,40.94-8.28,13.48-9.92,20.36-25.41,22.26-41.75,2.12-18.29-1.61-37.79-8.4-54.79-3.36-8.41-7.91-16.3-14.48-22.62s-14.01-10.67-21.71-14.87c-15.9-8.67-32.4-17.23-42.33-33.1s-11.01-38.06,4.72-49.98c6.43-4.87,14.66-7.09,22.55-4.97,3.11.84,4.44-3.99,1.33-4.82h0Z"/>
    <path class="cls-12" d="m351.46,1.75c-13.74,45.05-17.37,92.19-23.82,138.62-3.15,22.68-6.86,45.42-13.18,67.46s-14.65,41.81-28.19,59.13c-12.3,15.72-29.53,28.67-50.06,29.96-10.01.63-20.2-1.45-28.64-7.03-7.21-4.76-12.47-12.31-14.87-20.58-2.35-8.1-1.94-17.07,2.41-24.44,4.43-7.5,12.42-12.42,20.9-13.9,19.46-3.4,32.88,13.58,38.93,29.9,15.07,40.68,5.48,86.83-10.66,125.58-8.44,20.28-19.54,39.04-30.35,58.1-10.31,18.18-20.21,37.4-23.09,58.36-1.19,8.65-3.06,21.62,4.52,27.99,3.58,3.01,8.28,3.93,12.79,4.5,5.76.72,11.56,1.19,17.34,1.62,12.28.91,24.6,1.34,36.91,1.28,11.34-.05,22.77-.28,33.99-2.11,10.07-1.65,19.96-4.91,28.46-10.65,7.16-4.84,13.17-11.1,18.12-18.16,10.32-14.76,15.85-32.55,19.4-50.04,4.2-20.71,7.22-43.16,1.17-63.81-2.49-8.5-7.19-18.54-16.51-21.23-9.61-2.78-15.65,7.39-18.98,14.8-7.75,17.26-6.07,37.89,2.66,54.46,7.21,13.69,18.77,24.93,31.14,34.01,2.26,1.66,4.56,3.29,6.96,4.72,2.77,1.65,5.29-2.67,2.52-4.32-8.52-5.09-16.35-11.78-23.15-18.97-12.76-13.48-21.01-30.43-20.02-49.32.49-9.43,3.43-18.86,9.07-26.5,3.09-4.18,6.81-5.61,11.37-2.65,4.05,2.62,6.77,6.97,8.45,11.39,7.78,20.52,4.9,43.56.78,64.56-3.43,17.51-8.72,35.25-18.98,50.06-4.98,7.19-11.27,13.52-18.75,18.1-9.18,5.62-19.78,8.27-30.39,9.45-11.32,1.26-22.81,1.3-34.18,1.19-12.31-.12-24.62-.73-36.89-1.82-5.3-.47-11.01-.57-16.1-2.26s-7.26-6.04-7.53-11.37c-.54-10.46,1.47-21.01,4.62-30.94,6.44-20.32,17.95-38.57,28.47-56.94s20.32-38.4,27.36-58.94c6.99-20.38,11.53-41.79,11.78-63.39.23-19.5-2.64-40.58-11.9-58-8.31-15.63-23.73-27.24-42.12-23.18-17.05,3.76-28.61,19.42-26.78,36.81s14.8,32.31,32.04,36.95c19.25,5.18,39.41-1.04,54.78-13.04,16.11-12.58,27.46-30.6,35.63-49.11,9.02-20.45,14.4-42.23,18.43-64.15,8.42-45.72,10.99-92.35,20.54-137.88,2.33-11.1,5.08-22.1,8.39-32.94.94-3.08-3.88-4.4-4.82-1.33h0Z"/>
    <path class="cls-12" d="m193.1,660.7c-1.27-14-1.71-29.62,4.98-42.45,3.36-6.45,8.49-11.59,15.01-14.85,6.72-3.37,14.4-4.58,21.86-4.44,17.75.32,34.28,8.35,50.9,13.67,16.39,5.26,33.9,9.01,51.17,6.95,8.88-1.06,17.36-3.64,25.31-7.75,5.05-2.61,10.03-5.7,14.37-9.39.5-.42,1.08-.93,1.19-1.61.21-1.24-.31-2.81-1.75-3.08s-2.41.47-3.54,1.11c-1.72.97-3.42,1.97-5.13,2.96-5.3,3.09-10.58,6.21-15.87,9.33-2.77,1.64-.26,5.96,2.52,4.32,5.02-2.97,10.04-5.93,15.08-8.87,1.72-1.01,3.44-2.01,5.17-3,.53-.31,1.07-.61,1.61-.91.4-.22,1.14-.39.14-.13h-1.33,0c-.58-1.02-1.16-2.05-1.75-3.07.06-.37,1.06-1.31.38-.84-.24.16-.46.39-.68.57-.14.11-.28.23-.42.34-.16.13-.52.4-.14.12-.48.36-.96.72-1.44,1.07-2.57,1.86-5.25,3.58-8,5.15-7.52,4.28-15.62,7.18-24.18,8.46-17.09,2.56-34.56-1.2-50.81-6.37s-33.46-13.27-51.45-14c-7.93-.32-15.99.84-23.31,3.96-7.07,3.01-13.06,7.97-17.28,14.4-8.15,12.43-8.94,28.38-8.06,42.78.11,1.86.26,3.71.43,5.56.12,1.34,1.06,2.5,2.5,2.5,1.26,0,2.62-1.15,2.5-2.5h0Z"/>
    <path class="cls-12" d="m3.11,581.86c10.86.23,22.25.9,32.46,4.92,4.43,1.74,8.73,4.39,12.23,7.41s6.69,6.99,8.08,11.65c2.52,8.45-2.32,19.62-12.41,18.66-5.06-.48-9.57-3.84-12.36-7.96-3.32-4.89-4.88-10.68-6.07-16.4-5.31-25.53-2.23-51.85,1.98-77.3,2.17-13.08,4.65-26.11,6.61-39.23,1.84-12.26,2.99-24.51,3.59-36.88.56-11.61-.64-23.18-6.4-33.5-5.05-9.05-12.88-16.29-21.79-21.47-1.56-.91-3.16-1.75-4.78-2.54-1.21-.59-2.7-.33-3.42.9-.64,1.1-.32,2.83.9,3.42,8.38,4.1,16.17,9.77,21.69,17.39,3.78,5.23,6.41,11.11,7.77,17.42,1.15,5.33,1.32,10.79,1.13,16.22-.45,12.33-1.56,24.59-3.37,36.8-2.01,13.58-4.6,27.07-6.83,40.61-4.38,26.54-7.45,53.82-1.71,80.4,2.45,11.35,8,24.34,20.75,26.8,5.52,1.07,11.2-.4,15.11-4.55,3.55-3.76,5.38-9.02,5.34-14.16-.08-10.6-7.83-18.8-16.21-24.22-10.19-6.59-22.4-8.29-34.26-9.02-2.67-.16-5.35-.32-8.03-.38-3.22-.07-3.22,4.93,0,5h0Z"/>
    <path class="cls-12" d="m107.07,3.25c1.97,8.66,5.93,16.94,12.47,23.09,6.12,5.75,13.44,7.73,21.37,9.67,8.79,2.15,16.62,6.04,22.81,12.76,5.73,6.22,9.55,14,12.08,22.02,2.66,8.42,3.99,17.22,4.46,26.02.56,10.43.36,21.26-3.07,31.23-3.12,9.07-9.73,17.58-18.98,20.94-8.56,3.11-18.42.47-23.62-7.24-5.55-8.23-1.37-17.37,5.94-22.76,7.71-5.68,18.21-8.9,27.74-8.85s17.91,4.65,22.54,13.12c4.03,7.38,5.03,16.39,3.26,24.57-4.5,20.74-21.57,35.26-34.58,50.86-6.31,7.56-11.87,15.63-15.54,24.81s-5.4,19.28-5.66,29.24c-.5,19.29,3.87,39.41,11.35,57.15,6.12,14.5,15.76,29.5,30.91,35.69,3.63,1.49,7.39,2.3,11.29,2.63,1.17.1,2.03-.86,2.41-1.84,2.57-6.56-1.18-12.97-6.59-16.7s-12.47-4.5-18.95-2.73c-12.7,3.47-21.09,15.19-25.96,26.75-6.29,14.92-9.29,33.68-4.55,49.4,4.65,15.44,16.16,27.2,25.07,40.22,16.03,23.44,19.21,54.2,8.33,80.49-2.63,6.34-6.12,12.41-10.39,17.79-1.28,1.6-14.01,15.39-15.42,13.51-.33-.43,2.83-3.09,3.22-3.36,1.05-.72,2.21-1.22,3.42-1.56,3.08-.86,6.37-.61,9.42.26,6.48,1.85,11.2,6.43,13.78,12.58,2.86,6.81,2.89,14.46,2.49,21.71-.59,10.54-2.09,21.06-3.27,31.54-1.83,16.28-3.73,32.55-5.69,48.82-.38,3.19,4.62,3.16,5,0,1.82-15.11,3.58-30.23,5.29-45.35,1.11-9.81,2.33-19.62,3.24-29.45.68-7.39,1.05-14.95-.38-22.28-2.44-12.45-11.66-22.72-24.89-23.33-6.2-.29-12,2.25-15.66,7.31-1.49,2.05-1.29,4.72.54,6.56,3.02,3.03,7.24.8,10.02-1.3,22.86-17.31,33.09-47.58,30.2-75.54-1.48-14.36-6.28-28.05-14.34-40.05-9.29-13.83-22.24-26.34-25.99-43.11-2.36-10.51-1.01-21.97,1.62-32.32,2.02-7.94,5.22-15.71,10.08-22.35,4.52-6.18,10.85-11.37,18.58-12.64s20.76,4.15,16.97,13.82l2.41-1.84c-18.8-1.6-30.73-19.04-37.51-34.95-8.16-19.14-12.64-41.39-10.65-62.18,1.05-11,4.35-21.7,10.09-31.16s13.77-17.92,21.28-26.33c12.96-14.5,26.81-32.24,24.6-52.92-.89-8.28-4.12-16.55-10.18-22.42-7.27-7.04-17.42-9-27.2-7.71-15.42,2.02-40.11,13.14-34.69,32.85,2.26,8.21,9.83,14.57,18.01,16.39,9.04,2.01,18.22-1.64,24.96-7.64,15.76-14.02,16.25-38,14.13-57.43-1.88-17.24-7.25-35.74-20.64-47.64-7.04-6.25-15.33-9.36-24.35-11.5-4.14-.98-8.26-2.02-11.94-4.22-4.68-2.8-8.43-7.05-11.12-11.76-2.27-3.96-3.74-8.25-4.75-12.68-.71-3.14-5.54-1.81-4.82,1.33h0Z"/>
    <path class="cls-12" d="m2.5,133.26c7-.56,14.16.79,20.29,4.28,6.48,3.69,10.87,9.47,12.77,16.68,1.07,4.07,1.48,8.28,1.6,12.47s-.14,8.4-1.24,12.46c-2.19,8.06-8.05,13.64-14.7,18.3-3.13,2.2-6.49,4.06-9.61,6.27-3.89,2.76-7.36,5.99-10.35,9.7-.85,1.05-1.03,2.51,0,3.54.88.88,2.68,1.06,3.54,0,2.71-3.37,5.81-6.41,9.34-8.92,2.84-2.02,5.89-3.71,8.76-5.68,7.48-5.15,14.31-11.21,17.29-20.06s2.51-18.55.69-27.28c-1.76-8.44-6.28-15.63-13.45-20.48-7.21-4.87-16.3-6.96-24.93-6.27-1.35.11-2.5,1.07-2.5,2.5,0,1.27,1.15,2.61,2.5,2.5h0Z"/>
    <path class="cls-12" d="m2.48,289.43c14.14.59,18.09,17.84,19.13,29.21.63,6.96.72,13.87-1.34,20.61-1.74,5.69-4.8,10.93-8.77,15.35-3.21,3.57-6.41,6.22-10.27,8.7-2.7,1.73-.2,6.06,2.52,4.32,9.39-6.02,17.04-14.71,20.78-25.31,2.6-7.38,2.8-15.08,2.16-22.8-.64-7.71-2-15.5-5.67-22.4-1.91-3.58-4.42-6.94-7.78-9.27-3.14-2.18-6.96-3.24-10.76-3.39-3.22-.13-3.21,4.87,0,5h0Z"/>
  </g>
  <g id="achtergornd">
    <text class="cls-3" transform="translate(77.25 69.39) scale(.59 1)"><tspan class="cls-1" x="0" y="0">be</tspan><tspan class="cls-9" x="43.66" y="0">w</tspan><tspan class="cls-6" x="77.82" y="0">u</tspan><tspan class="cls-2" x="100.79" y="0">s</tspan><tspan class="cls-7" x="120.5" y="0">t</tspan><tspan class="cls-8" x="140.78" y="0">e bla</tspan><tspan class="cls-4" x="233.35" y="0">d</tspan><tspan x="255.13" y="0">z</tspan><tspan class="cls-5" x="273.91" y="0">i</tspan><tspan x="284.86" y="0">jden</tspan></text>
    <g>
      <path class="cls-11" d="m227.69,40.34c.87-.16,1.49-.76,2.2-1.24s1.42-.79,2.26-.82,1.64.14,2.41.45c.87.35,1.64.93,2.59,1.06.67.09,1.34-.16,1.54-.87.16-.58-.2-1.45-.87-1.54-.93-.12-1.75-.73-2.61-1.07-.96-.37-2.02-.58-3.05-.53s-2.08.32-3,.84c-.7.39-1.38,1.17-2.12,1.31-.66.12-1.04.93-.87,1.54.19.7.87,1,1.54.87h0Z"/>
      <path class="cls-11" d="m226.44,40.1c.89.69,1.59,1.48,2.65,1.92s2.17.53,3.28.34,1.96-.77,2.87-1.33c.44-.27.88-.52,1.38-.68.54-.17,1.11-.23,1.6-.54.57-.36.8-1.11.45-1.71-.33-.57-1.14-.81-1.71-.45-.24.15-.73.2-1.09.32-.5.17-.98.38-1.44.63-.74.41-1.43,1-2.26,1.24-.7.2-1.42.16-2.11-.12s-1.23-.92-1.85-1.4c-.53-.41-1.25-.52-1.77,0-.43.43-.54,1.35,0,1.77h0Z"/>
      <g>
        <path class="cls-11" d="m228.01,38.29c-.77-1.09-1.84-1.6-3.06-2.05-.98-.37-1.66-.77-2.18-1.63-1.14-1.91-1.21-4.35-2.47-6.28-.37-.57-1.11-.8-1.71-.45-.56.33-.82,1.14-.45,1.71,1.24,1.91,1.3,4.32,2.47,6.28.61,1.02,1.47,1.84,2.56,2.33.5.22,1.14.43,1.58.62.42.18.88.42,1.1.73.39.55,1.09.81,1.71.45.54-.32.84-1.16.45-1.71h0Z"/>
        <path class="cls-11" d="m228.34,39.35c.44-2.77.65-5.95-1.54-8.09-1.93-1.88-4.76-1.89-6.91-3.35-.56-.38-1.39-.11-1.71.45-.36.62-.11,1.33.45,1.71,1.01.69,2.19,1.08,3.35,1.46.98.32,2.01.63,2.83,1.29,1.71,1.38,1.44,3.91,1.13,5.86-.11.67.17,1.34.87,1.54.59.16,1.43-.2,1.54-.87h0Z"/>
      </g>
      <path class="cls-11" d="m221.84,46.54c.02-.09.03-.18.06-.27.03-.1.09-.23.01-.07.05-.1.11-.2.16-.29.05-.08.08-.12,0-.02.13-.16.28-.31.44-.45.02-.02.23-.19.09-.08.08-.06.17-.12.26-.18.79-.53,1.6-1.01,2.35-1.6,1.46-1.15,2.62-2.64,3.19-4.42.2-.62-.23-1.39-.87-1.54-.68-.16-1.32.21-1.54.87-.03.1-.06.19-.1.29-.02.07-.1.26-.03.1-.08.19-.17.37-.27.55-.11.2-.23.39-.35.57-.06.08-.12.17-.18.25.1-.14-.03.03-.07.08-.27.33-.57.64-.89.93-.37.34-.6.52-.93.75-1.47,1.04-3.4,1.89-3.74,3.87-.11.64.17,1.38.87,1.54.61.14,1.42-.18,1.54-.87h0Z"/>
    </g>
  </g>
</svg>