<?xml version="1.0" encoding="UTF-8"?>
<svg id="Layer_1" data-name="Layer 1" xmlns="http://www.w3.org/2000/svg" viewBox="0 0 228.92 762.68">
  <defs>
    <style>
      .cls-1 {
        fill: none;
        stroke: #364023;
        stroke-miterlimit: 10;
        stroke-width: 2px;
      }
    </style>
  </defs>
  <g>
    <rect class="cls-1" x="1" y="1" width="226.92" height="760.68" rx="5.78" ry="5.78"/>
    <rect class="cls-1" x="24.5" y="168.06" width="180.63" height="132.11" rx="4.16" ry="4.16"/>
    <rect class="cls-1" x="24.15" y="608.72" width="180.63" height="132.11" rx="4.16" ry="4.16"/>
    <rect class="cls-1" x="24.15" y="461.84" width="180.63" height="132.11" rx="4.16" ry="4.16"/>
    <rect class="cls-1" x="24.5" y="314.95" width="180.63" height="132.11" rx="4.16" ry="4.16"/>
    <rect class="cls-1" x="24.5" y="187.18" width="29.13" height="112.99" rx="1.83" ry="1.83"/>
    <rect class="cls-1" x="53.63" y="194.15" width="26.31" height="106.02" rx="6.3" ry="6.3"/>
    <rect class="cls-1" x="101.29" y="175.98" width="22.96" height="124.19" rx="3.2" ry="3.2"/>
    <path class="cls-1" d="m160.98,297.9l-22.73,2.17c-2.35.23-4.46-1.56-4.68-3.97l-9.23-101c-.22-2.41,1.53-4.56,3.88-4.79l22.73-2.17c2.35-.23,4.46,1.56,4.68,3.97l9.23,101c.22,2.41-1.53,4.56-3.88,4.79Z"/>
    <path class="cls-1" d="m188.15,300.04l-11.16-.95c-3.79-.32-6.64-3.76-6.32-7.65l9.38-114.9c.32-3.88,3.68-6.79,7.47-6.47l11.16.95c3.79.32,6.64,3.76,6.32,7.65l-9.38,114.9c-.32,3.88-3.68,6.79-7.47,6.47Z"/>
    <path class="cls-1" d="m52.31,446.14l-16.53.86c-3.2.17-5.96-2.38-6.12-5.66l-5.09-102.74c-.16-3.28,2.33-6.1,5.53-6.26l16.53-.86c3.2-.17,5.96,2.38,6.12,5.66l5.09,102.74c.16,3.28-2.33,6.1-5.53,6.26Z"/>
    <rect class="cls-1" x="99.07" y="383.75" width="22.71" height="103.91" rx="2.82" ry="2.82" transform="translate(546.12 325.28) rotate(90)"/>
    <rect class="cls-1" x="97.58" y="359.55" width="25.69" height="103.91" rx="2.82" ry="2.82" transform="translate(521.92 301.09) rotate(90)"/>
    <rect class="cls-1" x="99.84" y="336.12" width="21.17" height="103.91" rx="2.82" ry="2.82" transform="translate(498.5 277.66) rotate(90)"/>
    <rect class="cls-1" x="164.4" y="348.34" width="19.08" height="98.72" rx="3.37" ry="3.37"/>
    <rect class="cls-1" x="183.48" y="358.75" width="21.29" height="88.3" rx="2.08" ry="2.08"/>
    <path class="cls-1" d="m46.28,593l-9,.56c-3.32.21-6.21-2.41-6.41-5.81l-6.3-106.6c-.2-3.4,2.35-6.35,5.68-6.55l9-.56c3.32-.21,6.21,2.41,6.41,5.81l6.3,106.6c.2,3.4-2.35,6.35-5.68,6.55Z"/>
    <path class="cls-1" d="m57.65,467.09l-10.41,2.09c-1.89.38-3.12,2.27-2.75,4.2l22.69,118.05c.37,1.93,2.22,3.2,4.1,2.82l10.41-2.09c1.89-.38,3.12-2.27,2.75-4.2l-22.69-118.05c-.37-1.93-2.22-3.2-4.1-2.82Z"/>
    <path class="cls-1" d="m113,589.32l-12.19,3.65c-2.55.76-5.21-.73-5.96-3.33l-30.13-105.27c-.75-2.6.71-5.33,3.26-6.1l12.19-3.65c2.55-.76,5.21.73,5.96,3.33l30.13,105.27c.75,2.6-.71,5.33-3.26,6.1Z"/>
    <rect class="cls-1" x="116.68" y="579.09" width="85.67" height="14.86" rx="3.53" ry="3.53"/>
    <rect class="cls-1" x="114.36" y="561.86" width="88.97" height="17.23" rx="3.83" ry="3.83"/>
    <rect class="cls-1" x="114.77" y="532.94" width="88.15" height="28.91" rx="2.18" ry="2.18"/>
    <rect class="cls-1" x="119.04" y="507.08" width="76.49" height="7.1" rx="1.31" ry="1.31"/>
    <rect class="cls-1" x="120.57" y="514.18" width="78.85" height="18.76" rx="3.46" ry="3.46"/>
    <rect class="cls-1" x="79.94" y="183.94" width="21.35" height="116.23" rx="2.94" ry="2.94"/>
    <rect class="cls-1" x="24.15" y="623.82" width="22.93" height="117.01" rx="3.89" ry="3.89"/>
    <rect class="cls-1" x="47.08" y="637.83" width="21.06" height="103" rx="3.78" ry="3.78"/>
    <path class="cls-1" d="m110.16,740.07l-8.95.95c-3.89.41-7.41-2.51-7.81-6.49l-9.68-95.85c-.4-3.98,2.45-7.58,6.35-7.99l8.95-.95c3.89-.41,7.41,2.51,7.81,6.49l9.68,95.85c.4,3.98-2.45,7.58-6.35,7.99Z"/>
    <path class="cls-1" d="m128.73,739.03l-9.59-7.38c-2.34-1.8-2.81-5.23-1.05-7.61l67.13-91.24c1.76-2.39,5.11-2.87,7.44-1.07l9.59,7.38c2.34,1.8,2.81,5.23,1.05,7.61l-67.13,91.24c-1.76,2.39-5.11,2.87-7.44,1.07Z"/>
    <rect class="cls-1" x="68.13" y="621.81" width="15.58" height="118.66" rx="1.68" ry="1.68"/>
    <rect class="cls-1" x="24.5" y="21.17" width="180.63" height="132.11" rx="4.16" ry="4.16"/>
  </g>
  <rect class="cls-1" x="33.03" y="90.62" width="85" height="18.19" rx="2.1" ry="2.1"/>
  <rect class="cls-1" x="29.88" y="132.37" width="91.3" height="20.91" rx="3.43" ry="3.43"/>
  <rect class="cls-1" x="35.66" y="77.84" width="77.11" height="11.84" rx=".88" ry=".88"/>
  <rect class="cls-1" x="24.51" y="108.78" width="117.6" height="23.62" rx="3.64" ry="3.64"/>
  <path class="cls-1" d="m156.96,153.27l-14.44-1.84c-1.43-.18-2.45-1.53-2.28-2.99l12.93-106.08c.18-1.46,1.49-2.51,2.92-2.33l14.44,1.84c1.43.18,2.45,1.53,2.28,2.99l-12.93,106.08c-.18,1.46-1.49,2.51-2.92,2.33Z"/>
  <path class="cls-1" d="m195.46,153.28l-22.86-1.07c-3.1-.15-5.53-2.86-5.38-6.04l3.78-84.49c.14-3.17,2.8-5.65,5.9-5.51l22.86,1.07c3.1.15,5.53,2.86,5.38,6.04l-3.78,84.49c-.14,3.17-2.8,5.65-5.9,5.51Z"/>
</svg>