<?xml version="1.0" encoding="UTF-8"?>
<svg id="kaartje_tekening" data-name="kaartje tekening" xmlns="http://www.w3.org/2000/svg" viewBox="0 0 384.43 686.28">
  <defs>
    <style>
      .cls-1 {
        opacity: .15;
      }

      .cls-2 {
        fill: #9d9f77;
        stroke-width: 0px;
      }
    </style>
  </defs>
  <g class="cls-1">
    <path class="cls-2" d="m94.59,67c-16.07-4.33-32.54,6.13-38.31,21.13-6.8,17.68.46,37.31,12.67,50.65s30.12,20.75,45.85,30.59c8.12,5.08,15.2,11.29,20.13,19.59s8.02,18,10.29,27.49c4.37,18.31,5.35,38.86-3.15,56.18-6.94,14.13-21.06,24.59-36.91,26.11-7.32.7-14.73-.65-20.98-4.62-3.76-2.39-7.62-5.86-7.93-10.59-.29-4.38,2.18-8.73,5.6-11.31,7.66-5.78,18.93-4.17,27.31-.97,7.74,2.95,14.5,8.14,19.94,14.32,28.36,32.21,13.91,77.85-2.78,111.86-17.73,36.13-42.03,74.75-33.33,116.87,1.77,8.58,4.88,18.08,13.23,22.34,6.86,3.5,14.95,4.31,22.5,3.19,14.53-2.16,28.17-11.84,34.74-25.02,3.27-6.56,5.72-15.04,2.85-22.13-2.06-5.09-5.61-9.16-10.82-12.02-5.85-3.22-13.38-4.22-19.79-2.36-7.63,2.22-12.32,8.28-15.78,15.09-4.16,8.17-7.69,16.75-9.33,25.81-1.49,8.25-1.56,17-1,25.34.65,9.56,2.77,18.97,7.64,27.3,4.43,7.58,10.3,13.99,17.13,19.46,10.04,8.05,20.37,15.08,27.82,25.78,7.96,11.44,12.8,24.7,15.75,38.25,2.05,9.41,3.17,18.97,3.75,28.58.19,3.2,5.19,3.22,5,0-1.69-28.16-8.15-58.47-28.43-79.43-10.53-10.88-24.63-17.68-33.53-30.22-5.99-8.44-9.15-17.86-10.02-28.13-.71-8.35-.79-17.31.7-25.59,1.63-9.05,5.13-17.7,9.43-25.8s10.56-13.35,20.14-12.2c5.87.7,10.91,3.47,14.48,8.22,4.26,5.67,3.36,12.47.87,18.87-5.42,13.92-19.81,24.35-34.65,25.58-8.05.67-18.17-.97-22.89-8.23-5.3-8.12-6.43-19.55-6.54-29-.54-42.69,27.01-78.24,42.63-116.08,7.76-18.79,13.12-39.43,10.91-59.89-1.79-16.57-8.88-32.54-21.12-44.05-11.35-10.67-29.97-18.91-45.34-12.26-7.39,3.2-13.03,10.85-11.95,19.15,1.01,7.79,8.3,13.22,15.06,16.12,13.47,5.79,29.33,2.62,41.39-5.07,14.21-9.07,22.28-24.23,24.71-40.68,2.71-18.35-.59-37.57-6.88-54.89-3.21-8.84-7.59-17.31-14.17-24.13-6.22-6.46-13.95-11.23-21.75-15.54-16.18-8.94-33.18-17.32-43.46-33.44s-11.46-38.6,4.65-50.54c6.42-4.76,14.55-6.92,22.35-4.81,3.11.84,4.44-3.98,1.33-4.82h0Z"/>
    <path class="cls-2" d="m9.6,609.38c6.4-1.56,12.88-2.52,19.45-3.03,5.86-.45,11.74-.68,17.6-.27,6.81.48,13.65,1.86,19.96,4.53s12.42,6.59,16.61,12.04c3.64,4.73,5.49,10.64,3.8,16.49-1.53,5.32-5.81,9.46-11.57,9.31-6.54-.17-11.79-4.99-14.76-10.45-3.53-6.49-4.84-14.21-5.91-21.44-2.33-15.71-1.68-31.76.1-47.5s4.94-32.13,7.66-48.15c2.73-16.07,5.13-32.25,5.64-48.56.38-11.9-.17-23.91-5.94-34.6s-15.01-18.47-25.49-23.92c-8.88-4.62-18.54-7.66-28.34-9.61-1.75-.35-3.5-.66-5.26-.94-1.33-.21-2.69.34-3.08,1.75-.33,1.19.41,2.86,1.75,3.08,9.07,1.45,18.22,3.75,26.59,7.3,10.53,4.46,20.52,11.15,27.01,20.74,3.07,4.54,5.16,9.12,6.39,14.41,1.4,6.01,1.54,12.26,1.45,18.46-.25,16.6-2.59,33.07-5.35,49.42s-5.98,33.04-7.93,49.71-2.46,32.77-.13,49.06c1.96,13.74,6.11,32.53,22.18,35.84,6.88,1.41,13.54-1.29,17.38-7.18,3.48-5.33,4.15-12.34,2.07-18.31-4.9-14.07-20.44-22.13-34.16-25.01-13-2.73-26.92-1.95-39.96.17-3.06.5-6.09,1.12-9.1,1.85s-1.8,5.58,1.33,4.82h0Z"/>
    <path class="cls-2" d="m174.48,20.4c1.02,10.65,4.41,21.17,12.18,28.86,7.24,7.17,16.3,8.11,25.57,10.98,22.25,6.88,31.88,28.84,34.73,50.31,1.6,12.03,2.03,25.08-1.02,36.9-2.92,11.35-10.54,22.5-22.45,25.57-10.31,2.66-23.79-4.23-24-15.93-.21-11.52,12.41-18.27,21.87-21.21,11.64-3.62,25.44-3.95,33.95,6.16,6.88,8.18,8.53,20.02,6.09,30.2-6,25.01-29.36,40.51-42.86,61.12-5.6,8.56-8.74,16.95-8.62,27.18.18,15.68,2.11,31.39,2.81,47.06.56,12.59.64,25.21,1.24,37.8.38,8.06.76,16.75,4.1,24.23,6.89,15.46,28.47,16.25,40.09,6.02,12.57-11.06,9.98-34.87-7.4-39.52-16.28-4.35-29.36,7.15-35.84,21.02-6.63,14.18-8.99,30.17-10.78,45.61-1.42,12.31.71,24.15,5.99,35.35,4.26,9.04,10.57,16.69,16.88,24.34,6.34,7.69,11.91,15.73,15.67,25.02s6.07,19.37,7.05,29.42c1.74,17.88.04,36.73-6.48,53.57-2.29,5.92-5.36,12.02-10.03,16.44-6.2,5.88-16.59,5.88-23.37.86-3.64-2.7-6.17-6.82-7.63-11.07s2.06-10.14,4.53-13.27c6.81-8.61,21.39-10.92,28.9-1.72,2.77,3.39,3.47,8.03,4.05,12.23.86,6.16,1.43,12.37,2.17,18.55s1.53,12.54,2.46,18.78c.35,2.37.44,2.46.54,4.96.45,11.64-.34,23.39-1.83,34.93-1.39,10.79-3.55,21.48-6.27,32.02-.8,3.12,4.02,4.45,4.82,1.33,5.74-22.22,9.27-45.63,8.27-68.62-.09-2.04-.42-4.05-.73-6.07-1.03-6.93-1.87-13.9-2.68-20.86-.74-6.33-1.24-12.73-2.35-19.01-.71-4.03-1.92-7.98-4.5-11.23-6.67-8.39-19.49-9.97-28.7-5.16-4.31,2.25-7.92,5.91-10.33,10.11-2.11,3.68-4.65,9.43-3.41,13.69,2.73,9.4,10.19,17.18,20.07,18.68,7.48,1.13,14.67-.72,20.02-6.09,4.84-4.86,8.04-11.2,10.55-17.5,6.83-17.2,8.67-36.77,6.95-55.09-1.92-20.51-8.85-39.37-21.8-55.46-6.55-8.15-13.46-15.93-18.09-25.41-2.79-5.71-4.91-12-5.81-18.3-.95-6.63-.28-13.3.67-19.88,2.24-15.52,4.53-32.1,13.29-45.5,4.01-6.14,9.69-10.98,17.08-12.17,4.85-.78,10.23-.3,14.32,2.64s6.18,7.8,6.65,12.63c.77,7.93-3.61,15.17-10.38,18.99-4.03,2.27-7.11,2.85-11.32,2.65-4.77-.23-10.1-1.72-13.57-5.16-5.29-5.26-5.94-14.17-6.49-21.16-.97-12.58-.87-25.24-1.35-37.84-.66-17.2-2.59-34.37-3.02-51.57-.1-4.01,0-7.97,1.03-11.84,1.72-6.49,5.57-12.41,9.45-17.77,14.56-20.12,37.89-36.65,41.62-62.86,1.41-9.95-.65-20.77-6.7-28.94-7.12-9.6-18.56-12.97-30.14-11.54-10.78,1.34-22.97,5.7-30.21,14.2-6.8,7.98-7.19,18.77-.36,26.87s18.47,10.78,28.41,6.88c10.74-4.21,18.21-13.92,21.76-24.65,4-12.09,3.85-25.61,2.59-38.14-1.07-10.65-3.41-21.22-7.95-30.95-4.35-9.3-11.01-17.58-19.91-22.86-5-2.96-10.48-4.81-16.11-6.16-4.62-1.11-9.32-2.05-13.44-4.55-10.02-6.09-14.4-17.92-15.48-29.08-.31-3.17-5.31-3.21-5,0h0Z"/>
    <path class="cls-2" d="m298.77,25.29c25.86,43.59,41.16,93.25,44.64,143.8,1.73,25.18.68,50.69-3.63,75.57-1.96,11.31-4.99,23.93-13.98,31.85-7.25,6.39-19.63,9.56-27.49,2.41-7.12-6.47-7.03-17.52-4.11-25.98,3.49-10.12,12.08-18.23,21.51-22.9,10.22-5.06,23.87-6.88,34.03-.78,8.53,5.12,12.87,15.17,13.67,24.78.99,11.98-3.45,23.4-9.16,33.71-6.21,11.2-13.69,21.67-20.28,32.65-13.47,22.43-25.12,46.67-28.81,72.82-1.8,12.76-1.81,25.75.68,38.42,2.28,11.6,6.56,23.18,14.17,32.36,6.73,8.12,16.56,14.07,27.42,12.57,10.37-1.43,18.09-9.12,23.78-17.37,2.96-4.28,5.46-8.86,7.82-13.49,1.46-2.86-2.85-5.39-4.32-2.52-4.73,9.27-10.26,19.62-19.38,25.26-9.75,6.03-20.75,3.13-28.62-4.54-8.79-8.57-13.34-20.64-15.81-32.44-2.75-13.13-2.62-26.86-.44-40.07,4.47-27.03,17.32-51.67,31.64-74.7,12.7-20.43,30.61-42.52,25.53-68.22-1.95-9.88-7.56-19.48-16.69-24.27-10.87-5.69-24.34-4.34-35.3.38-10.12,4.36-19.38,12.33-24.3,22.3-4.33,8.79-5.66,19.74-1.46,28.83,4.48,9.7,15.05,13.78,25.18,11.64,11.42-2.41,19.64-11.22,24.11-21.63,4.94-11.51,6.43-24.43,7.86-36.77,1.51-12.94,2.22-25.97,2.15-39-.13-26.02-3.36-52.04-9.52-77.32s-15.38-50.08-27.37-73.3c-2.9-5.62-5.98-11.14-9.2-16.58-1.64-2.77-5.96-.25-4.32,2.52h0Z"/>
  </g>
  <g class="cls-1">
    <path class="cls-2" d="m318.75,683.48c7.44-20.13,25.51-34.28,45.2-41.46,6.07-2.21,12.32-3.86,18.66-5.06,1.33-.25,2.08-1.85,1.75-3.08-.38-1.39-1.74-2-3.08-1.75-22.68,4.31-44.63,14.83-58.6,33.75-3.68,4.98-6.6,10.45-8.75,16.26-.47,1.27.52,2.74,1.75,3.08,1.4.38,2.61-.47,3.08-1.75h0Z"/>
  </g>
</svg>