<?xml version="1.0" encoding="UTF-8"?>
<svg id="Layer_1" data-name="Layer 1" xmlns="http://www.w3.org/2000/svg" viewBox="0 0 598.65 516.95">
  <defs>
    <style>
      .cls-1 {
        fill: #727456;
        stroke: #364024;
        stroke-miterlimit: 10;
      }

      .cls-2 {
        fill: #364024;
        stroke-width: 0px;
      }
    </style>
  </defs>
  <g>
    <path class="cls-2" d="m87.57,27.12c-34.85,47.3-53.54,103.23-67.55,159.67-3.55,14.29-7.2,28.56-10.92,42.81-2.64,10.13-5.41,20.26-7.4,30.54-1.13,5.85-2.27,12.09-1.37,18.04,1.01,6.65,2.82,13.28,4.41,19.82,1.8,7.42,3.77,14.79,5.92,22.12,8.36,28.49,19.62,56.17,34.62,81.84,3.89,6.67,8.03,13.19,12.4,19.56,2.12,3.1,4.3,6.15,6.54,9.17,2.03,2.74,4.54,4.64,7.42,6.46s5.72,3.3,8.3,5.35c3.13,2.49,6.05,5.31,9.02,7.99,5.67,5.12,11.23,10.35,16.66,15.73s10.61,10.8,15.72,16.38,9.94,11.37,16.16,15.95c11.03,8.13,23.92,13.29,37.33,15.91,13.81,2.69,27.98,2.89,41.99,2.1,7.92-.45,15.69-2.45,23.38-4.35s15.56-4.13,23.25-6.48c15.97-4.89,31.71-10.49,47.49-15.97,7.69-2.67,15.32-5.22,22.79-8.42,3.8-1.63,7.68-3.04,11.48-4.66,3.42-1.45,6.54-3.55,9.94-4.96,14.15-5.88,30.3-6.65,45.28-8.92,7.66-1.16,15.31-2.6,22.68-5.03,6.55-2.16,12.58-5.53,18.33-9.32,23.37-15.43,40.77-38.12,63.81-53.95,12.86-8.83,30.2-9.14,45.2-8.9,7.58.12,15.17.45,22.75.07,3.35-.17,6.7-.48,10.01-.99,1.46-.23,2.1-.27,3.06-1.31,1.25-1.36,2.37-2.89,3.41-4.4,14.72-21.41,8.68-49.79,1.02-72.63-2.12-6.31-4.75-11.83-8.77-17.19s-8.75-10.22-13.96-14.46c-11.28-9.17-23.99-14.36-37.52-19.22-65.27-23.42-130.95-45.67-196.47-68.37-30.25-10.48-60.75-20.36-88.94-35.79-13.1-7.17-25.59-15.53-36.66-25.58-5.65-5.13-11.5-10.7-15.87-16.99-3.99-5.76-6.08-12.44-6.83-19.36-1.45-13.34.75-26.83-2.14-40.05-2.2-10.06-7.34-18.82-14.11-26.44-13.64-15.36-34.77-29.09-55.7-19.86-11.09,4.9-19.07,14.63-26.12,24.13-.96,1.29,1.21,2.54,2.16,1.26,7.68-10.35,16.81-21.3,29.76-24.83,11.68-3.18,23.45.95,33.11,7.57,6.93,4.75,13.09,10.78,18.28,17.37,8.22,10.42,11.41,22.7,11.77,35.77s-1.31,25.83,3.48,37.86c2.53,6.35,6.76,11.44,11.37,16.4,4.87,5.23,10.13,10.11,15.68,14.62,21.78,17.72,47.47,29.53,73.34,39.94,15.63,6.29,31.92,11.26,47.84,16.77,16.13,5.59,32.28,11.15,48.42,16.71,31.83,10.96,63.67,21.91,95.45,33.04,16.12,5.64,32.22,11.33,48.29,17.09,14.03,5.03,27.52,9.99,39.28,19.44,5.42,4.35,10.38,9.36,14.47,14.98s6.6,11.59,8.74,18.2c3.9,12.03,6.97,24.57,7.06,37.28.05,6.28-.68,12.58-2.55,18.59-.96,3.08-2.23,6.06-3.8,8.87-1.44,2.57-3.49,6.88-6.26,8.03-1.81.76-4.45.63-6.41.8-1.62.14-3.25.24-4.87.31-3.94.17-7.88.15-11.83.09-7.3-.12-14.61-.42-21.92-.11-7.11.29-14.25,1.16-21.09,3.2s-12.83,5.35-18.58,9.7c-10.91,8.25-20.7,17.82-30.68,27.14-9.92,9.27-20.11,18.43-31.77,25.48-12.95,7.83-27.38,10.44-42.18,12.5-7.6,1.06-15.23,2-22.76,3.47-6.74,1.32-14.25,2.76-20.2,6.3-6.51,3.87-13.91,6-20.79,9.11-7.46,3.38-15.48,5.65-23.21,8.34-15.44,5.38-30.86,10.81-46.51,15.54-15.09,4.55-30.88,9.52-46.69,10.25-28.12,1.3-57.36-2.41-79.56-21.25-5.68-4.82-10.32-11.11-15.43-16.55s-9.95-10.37-15.11-15.37c-5.44-5.28-11.01-10.41-16.68-15.45-2.39-2.13-4.71-4.38-7.33-6.23-2.99-2.11-6.3-3.74-9.28-5.87s-5.09-5.17-7.27-8.21c-2.37-3.31-4.67-6.67-6.91-10.07-4.04-6.14-7.87-12.42-11.48-18.83-7.37-13.08-13.82-26.67-19.4-40.61s-9.94-27.16-13.86-41.07c-1.98-7.04-3.8-14.13-5.48-21.25-1.29-5.5-3.05-11.18-3.57-16.81-.61-6.52.88-13.26,2.24-19.6,2.23-10.39,5.03-20.66,7.72-30.94,6.95-26.59,13.05-53.44,20.99-79.77,8.35-27.68,18.69-54.82,32.4-80.32,7.03-13.07,14.94-25.66,23.74-37.61.96-1.3-1.21-2.54-2.16-1.26Z"/>
    <path class="cls-2" d="m184.91,361.52c-4.79,19.01-9.58,38.01-14.36,57.02-2.35,9.35-4.8,18.68-6.91,28.08s-3.36,17.94-4.92,26.94c-1.68,9.68-3.81,19.41-8.22,28.26-.72,1.44,1.44,2.7,2.16,1.26,7.98-16.02,8.85-34.28,12.47-51.53,1.99-9.48,4.44-18.86,6.8-28.25l7.24-28.75c2.72-10.79,5.44-21.58,8.16-32.38.39-1.56-2.02-2.23-2.41-.66h0Z"/>
    <path class="cls-2" d="m204.38,366.14c-.04,19.4-.08,38.81-.12,58.21s.03,38.56-1.28,57.8c-.72,10.54-1.44,21.18.69,31.61.32,1.58,2.73.91,2.41-.66-1.88-9.23-1.42-18.7-.8-28.05s1.11-19.05,1.28-28.6c.35-19.19.21-38.39.25-57.58.02-10.91.05-21.82.07-32.73,0-1.61-2.5-1.61-2.5,0h0Z"/>
    <path class="cls-2" d="m221.43,372.96c.17,8.8.34,17.62,1.19,26.39.84,8.72,2.48,17.22,5.02,25.61,1.27,4.18,2.54,8.38,3.05,12.74s.69,8.76,1.48,13.1c1.62,8.94,4.11,17.76,6.25,26.58,2.44,10.07,4.89,20.14,7.33,30.22.38,1.56,2.79.9,2.41-.66-2.15-8.86-4.3-17.73-6.45-26.59s-4.42-17.58-6.36-26.42c-.97-4.42-1.51-8.82-1.88-13.32s-1.14-8.52-2.34-12.7-2.54-8.27-3.5-12.5-1.68-8.62-2.19-12.98c-1.13-9.78-1.32-19.63-1.51-29.46-.03-1.61-2.53-1.61-2.5,0h0Z"/>
    <path class="cls-2" d="m251.48,373.25c-.99,16.86,5.18,33.12,9.04,49.27,3.84,16.09,6.18,32.5,10.19,48.55,2.19,8.74,5.01,17.34,8.98,25.44.71,1.44,2.86.18,2.16-1.26-7-14.3-10.15-30.03-13.12-45.56-1.56-8.19-3.15-16.37-5.02-24.49-1.87-8.15-4.17-16.18-6.22-24.28-2.29-9.05-4.06-18.29-3.51-27.67.09-1.61-2.41-1.6-2.5,0h0Z"/>
    <path class="cls-2" d="m303.45,490.03c-5.6-14.78-11.22-29.62-14.88-45.02-1.86-7.84-2.9-15.87-5.37-23.57s-5.32-14.54-7.5-21.98c-2.5-8.51-4.36-17.19-5.62-25.96-.23-1.59-2.64-.91-2.41.66,1.12,7.83,2.72,15.6,4.83,23.22s4.85,14.69,7.38,22.03,3.89,15.57,5.63,23.46,3.89,15.16,6.36,22.58c2.82,8.5,6,16.87,9.17,25.25.56,1.49,2.98.84,2.41-.66h0Z"/>
    <path class="cls-2" d="m290.39,351.63c.79,17.05,3.83,33.99,9.09,50.22,2.65,8.18,5.93,16.11,9.37,23.99,3.6,8.27,7.26,16.51,10.9,24.76,4.13,9.38,8.26,18.76,12.39,28.14.65,1.47,2.8.2,2.16-1.26-7.18-16.31-14.36-32.61-21.54-48.92-3.51-7.98-6.98-16-9.82-24.25-2.73-7.94-4.93-16.07-6.58-24.3-1.88-9.36-3.03-18.85-3.47-28.39-.07-1.6-2.57-1.61-2.5,0h0Z"/>
    <path class="cls-2" d="m293.47,353.59c10.37,3.33,17.87,11.82,27.43,16.69,2.41,1.23,4.94,2.22,7.57,2.85,3.2.77,6.49,1.08,9.72,1.71,5.64,1.1,10.87,3.47,15.67,6.6s9.17,6.95,13.34,10.9c2.07,1.96,4.09,3.96,6.12,5.96s3.87,4.14,6.63,5.05,5.94,1.37,8.85,2.2,5.89,1.84,8.77,2.95c5.74,2.21,11.28,4.92,16.65,7.91,12.08,6.73,23.28,14.88,34.42,23.04,1.3.95,2.55-1.22,1.26-2.16-19.65-14.4-40.13-29.29-64.2-35.15-1.48-.36-2.99-.62-4.47-1.02-1.74-.47-2.89-1.37-4.15-2.61-2.03-1.98-4.03-3.99-6.07-5.97-4.05-3.93-8.23-7.76-12.79-11.11s-9.53-6.17-14.93-7.88c-5.9-1.87-12.23-1.81-18.03-4.04-11.37-4.37-19.42-14.58-31.14-18.34-1.54-.49-2.19,1.92-.66,2.41h0Z"/>
    <path class="cls-2" d="m369.69,273.72c-2.91,7.25-8.54,12.92-14.24,18.07-6.75,6.09-13.64,12.01-20.47,18.01-14.18,12.46-28.37,24.92-42.55,37.38-3.41,3-6.85,5.96-10.2,9.02s-6.1,6.09-9.06,9.27c-2.81,3-5.96,4.91-10.03,5.68s-8.01.53-11.98.33c-9.27-.45-18.48-1.65-27.56-3.59-9.01-1.92-17.87-4.46-26.71-7.03-7.46-2.17-15.1-4.32-19.84-10.97-4.03-5.66-5.66-12.66-6.76-19.41-.28-1.72-.52-3.44-.75-5.16-.21-1.57-2.71-1.59-2.5,0,.95,7.16,2.05,14.44,5.11,21.06,1.43,3.1,3.35,6.01,5.81,8.38,2.87,2.76,6.38,4.6,10.08,5.96,4.19,1.55,8.55,2.67,12.84,3.9,4.5,1.29,9.02,2.55,13.56,3.7,9.26,2.34,18.63,4.11,28.14,5.04,4.63.45,9.29.78,13.94.79,3.93,0,7.96-.34,11.62-1.89s6.35-4.53,9.02-7.5c3.1-3.44,6.53-6.56,10-9.62,14.62-12.9,29.31-25.75,43.96-38.62,7.31-6.42,14.62-12.84,21.93-19.26,6.04-5.31,12.3-10.7,16.49-17.66,1-1.66,1.84-3.39,2.55-5.19.6-1.49-1.82-2.14-2.41-.66h0Z"/>
    <path class="cls-2" d="m109.86,463.27c11.95-10.98,20.83-24.78,28.12-39.17,7.76-15.32,13.8-31.43,20.91-47.05,4.12-9.04,8.61-17.92,13.94-26.31.87-1.36-1.3-2.62-2.16-1.26-9.41,14.82-16.15,31.08-22.98,47.19-6.41,15.11-13.04,30.25-22.11,44-5.01,7.59-10.78,14.67-17.49,20.84-1.19,1.09.58,2.86,1.77,1.77h0Z"/>
    <path class="cls-2" d="m66.52,426.17c7.54-5.77,15.09-11.54,22.63-17.32s14.5-10.92,21.18-17.05c6.31-5.8,12-12.28,18.76-17.58,3.48-2.73,7.22-5.1,10.85-7.62,3.36-2.33,6.56-4.86,9.62-7.56,6.7-5.91,12.99-12.43,20.97-16.65,1.42-.75.16-2.91-1.26-2.16-6.97,3.69-12.74,9.12-18.53,14.39-3.04,2.77-6.12,5.51-9.44,7.95-3.53,2.59-7.23,4.93-10.79,7.48-6.98,5.02-12.84,11.23-18.99,17.19s-13.53,11.73-20.66,17.18c-8.54,6.53-17.07,13.06-25.61,19.6-1.26.96-.02,3.14,1.26,2.16h0Z"/>
    <path class="cls-2" d="m48.51,399.37c17.67-3.91,32.52-14.85,46.56-25.72,14.73-11.41,29.35-23.05,45.2-32.89,8.87-5.5,18.12-10.43,27.81-14.32,1.47-.59.83-3.01-.66-2.41-17.16,6.88-32.81,16.81-47.7,27.68-7.53,5.49-14.88,11.21-22.24,16.93-7.19,5.59-14.37,11.21-22.04,16.13-8.52,5.47-17.67,10-27.61,12.2-1.57.35-.91,2.76.66,2.41h0Z"/>
    <path class="cls-2" d="m71.18,390.17c13.07,14.11,26.14,28.23,39.21,42.34l9.8,10.59c2.93,3.17,5.75,6.62,9.31,9.13s7.87,3.85,11.85,5.44c4.26,1.71,8.54,3.39,12.84,5.01,17.06,6.43,34.62,11.84,52.81,13.77,9.12.96,18.35,1.03,27.45-.13,8.95-1.14,17.58-3.6,26.08-6.57,8.52-2.98,16.91-6.32,25.55-8.94s17.77-4.65,26.85-5.97c2.34-.34,4.68-.62,7.03-.87,1.58-.17,1.6-2.67,0-2.5-9.08.96-18.09,2.54-26.93,4.81s-17.1,5.22-25.5,8.3-16.75,6.09-25.47,7.94-17.96,2.44-26.99,2.03c-18.21-.82-35.96-5.6-53.06-11.68-8.56-3.04-17.02-6.38-25.42-9.83-1.95-.8-3.88-1.67-5.62-2.87s-3.37-2.84-4.87-4.43c-3.2-3.4-6.35-6.85-9.52-10.27-12.96-13.99-25.91-27.99-38.87-41.98l-4.73-5.11c-1.1-1.18-2.86.59-1.77,1.77h0Z"/>
    <path class="cls-2" d="m94.94,376.71c12.63,10.7,25.27,21.4,37.9,32.1,5.8,4.91,11.53,10,17.96,14.09s13.15,6.81,20.17,9.11,14.73,4.36,22.15,6.32,15.35,3.78,23.21,4.71c15.57,1.84,31.51.97,47.11-.11,15.96-1.1,32.27-3.54,46.34-11.64,1.39-.8.14-2.96-1.26-2.16-12.39,7.13-26.65,9.75-40.73,10.96-7.21.62-14.45.94-21.68,1.21-7.98.29-15.98.38-23.95-.21-15.47-1.13-30.59-5.49-45.4-9.9-7.01-2.08-13.96-4.49-20.42-7.96s-12.56-8.44-18.34-13.33c-13.76-11.65-27.52-23.31-41.28-34.97-1.22-1.03-3,.73-1.77,1.77h0Z"/>
    <path class="cls-2" d="m113.7,360.32c10.7,8.06,21.32,16.23,32.13,24.15,5.06,3.71,10.28,7.24,15.93,10,5.62,2.75,11.55,4.8,17.49,6.73,12.64,4.1,25.39,7.95,38.23,11.36,12.5,3.32,25.47,6.01,38.48,5.06,14.33-1.05,27.73-6.58,40.83-12.07,1.46-.61.82-3.03-.66-2.41-11.56,4.84-23.32,9.77-35.82,11.52-12.89,1.8-25.89-.4-38.39-3.54-12.59-3.16-25.04-6.94-37.41-10.87-6.02-1.91-12.07-3.8-17.88-6.3s-11.17-5.72-16.32-9.34c-5.89-4.14-11.59-8.58-17.34-12.91s-12-9.03-18-13.55c-1.29-.97-2.53,1.2-1.26,2.16h0Z"/>
    <path class="cls-2" d="m147.07,339.02c3.48,10,10.82,17.78,19.12,24.09,8.98,6.83,19.04,12.49,29.13,17.51,20.58,10.24,43.55,16.81,66.62,12.93,11.9-2,23.31-6.82,32.54-14.67,1.23-1.04-.55-2.8-1.77-1.77-16.24,13.81-39.05,17.34-59.59,13.86-11.43-1.94-22.46-5.83-32.93-10.75-10.01-4.71-19.84-10.2-28.94-16.5-9.24-6.4-17.99-14.49-21.78-25.36-.53-1.51-2.94-.86-2.41.66h0Z"/>
    <path class="cls-2" d="m297.53,379.83c8.06.72,16.27-4.11,19.52-11.53.64-1.46-1.51-2.73-2.16-1.26-2.93,6.69-10.08,10.94-17.36,10.29-1.6-.14-1.59,2.36,0,2.5h0Z"/>
    <path class="cls-2" d="m301.57,403.27c9.45.96,19.09-2.2,27.33-6.62,7.55-4.05,14.38-10.47,16.04-19.2.3-1.57-2.11-2.25-2.41-.66-1.58,8.29-8.1,14.14-15.28,17.91-7.81,4.1-16.79,6.98-25.69,6.08-1.6-.16-1.59,2.34,0,2.5h0Z"/>
    <path class="cls-2" d="m313.23,429.23c7.12-5.54,14.43-11.25,22.92-14.54,8.33-3.23,18.03-3.4,25.13-9.36,3.7-3.11,5.18-7.79,8.41-11.26,1.1-1.18-.67-2.95-1.77-1.77-2.86,3.07-4.28,7.18-7.22,10.17s-7.1,4.71-11.15,5.88c-4.69,1.35-9.51,2.16-14.07,3.93-4.12,1.6-8,3.72-11.69,6.12-4.27,2.79-8.3,5.93-12.33,9.06-1.27.99.51,2.75,1.77,1.77h0Z"/>
    <path class="cls-2" d="m322.57,450.04c5.96-8.82,12.47-18.03,23.05-21.47,5.71-1.86,11.74-2.49,17.51-4.11,5.48-1.54,10.81-3.64,15.87-6.23,2.88-1.47,5.67-3.11,8.36-4.9,2.45-1.63,5.19-3.32,6.1-6.29.47-1.54-1.94-2.2-2.41-.66-.79,2.58-3.93,4.16-6.05,5.52-2.35,1.51-4.77,2.91-7.26,4.18-5.21,2.66-10.69,4.76-16.34,6.26s-11.55,2.12-17.09,4.03c-5.06,1.74-9.43,4.74-13.18,8.52-4.12,4.17-7.45,9.04-10.72,13.88-.9,1.34,1.26,2.59,2.16,1.26h0Z"/>
    <path class="cls-2" d="m330.59,466.97c4.9-3.16,10.57-4.6,15.92-6.8,2.54-1.04,5.04-2.23,7.27-3.85,2.48-1.81,4.36-4.11,6.33-6.44,8-9.45,20.14-13.03,30.65-18.82,6.89-3.79,13.32-8.34,19.74-12.87,1.3-.92.06-3.09-1.26-2.16-5.77,4.08-11.56,8.17-17.69,11.71-5.34,3.09-10.98,5.52-16.5,8.25s-10.43,5.6-14.6,9.79c-2.26,2.27-4.05,4.98-6.43,7.14-2.07,1.87-4.54,3.23-7.07,4.36-5.84,2.6-12.19,4.02-17.62,7.52-1.35.87-.1,3.03,1.26,2.16h0Z"/>
    <path class="cls-2" d="m384.73,461.13c8.02-11.97,18.93-21.93,31.54-28.89,3.63-2,7.39-3.75,11.26-5.23,1.49-.57.84-2.99-.66-2.41-13.99,5.34-26.63,14.03-36.56,25.24-2.8,3.16-5.38,6.52-7.73,10.02-.9,1.34,1.27,2.59,2.16,1.26h0Z"/>
    <path class="cls-2" d="m474.28,238.97c-9.6,9.75-19.39,19.3-29.38,28.65s-19.15,18-29.36,26.22c-5.49,4.43-11.35,8.43-17.77,11.4-.87.4-.76,1.72,0,2.16,17.53,10.02,35.2,19.78,53.02,29.26,17.56,9.35,35.35,18.22,53.06,27.28,8.28,4.24,18.04,10.72,17.66,21.25-.06,1.61,2.44,1.61,2.5,0,.32-8.92-6.24-15.92-13.35-20.33-4.04-2.5-8.37-4.5-12.61-6.62-4.66-2.33-9.31-4.68-13.95-7.05-18.35-9.35-36.55-18.99-54.6-28.9-10.2-5.6-20.36-11.29-30.46-17.07v2.16c11.48-5.31,21-13.86,30.35-22.21,10.26-9.17,20.34-18.54,30.21-28.12,5.54-5.38,11.02-10.82,16.44-16.33,1.13-1.15-.64-2.92-1.77-1.77h0Z"/>
    <path class="cls-2" d="m417.77,316.16c20.88-16.61,40.87-34.35,59.83-53.14,5.32-5.27,10.56-10.63,15.72-16.06,1.11-1.17-.66-2.94-1.77-1.77-18.38,19.35-37.8,37.7-58.17,54.94-5.72,4.84-11.51,9.59-17.37,14.25-1.26,1,.52,2.76,1.77,1.77h0Z"/>
    <path class="cls-2" d="m434.39,325.11c10.83-6.93,20.25-15.75,29.34-24.78,9.95-9.89,19.82-19.86,29.73-29.79,5.73-5.75,11.47-11.5,17.2-17.25,1.14-1.14-.63-2.91-1.77-1.77-10.01,10.03-20.01,20.06-30.02,30.09-9.44,9.46-18.68,19.19-28.64,28.11-5.38,4.82-11.03,9.33-17.12,13.22-1.35.86-.1,3.03,1.26,2.16h0Z"/>
    <path class="cls-2" d="m470.51,344.77c20.75-19.56,40.14-40.55,57.99-62.8,5.05-6.3,9.98-12.7,14.79-19.2.96-1.29-1.21-2.54-2.16-1.26-16.9,22.83-35.4,44.49-55.3,64.76-5.59,5.69-11.28,11.27-17.08,16.73-1.17,1.11.6,2.87,1.77,1.77h0Z"/>
    <path class="cls-2" d="m488.1,353.28c19.52-20.76,37.92-42.55,55.13-65.26,4.86-6.42,9.63-12.91,14.3-19.47.93-1.31-1.23-2.56-2.16-1.26-16.44,23.1-34.1,45.33-52.9,66.55-5.29,5.97-10.67,11.86-16.13,17.67-1.1,1.17.66,2.94,1.77,1.77h0Z"/>
    <path class="cls-2" d="m509.38,363.06c18.88-16.8,35.74-35.82,50.16-56.57,4.09-5.88,7.98-11.91,11.67-18.05.83-1.38-1.33-2.64-2.16-1.26-12.93,21.55-28.39,41.54-46.02,59.46-4.97,5.06-10.12,9.94-15.42,14.66-1.2,1.07.57,2.83,1.77,1.77h0Z"/>
    <path class="cls-2" d="m580.03,294.46c-7.61,10.79-14.61,22-21.58,33.21-6.51,10.46-12.86,21.34-15.72,33.45-1.61,6.79-2.06,13.79-.91,20.69.27,1.58,2.68.91,2.41-.66-2.05-12.19,1.5-24.53,6.82-35.44,5.41-11.08,12.39-21.43,19.01-31.81,3.92-6.14,7.92-12.23,12.12-18.18.93-1.32-1.24-2.57-2.16-1.26h0Z"/>
    <path class="cls-2" d="m590.75,322.69c-2.01,3.94-4.86,7.33-7.39,10.93-2.39,3.41-4.46,7.03-6.21,10.8-3.51,7.57-5.71,15.68-6.54,23.98-.47,4.7-.46,9.44.01,14.14.16,1.59,2.66,1.6,2.5,0-1.61-16.24,2.47-32.86,11.56-46.44,2.72-4.07,5.99-7.77,8.22-12.15.73-1.43-1.43-2.7-2.16-1.26h0Z"/>
    <path class="cls-2" d="m358.41,295.82c9.79,2.04,16.76,9.81,23.76,16.35,8.12,7.58,17.42,13.48,27.07,18.91,10.3,5.79,20.67,11.44,30.88,17.39,10.47,6.1,20.83,12.37,31.09,18.82,11.47,7.21,22.81,14.63,34.01,22.27,1.33.91,2.59-1.26,1.26-2.16-20.02-13.65-40.5-26.63-61.39-38.91-10.33-6.07-20.78-11.91-31.26-17.71-9.89-5.47-19.76-11.19-28.19-18.8-7.98-7.2-15.55-16.26-26.58-18.56-1.57-.33-2.24,2.08-.66,2.41h0Z"/>
    <path class="cls-2" d="m344.63,308.65c17.3,15.35,34.71,30.78,54.16,43.4,9.76,6.34,19.99,11.6,30.61,16.33,5.39,2.39,10.78,4.87,15.69,8.17,4.25,2.86,8.11,6.24,11.85,9.72,8.32,7.75,16.31,16.25,26.7,21.24,1.44.69,2.71-1.46,1.26-2.16-9.25-4.44-16.55-11.72-23.9-18.69-3.68-3.49-7.43-6.93-11.48-10-4.54-3.44-9.51-6.15-14.67-8.54s-10.82-4.75-16.1-7.42-10.11-5.41-14.98-8.44c-9.74-6.05-18.98-12.87-27.91-20.07-10.08-8.13-19.78-16.72-29.47-25.31-1.2-1.06-2.97.7-1.77,1.77h0Z"/>
    <path class="cls-2" d="m305.33,353.82c7.13-4.5,14.26-8.99,21.39-13.49,6.64-4.19,13.51-8.15,19.85-12.79,3.26-2.39,6.31-5.03,8.84-8.19,1-1.24-.76-3.02-1.77-1.77-4.46,5.57-10.47,9.42-16.44,13.18-7.06,4.45-14.12,8.91-21.18,13.36-3.98,2.51-7.97,5.03-11.95,7.54-1.36.86-.1,3.02,1.26,2.16h0Z"/>
    <path class="cls-2" d="m319.19,367.05c13.74-8.04,21.77-22.38,33.66-32.54,3.32-2.84,6.98-5.26,10.98-7.02,1.47-.65.2-2.8-1.26-2.16-14.61,6.42-23.12,20.74-34.21,31.45-3.18,3.08-6.61,5.87-10.44,8.11-1.39.81-.13,2.97,1.26,2.16h0Z"/>
    <path class="cls-2" d="m343.48,372.94c9.61-12.4,19.68-24.44,30.19-36.09,1.07-1.19-.69-2.97-1.77-1.77-10.5,11.65-20.57,23.69-30.19,36.09-.97,1.26.78,3.04,1.77,1.77h0Z"/>
    <path class="cls-2" d="m371.61,389.62c-.49-16.34,10.28-29.74,21.57-40.32,1.18-1.1-.59-2.87-1.77-1.77-11.76,11.04-22.81,25.09-22.3,42.09.05,1.61,2.55,1.61,2.5,0h0Z"/>
    <path class="cls-2" d="m74.12,382.18c-1.41-17.44-2.39-34.91-2.94-52.4s-.67-34.99-.37-52.48c.15-8.36-.01-16.91,1.29-25.19.64-4.12,1.75-8.12,3.4-11.95s3.62-7.47,5.57-11.12c7.78-14.6,16.28-28.81,25.46-42.57,7.55-11.32,15.74-24.37,28.67-30.12,2.6-1.16,6.62-2.89,9.44-1.66,3.26,1.42,1.65,6.46.95,8.97-1.84,6.56-5.33,12.49-9.2,18.05s-8.34,11.08-12.26,16.8c-4.27,6.23-7.52,12.95-10.57,19.84s-6.16,14.1-10.56,20.42-9.49,11.59-11.53,18.88c-1.05,3.76-1.28,7.7-1.36,11.58-.09,4.33-.1,8.67-.15,13-.1,8.83-.19,17.67-.29,26.5-.19,17.5-.38,35-.57,52.5-.05,4.33-.09,8.67-.14,13-.02,1.61,2.48,1.61,2.5,0,.19-18,.39-36,.58-54,.1-8.92.19-17.83.29-26.75s-.04-17.71.34-26.53c.17-4.09.71-8.21,2.41-11.98,1.55-3.44,3.79-6.52,6.06-9.52s4.64-6.14,6.61-9.46,3.74-6.96,5.37-10.55c3.23-7.09,6.13-14.37,10.18-21.05,3.7-6.1,8.16-11.68,12.38-17.42s8.06-11.44,10.7-17.93c1.89-4.65,5.77-15.37-1.89-17.02-3.19-.69-6.65.52-9.57,1.74-3.06,1.27-5.91,2.97-8.54,4.98-5.52,4.22-10.04,9.55-14.15,15.12-9.82,13.3-18.55,27.55-26.72,41.91-4.14,7.28-8.37,14.63-11.8,22.27s-4.66,15.77-5.02,24.15c-.77,17.77-.7,35.62-.38,53.41.33,17.83,1.1,35.64,2.31,53.43.3,4.38.63,8.77.98,13.15.13,1.59,2.63,1.61,2.5,0h0Z"/>
    <path class="cls-2" d="m151.02,167.33c2.63-3.8,8.74-.63,10.01,2.81,2.39,6.51-2.71,13.84-6.09,19.02-3.81,5.83-8.12,11.31-12.12,17.01s-7.55,11.78-10.6,18.1-5.66,12.79-8.22,19.29-5.39,13.36-7.22,20.32-2.46,14.44-2.78,21.75-.59,15.21-.88,22.81c-.66,17.31-1.32,34.61-1.98,51.92-.06,1.61,2.44,1.61,2.5,0,.61-16.14,1.23-32.28,1.84-48.42.3-7.96.6-15.93.91-23.89s.75-15.51,2.68-23.05,4.76-14.23,7.51-21.2,5.51-13.71,8.81-20.32,7.15-12.7,11.44-18.64,8.71-11.64,12.44-17.88c3.35-5.61,7.59-14.21,2.67-20.19-3.16-3.85-9.9-5.27-13.06-.7-.92,1.33,1.25,2.58,2.16,1.26h0Z"/>
    <path class="cls-2" d="m168.87,172.54c5.6-1.27,11.63,1.44,14.18,6.63,1.24,2.51,1.64,5.5,1.07,8.24-.64,3.09-2.5,5.64-4.53,7.98-4.07,4.68-8.19,9.27-12.02,14.15s-7.52,9.99-10.92,15.24c-13.29,20.51-22.75,43.99-23.87,68.61-.74,16.31,2.33,32.51,1.8,48.82-.05,1.61,2.45,1.61,2.5,0,.49-15.08-2.1-30.05-1.91-45.12.16-12.82,2.65-25.5,6.9-37.58,4.24-12.06,10.2-23.48,17.19-34.17,3.53-5.4,7.34-10.63,11.37-15.68,2-2.5,4.05-4.96,6.16-7.37s4.3-4.65,6.22-7.15c2.03-2.64,3.47-5.54,3.79-8.89s-.47-6.57-2.13-9.33c-3.35-5.56-10.2-8.21-16.46-6.78-1.57.36-.9,2.77.66,2.41h0Z"/>
    <path class="cls-2" d="m189.1,188.55c2.46-1.45,5.25-3.04,8.19-3.01,2.59.03,4.5,1.7,5.32,4.08,1.53,4.46.12,9.82-1.67,14-3.84,9-11.24,15.95-17.95,22.83-3.56,3.65-7.06,7.35-10.14,11.42-3.49,4.61-6.4,9.65-8.77,14.92-4.79,10.62-7.44,22.03-8.76,33.57-1.69,14.88-1.17,29.9-.65,44.83.06,1.6,2.56,1.61,2.5,0-.9-25.92-1.82-53.16,9.15-77.34,2.49-5.48,5.55-10.74,9.27-15.48,3.2-4.08,6.85-7.79,10.47-11.49,7-7.15,14.49-14.6,17.93-24.23,1.72-4.81,2.92-11.2.06-15.82-1.53-2.48-4.24-3.9-7.15-3.79-3.27.13-6.31,1.72-9.06,3.34-1.39.82-.13,2.98,1.26,2.16h0Z"/>
    <path class="cls-2" d="m208.08,194.43c2.66-.93,5.45-1.83,8.3-1.8,3.1.03,5.21,1.49,6.83,4.06,1.75,2.77,3.59,5.37,5.77,7.83s4.67,4.98,7.03,7.45c2.51,2.62,5.01,5.24,7.52,7.85,1.14,1.19,2.28,2.38,3.42,3.57,1.3,1.35,2.54,2.86,3.95,4.09,2.39,2.08,5.87-.02,8.33-1.06,2.94-1.24,5.79-2.69,8.53-4.34s5.25-3.47,7.69-5.45c2.28-1.85,4.77-4.11,7.82-4.43,3.26-.34,6.74,1.47,9.73,2.56,3.19,1.17,6.38,2.39,9.48,3.78,6.36,2.86,11.98,6.71,17.6,10.79s11.42,8.41,16.8,13.05c11.61,10,21.98,21.31,32.32,32.58,1.09,1.19,2.85-.58,1.77-1.77-9.4-10.25-18.83-20.52-29.19-29.83-5.23-4.69-10.73-9.05-16.38-13.22s-11.28-8.54-17.54-11.78-12.5-5.56-18.93-7.73c-3.09-1.04-6.11-1.36-9.15,0-2.83,1.26-5.09,3.49-7.53,5.36-5.2,3.99-11.05,7.19-17.22,9.4-.72.26-1.63.78-2.35.31s-1.32-1.34-1.9-1.95c-1.25-1.31-2.51-2.62-3.76-3.93-2.62-2.74-5.24-5.47-7.86-8.21s-5.48-5.62-8.1-8.54c-1.31-1.46-2.58-2.97-3.71-4.59-.98-1.39-1.77-2.9-2.78-4.27-4.19-5.73-11.34-4.25-17.15-2.21-1.51.53-.86,2.95.66,2.41h0Z"/>
    <path class="cls-2" d="m226.8,206.59c-12.97,10.73-24.05,23.73-32.55,38.26-2.25,3.84-4.31,7.8-5.93,11.95s-2.65,8.68-4.53,12.81-4.38,7.72-6.36,11.69-3.58,8.18-4.99,12.41c-1.63,4.85-3.2,9.76-4.5,14.71s-2.2,10.23-1.74,15.44c.14,1.59,2.64,1.61,2.5,0-.8-9.13,2.49-18.09,5.23-26.65,1.34-4.19,2.77-8.37,4.59-12.38s4.18-7.68,6.24-11.55,3.32-8.01,4.68-12.16,3.23-8.3,5.39-12.22c4.05-7.36,8.8-14.35,14.12-20.84,5.89-7.19,12.47-13.8,19.64-19.72,1.24-1.03-.54-2.79-1.77-1.77h0Z"/>
    <path class="cls-2" d="m240.13,220.35c-11.7,15.38-22.5,31.52-31.12,48.84s-15.13,36.23-17.77,55.65c-1.49,10.98-1.76,22.09-.54,33.11.17,1.58,2.68,1.6,2.5,0-2.15-19.48.37-39.17,6.06-57.86s14.34-35.82,24.61-52.11c5.72-9.07,11.93-17.83,18.42-26.36.97-1.28-1.2-2.53-2.16-1.26h0Z"/>
    <path class="cls-2" d="m253.53,227.62c-6.17,17.78-11.25,35.94-15.17,54.35-3.91,18.36-6.68,36.97-8.3,55.67-.91,10.56-1.45,21.15-1.62,31.74-.03,1.61,2.47,1.61,2.5,0,.3-18.71,1.75-37.4,4.37-55.92,2.63-18.56,6.41-36.95,11.31-55.04,2.75-10.15,5.86-20.2,9.31-30.14.53-1.52-1.89-2.18-2.41-.66h0Z"/>
    <path class="cls-2" d="m260.51,228.14c1.51,17.49,7.24,34.23,9.39,51.61,1.12,9.04.93,18.17.83,27.26s-.36,18.57-.77,27.85c-.46,10.44-1.11,20.87-1.94,31.28-.13,1.6,2.37,1.6,2.5,0,1.48-18.51,2.38-37.07,2.66-55.65.14-9.14.45-18.38-.42-27.49s-2.65-17.19-4.54-25.68c-2.14-9.65-4.36-19.31-5.21-29.18-.14-1.59-2.64-1.61-2.5,0h0Z"/>
    <path class="cls-2" d="m275.6,219.42c3.63,15.31,9.95,29.77,15.27,44.53,2.65,7.35,5.06,14.8,6.72,22.44.83,3.83,1.47,7.7,1.84,11.6s.38,8.15.44,12.24c.07,4.82.55,9.48,1.57,14.19,1,4.63,2.1,9.26,1.51,14.03-.2,1.59,2.3,1.58,2.5,0,.51-4.1-.2-8.18-1.05-12.19-.9-4.22-1.76-8.35-1.94-12.67s-.04-8.67-.32-13c-.25-3.85-.75-7.69-1.46-11.48-2.88-15.54-9.08-30.19-14.59-44.93-3.11-8.34-6.04-16.76-8.09-25.43-.37-1.56-2.78-.9-2.41.66h0Z"/>
    <path class="cls-2" d="m310.08,224.95c6.37,9.01,10.43,19.01,13.14,29.67,2.86,11.25,5.23,22.65,7.66,34.01.68,3.19,1.4,6.37,1.98,9.58s.88,6.41.17,9.58c-.35,1.57,2.06,2.24,2.41.66,1.28-5.71-.25-11.5-1.43-17.09-1.24-5.91-2.54-11.81-3.85-17.7-2.54-11.36-4.61-23.07-9.07-33.88-2.34-5.68-5.3-11.07-8.85-16.09-.92-1.3-3.09-.06-2.16,1.26h0Z"/>
    <path class="cls-2" d="m414.86,289.08c-5.97-8.19-11.96-16.39-18.71-23.97-1.72-1.92-3.48-3.81-5.3-5.63s-3.69-3.34-5.32-5.19c-2.96-3.34-2.88-7.98-1.26-11.92s5-7.34,8.8-9.45c4.52-2.51,9.7-3.14,14.79-2.78s10.01,1.42,14.49,3.51c2.35,1.1,4.47,2.57,6.71,3.87s4.4,2.17,6.72,2.95c5.44,1.8,11.05,2.97,16.33,5.25,2.56,1.11,4.92,2.51,7.32,3.93,2.19,1.3,4.43,2.36,7,2.58,1.6.13,1.59-2.37,0-2.5-2.52-.21-4.69-1.6-6.79-2.88s-4.36-2.48-6.68-3.47c-4.86-2.07-9.96-3.3-15-4.84-2.66-.81-5.23-1.78-7.64-3.17-2.24-1.29-4.36-2.77-6.71-3.87-4.64-2.17-9.75-3.31-14.84-3.78s-10.42,0-15.17,2.14c-4.13,1.86-7.89,4.97-10.26,8.85-2.2,3.6-3.38,8.13-2.33,12.3,1.21,4.82,5.73,7.83,9.03,11.22,8.43,8.63,15.56,18.4,22.66,28.12.94,1.29,3.11.04,2.16-1.26h0Z"/>
    <path class="cls-2" d="m371.39,270.34c-.59-9.25,2.94-18.16,3.83-27.29.89-9.12.29-18.5-.79-27.58-.53-4.45-1.48-8.91-4.05-12.66-.9-1.32-3.07-.07-2.16,1.26,2.23,3.26,3.16,7.11,3.66,10.99.56,4.37.85,8.8,1.07,13.19s.25,9.07-.12,13.6-1.34,9.1-2.3,13.62c-1.04,4.89-1.95,9.85-1.64,14.88.1,1.6,2.6,1.61,2.5,0h0Z"/>
    <path class="cls-2" d="m344.95,242.95c1.44-16.9.14-33.97-3.8-50.46-.37-1.56-2.79-.9-2.41.66,3.89,16.28,5.13,33.11,3.71,49.79-.14,1.6,2.36,1.59,2.5,0h0Z"/>
    <path class="cls-2" d="m309.88,184.03c.54,11.33,1.07,22.85-1.87,33.92-.41,1.56,2,2.22,2.41.66,3-11.29,2.51-23.04,1.96-34.59-.08-1.6-2.58-1.61-2.5,0h0Z"/>
    <path class="cls-2" d="m271.18,170.06c2.35,2.04,3.9,4.69,5.15,7.51,1.39,3.13,2.52,6.4,3.56,9.67,2.15,6.75,3.72,13.69,4.65,20.72.21,1.57,2.71,1.59,2.5,0-.98-7.41-2.58-14.71-4.88-21.83-1.09-3.38-2.3-6.76-3.75-10-1.32-2.93-3.01-5.71-5.45-7.83-1.21-1.05-2.99.71-1.77,1.77h0Z"/>
    <path class="cls-2" d="m220.15,188.47c-.77-1.66.07-3.54.93-4.99.93-1.57,1.99-3.03,2.63-4.75,1.21-3.29.78-7.01-.3-10.27-1.21-3.63-3.26-6.88-4.96-10.28s-2.78-7.11-3.26-10.92c-.54-4.32-.48-8.69-.42-13.03.02-1.61-2.48-1.61-2.5,0-.11,7.64-.15,15.55,2.87,22.72,2.76,6.56,9.56,14.51,5.78,21.98-1.76,3.48-4.83,6.67-2.92,10.8.67,1.46,2.83.19,2.16-1.26h0Z"/>
    <path class="cls-2" d="m77.77,50.87c15.82,17.81,31.78,35.72,50.68,50.37,4.81,3.73,9.76,7.26,14.61,10.93s9.37,7.64,14.02,11.55,9.39,6.93,14.58,9.79c4.81,2.65,9.38,5.53,13.78,8.82,9.15,6.84,18.09,14.71,29.48,17.43,1.56.37,2.23-2.04.66-2.41-10.03-2.39-18.17-8.99-26.18-15.12-4.15-3.18-8.35-6.26-12.89-8.86-5.2-2.98-10.5-5.67-15.22-9.41s-8.79-7.57-13.35-11.16-9.73-7.29-14.6-10.94c-9.49-7.13-18.33-15.03-26.71-23.43-9.4-9.42-18.25-19.37-27.09-29.32-1.07-1.21-2.83.57-1.77,1.77h0Z"/>
    <path class="cls-2" d="m62.12,70.03c5.2,10.01,13.52,17.78,21.91,25.12,4.23,3.7,8.52,7.34,12.57,11.24,2.1,2.02,4.14,4.12,6.06,6.32,2.05,2.36,3.82,4.96,5.93,7.26s4.88,4.32,7.55,6.18c2.89,2.01,5.8,3.97,8.75,5.89,5.95,3.89,12.01,7.62,18.12,11.26s12.25,7.18,18.42,10.69,11.95,6.73,18.17,9.64c7.13,3.34,14.53,5.79,22.03,8.15s15.07,5.17,22.25,8.7c1.44.71,2.71-1.45,1.26-2.16-6.21-3.05-12.63-5.63-19.21-7.78s-13.36-4.08-19.82-6.74c-12.79-5.28-24.75-12.63-36.67-19.61-6.07-3.55-12.1-7.18-18.04-10.94s-11.89-7.43-17.38-11.71c-4.87-3.81-8.15-9.23-12.41-13.67-3.88-4.05-8.1-7.77-12.33-11.45-9.38-8.17-19.15-16.42-24.99-27.63-.74-1.43-2.9-.17-2.16,1.26h0Z"/>
    <path class="cls-2" d="m52.69,93.63c11.22,8.96,22.1,18.34,32.6,28.13,9.11,8.5,17.84,17.53,28.03,24.77,5.66,4.02,11.77,7.38,18.36,9.61,1.53.52,2.18-1.9.66-2.41-11.59-3.93-21.37-11.54-30.33-19.67-9.8-8.89-19.19-18.2-29.17-26.89-6.02-5.24-12.15-10.34-18.38-15.32-1.25-.99-3.03.76-1.77,1.77h0Z"/>
    <path class="cls-2" d="m116.88,6.12c-1.75,21.12-1.63,42.38.41,63.48.58,5.95,1.31,11.89,2.17,17.8.23,1.59,2.64.91,2.41-.66-3.05-20.77-4.23-41.82-3.54-62.8.2-5.95.54-11.89,1.04-17.81.13-1.6-2.37-1.59-2.5,0h0Z"/>
    <path class="cls-2" d="m138.9,6.71c-3.47,27.77-2.63,56.02,2.42,83.54,1.43,7.79,3.2,15.5,5.3,23.13.43,1.55,2.84.89,2.41-.66-7.38-26.85-10.61-54.77-9.54-82.6.3-7.83.94-15.64,1.91-23.42.2-1.59-2.3-1.58-2.5,0h0Z"/>
    <path class="cls-2" d="m162.5,22.39c-1.79,29.12-.11,58.69,5.57,87.33,1.48,7.46,3.52,14.86,7.12,21.6.76,1.42,2.92.16,2.16-1.26-3.21-6.02-5.1-12.59-6.5-19.23s-2.54-13.84-3.46-20.81c-1.91-14.34-2.92-28.8-3.04-43.26-.07-8.13.16-16.25.66-24.37.1-1.61-2.4-1.6-2.5,0h0Z"/>
    <path class="cls-2" d="m69.55,105.77c-12.7,24.19-19.93,50.68-27.36,76.82-3.99,14.02-7.97,28.04-11.96,42.06-3.94,13.86-8.08,27.68-11.43,41.7-3.74,15.64-6.2,31.57-7.36,47.61-.12,1.61,2.38,1.6,2.5,0,1.03-14.18,3.08-28.28,6.17-42.16,3.11-13.96,7.19-27.69,11.1-41.44s7.93-27.88,11.89-41.82c3.74-13.17,7.38-26.39,11.57-39.43,4.63-14.43,9.99-28.65,17.04-42.08.75-1.42-1.41-2.69-2.16-1.26h0Z"/>
    <path class="cls-2" d="m65.35,121.9c11.55,13.09,23.67,25.67,36.32,37.69,3.61,3.43,7.26,6.81,10.95,10.14,1.19,1.08,2.96-.69,1.77-1.77-12.95-11.7-25.39-23.97-37.26-36.76-3.38-3.65-6.72-7.34-10.01-11.07-1.07-1.21-2.83.56-1.77,1.77h0Z"/>
    <path class="cls-2" d="m56.83,144.21c5.66,6.83,11.31,13.67,16.97,20.5,5.19,6.26,10.39,12.51,15.96,18.44,3.2,3.4,6.53,6.69,10.01,9.81,1.2,1.07,2.97-.69,1.77-1.77-12.39-11.07-22.68-24.26-33.24-37.02l-9.71-11.73c-1.03-1.24-2.79.54-1.77,1.77h0Z"/>
    <path class="cls-2" d="m48.68,167.39c5.85,8.02,12,15.83,18.45,23.38,5.97,6.99,12.05,14.36,20.01,19.16,1.38.83,2.64-1.33,1.26-2.16-7.76-4.69-13.68-11.96-19.5-18.77-6.31-7.39-12.33-15.03-18.06-22.88-.94-1.29-3.11-.04-2.16,1.26h0Z"/>
    <path class="cls-2" d="m39.01,200.15c6.4,15.86,16.7,29.99,29.93,40.85,1.23,1.01,3.01-.75,1.77-1.77-12.87-10.57-23.04-24.3-29.29-39.75-.59-1.47-3.01-.83-2.41.66h0Z"/>
    <path class="cls-2" d="m28.08,232.66c7.03,14.1,16.68,26.89,28.34,37.49,3.2,2.91,6.5,6.02,10.64,7.5,1.52.54,2.17-1.87.66-2.41-3.57-1.28-6.46-4.08-9.22-6.57s-5.56-5.26-8.15-8.07c-5.12-5.55-9.72-11.55-13.76-17.92-2.31-3.65-4.43-7.42-6.36-11.29-.72-1.44-2.88-.17-2.16,1.26h0Z"/>
    <path class="cls-2" d="m19.62,269.84c.85,3.96,4.08,6.86,6.73,9.7,3.13,3.33,6.29,6.63,9.5,9.88,5.73,5.81,11.48,11.85,18.38,16.3,3.67,2.37,7.7,4.19,11.99,5.06,1.57.32,2.24-2.09.66-2.41-7.38-1.5-13.6-5.87-19.11-10.82-6.13-5.5-11.84-11.53-17.51-17.5-1.67-1.76-3.35-3.52-4.97-5.32-1.47-1.63-2.79-3.36-3.26-5.55-.34-1.57-2.75-.91-2.41.66h0Z"/>
    <path class="cls-2" d="m14.88,304.05c4.76,6.53,10.38,12.35,16.78,17.28s13.74,8.82,21.35,12.03c4.5,1.9,8.99,3.85,12.96,6.74,1.3.95,2.55-1.22,1.26-2.16-6.72-4.89-14.88-7.13-22.17-10.96-7.02-3.69-13.49-8.4-19.16-13.95-3.23-3.16-6.2-6.59-8.87-10.25-.94-1.29-3.11-.04-2.16,1.26h0Z"/>
    <path class="cls-2" d="m21.8,348.79c3.96,1.25,7.82,2.79,11.53,4.67s7.17,4.15,10.87,6.03c7.17,3.65,15.2,5.36,23.24,4.92,1.6-.09,1.61-2.59,0-2.5-8.11.45-16.06-1.37-23.2-5.22-3.51-1.89-6.88-4.04-10.46-5.8s-7.43-3.3-11.31-4.51c-1.54-.48-2.2,1.93-.66,2.41h0Z"/>
    <path class="cls-2" d="m84.58,126.63c-9.08,29.67-16.53,59.81-23.7,89.99-7.17,30.19-14.07,60.45-22.07,90.43-4.49,16.83-9.33,33.57-14.74,50.13-.5,1.53,1.91,2.19,2.41.66,9.63-29.49,17.44-59.52,24.73-89.66,7.3-30.17,14.1-60.45,21.78-90.53,4.31-16.89,8.9-33.7,14-50.37.47-1.54-1.94-2.2-2.41-.66h0Z"/>
    <path class="cls-2" d="m108.06,145.08c-4.72,19.86-10.37,39.5-16.95,58.83-.52,1.53,1.89,2.18,2.41.66,6.58-19.33,12.23-38.96,16.95-58.83.37-1.56-2.04-2.23-2.41-.66h0Z"/>
    <path class="cls-2" d="m66.32,314.31c-2.48,21.55-5.41,43.05-8.8,64.48-.96,6.04-1.95,12.07-2.98,18.09-.27,1.57,2.14,2.25,2.41.66,3.67-21.52,6.88-43.13,9.64-64.79.78-6.15,1.52-12.3,2.23-18.45.18-1.6-2.32-1.58-2.5,0h0Z"/>
  </g>
  <path class="cls-1" d="m83.03,80.18c.03,4.01-2.15,5.94-4.53,11-4.53,9.62-4.89,14.01-6.66,13.97-1.76-.03-1.92-4.34-5.95-13.33-2.59-5.77-4.72-7.45-4.79-11.64-.02-1.49-.03-4.93,2.43-7.76,2.87-3.3,7.1-3.47,8.53-3.44.74.02,5.57.21,8.68,4.17,2.21,2.82,2.28,5.95,2.29,7.02Z"/>
  <path class="cls-1" d="m92.79,282.1c.03,4.01-2.15,5.94-4.53,11-4.53,9.62-4.89,14.01-6.66,13.97-1.76-.03-1.92-4.34-5.95-13.33-2.59-5.77-4.72-7.45-4.79-11.64-.02-1.49-.03-4.93,2.43-7.76,2.87-3.3,7.1-3.47,8.53-3.44.74.02,5.57.21,8.68,4.17,2.21,2.82,2.28,5.95,2.29,7.02Z"/>
  <path class="cls-1" d="m178.27,265.24c.03,4.01-2.15,5.94-4.53,11-4.53,9.62-4.89,14.01-6.66,13.97-1.76-.03-1.92-4.34-5.95-13.33-2.59-5.77-4.72-7.45-4.79-11.64-.02-1.49-.03-4.93,2.43-7.76,2.87-3.3,7.1-3.47,8.53-3.44.74.02,5.57.21,8.68,4.17,2.21,2.82,2.28,5.95,2.29,7.02Z"/>
  <path class="cls-1" d="m221.98,468.26c.03,4.01-2.15,5.94-4.53,11-4.53,9.62-4.89,14.01-6.66,13.97-1.76-.03-1.92-4.34-5.95-13.33-2.59-5.77-4.72-7.45-4.79-11.64-.02-1.49-.03-4.93,2.43-7.76,2.87-3.3,7.1-3.47,8.53-3.44.74.02,5.57.21,8.68,4.17,2.21,2.82,2.28,5.95,2.29,7.02Z"/>
  <path class="cls-1" d="m272.73,403.88c.03,4.01-2.15,5.94-4.53,11-4.53,9.62-4.89,14.01-6.66,13.97-1.76-.03-1.92-4.34-5.95-13.33-2.59-5.77-4.72-7.45-4.79-11.64-.02-1.49-.03-4.93,2.43-7.76,2.87-3.3,7.1-3.47,8.53-3.44.74.02,5.57.21,8.68,4.17,2.21,2.82,2.28,5.95,2.29,7.02Z"/>
  <path class="cls-1" d="m187.23,371.77c.03,4.01-2.15,5.94-4.53,11-4.53,9.62-4.89,14.01-6.66,13.97-1.76-.03-1.92-4.34-5.95-13.33-2.59-5.77-4.72-7.45-4.79-11.64-.02-1.49-.03-4.93,2.43-7.76,2.87-3.3,7.1-3.47,8.53-3.44.74.02,5.57.21,8.68,4.17,2.21,2.82,2.28,5.95,2.29,7.02Z"/>
  <path class="cls-1" d="m374.17,182.21c.03,4.01-2.15,5.94-4.53,11-4.53,9.62-4.89,14.01-6.66,13.97-1.76-.03-1.92-4.34-5.95-13.33-2.59-5.77-4.72-7.45-4.79-11.64-.02-1.49-.03-4.93,2.43-7.76,2.87-3.3,7.1-3.47,8.53-3.44.74.02,5.57.21,8.68,4.17,2.21,2.82,2.28,5.95,2.29,7.02Z"/>
  <path class="cls-1" d="m340.93,283.32c.03,4.01-2.15,5.94-4.53,11-4.53,9.62-4.89,14.01-6.66,13.97-1.76-.03-1.92-4.34-5.95-13.33-2.59-5.77-4.72-7.45-4.79-11.64-.02-1.49-.03-4.93,2.43-7.76,2.87-3.3,7.1-3.47,8.53-3.44.74.02,5.57.21,8.68,4.17,2.21,2.82,2.28,5.95,2.29,7.02Z"/>
  <path class="cls-1" d="m238.98,191.53c.03,4.01-2.15,5.94-4.53,11-4.53,9.62-4.89,14.01-6.66,13.97-1.76-.03-1.92-4.34-5.95-13.33-2.59-5.77-4.72-7.45-4.79-11.64-.02-1.49-.03-4.93,2.43-7.76,2.87-3.3,7.1-3.47,8.53-3.44.74.02,5.57.21,8.68,4.17,2.21,2.82,2.28,5.95,2.29,7.02Z"/>
  <path class="cls-1" d="m304.77,334.66c.03,4.01-2.15,5.94-4.53,11-4.53,9.62-4.89,14.01-6.66,13.97-1.76-.03-1.92-4.34-5.95-13.33-2.59-5.77-4.72-7.45-4.79-11.64-.02-1.49-.03-4.93,2.43-7.76,2.87-3.3,7.1-3.47,8.53-3.44.74.02,5.57.21,8.68,4.17,2.21,2.82,2.28,5.95,2.29,7.02Z"/>
  <path class="cls-1" d="m120.23,136.44c.03,4.01-2.15,5.94-4.53,11-4.53,9.62-4.89,14.01-6.66,13.97-1.76-.03-1.92-4.34-5.95-13.33-2.59-5.77-4.72-7.45-4.79-11.64-.02-1.49-.03-4.93,2.43-7.76,2.87-3.3,7.1-3.47,8.53-3.44.74.02,5.57.21,8.68,4.17,2.21,2.82,2.28,5.95,2.29,7.02Z"/>
  <path class="cls-1" d="m180.87,442.52c.03,4.01-2.15,5.94-4.53,11-4.53,9.62-4.89,14.01-6.66,13.97-1.76-.03-1.92-4.34-5.95-13.33-2.59-5.77-4.72-7.45-4.79-11.64-.02-1.49-.03-4.93,2.43-7.76,2.87-3.3,7.1-3.47,8.53-3.44.74.02,5.57.21,8.68,4.17,2.21,2.82,2.28,5.95,2.29,7.02Z"/>
  <path class="cls-1" d="m68.68,201.97c.03,4.01-2.15,5.94-4.53,11-4.53,9.62-4.89,14.01-6.66,13.97-1.76-.03-1.92-4.34-5.95-13.33-2.59-5.77-4.72-7.45-4.79-11.64-.02-1.49-.03-4.93,2.43-7.76,2.87-3.3,7.1-3.47,8.53-3.44.74.02,5.57.21,8.68,4.17,2.21,2.82,2.28,5.95,2.29,7.02Z"/>
  <path class="cls-1" d="m449.13,301.23c.03,4.01-2.15,5.94-4.53,11-4.53,9.62-4.89,14.01-6.66,13.97-1.76-.03-1.92-4.34-5.95-13.33-2.59-5.77-4.72-7.45-4.79-11.64-.02-1.49-.03-4.93,2.43-7.76,2.87-3.3,7.1-3.47,8.53-3.44.74.02,5.57.21,8.68,4.17,2.21,2.82,2.28,5.95,2.29,7.02Z"/>
  <path class="cls-1" d="m57.25,123.55c.03,4.01-2.15,5.94-4.53,11-4.53,9.62-4.89,14.01-6.66,13.97-1.76-.03-1.92-4.34-5.95-13.33-2.59-5.77-4.72-7.45-4.79-11.64-.02-1.49-.03-4.93,2.43-7.76,2.87-3.3,7.1-3.47,8.53-3.44.74.02,5.57.21,8.68,4.17,2.21,2.82,2.28,5.95,2.29,7.02Z"/>
</svg>