<?xml version="1.0" encoding="UTF-8"?>
<svg id="Layer_1" data-name="Layer 1" xmlns="http://www.w3.org/2000/svg" viewBox="0 0 392.6 339.14">
  <defs>
    <style>
      .cls-1 {
        fill: #727456;
        stroke: #364024;
        stroke-miterlimit: 10;
      }

      .cls-2 {
        fill: #364024;
        stroke-width: 0px;
      }
    </style>
  </defs>
  <g>
    <path class="cls-2" d="m57.36,17.95C34.54,48.93,22.29,85.57,13.11,122.54c-2.32,9.35-4.71,18.69-7.15,28.01-1.73,6.63-3.54,13.26-4.84,19.99-.76,3.91-1.51,8.06-.9,12.04.67,4.36,1.84,8.69,2.88,12.97,1.18,4.85,2.47,9.68,3.87,14.47,5.48,18.68,12.87,36.83,22.7,53.65,2.55,4.36,5.26,8.63,8.11,12.8,1.39,2.03,2.82,4.03,4.28,6,1.37,1.86,3.06,3.15,5.01,4.38,1.81,1.13,3.72,2.13,5.39,3.47,2.03,1.62,3.93,3.46,5.86,5.2,3.71,3.35,7.35,6.77,10.9,10.29,3.52,3.49,6.94,7.07,10.29,10.72,1.69,1.84,3.36,3.71,5.01,5.59s3.64,3.44,5.65,4.92c7.25,5.34,15.72,8.74,24.53,10.45s18.39,1.91,27.59,1.39c5.22-.29,10.34-1.61,15.41-2.86s10.18-2.7,15.21-4.24c10.45-3.2,20.75-6.86,31.07-10.45,5.07-1.76,10.09-3.45,15.02-5.55,2.45-1.05,4.95-1.96,7.41-3,2.24-.95,4.28-2.31,6.51-3.25,9.22-3.89,19.85-4.35,29.63-5.84,5.01-.76,10.02-1.7,14.84-3.29,4.32-1.43,8.3-3.64,12.1-6.14,15.29-10.1,26.68-24.95,41.76-35.31,8.35-5.74,19.62-5.92,29.36-5.77,4.96.08,9.93.29,14.89.04,2.23-.11,4.46-.32,6.67-.67,1.01-.16,1.51-.24,2.19-.97.85-.91,1.6-1.95,2.3-2.97,9.7-14.11,5.76-32.81.71-47.86-1.4-4.16-3.13-7.81-5.78-11.35s-5.76-6.75-9.2-9.55-7.12-5.2-11.05-7.21c-4.39-2.25-9.06-3.81-13.7-5.47-42.71-15.33-85.69-29.88-128.57-44.74-19.76-6.85-39.68-13.3-58.1-23.38-8.54-4.67-16.68-10.12-23.9-16.67-3.67-3.33-7.48-6.94-10.32-11.03-2.57-3.7-3.92-8-4.41-12.45-.95-8.77.48-17.63-1.42-26.32-1.45-6.65-4.87-12.45-9.35-17.49-9.07-10.21-23.09-19.21-36.97-13.06-7.32,3.24-12.59,9.67-17.25,15.95-.96,1.29,1.21,2.54,2.16,1.26,4.95-6.68,10.86-13.77,19.22-16.05,7.53-2.05,15.11.64,21.33,4.91,4.5,3.09,8.5,7.01,11.88,11.3,5.29,6.72,7.34,14.67,7.57,23.1s-.85,16.98,2.29,24.89c1.68,4.23,4.48,7.62,7.55,10.92s6.63,6.62,10.26,9.57c14.31,11.65,31.18,19.4,48.18,26.24,10.23,4.12,20.89,7.37,31.31,10.98s21.12,7.3,31.69,10.94c20.83,7.17,41.66,14.34,62.46,21.62,10.55,3.69,21.08,7.41,31.6,11.18,9.11,3.26,17.88,6.48,25.51,12.61,3.52,2.82,6.75,6.07,9.4,9.72s4.29,7.51,5.68,11.81c2.54,7.83,4.55,16,4.61,24.28.03,4.08-.44,8.15-1.66,12.05-.62,1.98-1.43,3.89-2.44,5.7-.89,1.59-2.17,4.29-3.84,5.06-1.1.51-2.87.4-4.08.51-1.06.09-2.12.16-3.19.2-2.58.11-5.16.1-7.74.06-4.78-.08-9.56-.27-14.34-.07-4.69.19-9.41.76-13.92,2.11s-8.47,3.52-12.26,6.39c-7.17,5.42-13.61,11.7-20.16,17.83-6.46,6.04-13.1,12.01-20.7,16.61-8.44,5.1-17.85,6.79-27.5,8.13-4.97.69-9.97,1.31-14.9,2.27-4.45.87-9.39,1.83-13.32,4.17-4.26,2.53-9.11,3.93-13.6,5.96-4.84,2.19-10.07,3.66-15.09,5.41-10.1,3.52-20.19,7.08-30.44,10.17-9.83,2.97-20.13,6.22-30.44,6.69-18.28.84-37.32-1.53-51.76-13.78-3.72-3.16-6.76-7.27-10.09-10.83s-6.51-6.79-9.89-10.06c-3.56-3.45-7.21-6.81-10.91-10.11-1.59-1.42-3.14-2.91-4.88-4.15-1.96-1.38-4.12-2.45-6.07-3.84s-3.22-3.29-4.6-5.22c-1.55-2.17-3.06-4.36-4.52-6.59-2.65-4.02-5.15-8.13-7.51-12.32-4.8-8.53-9.02-17.38-12.65-26.47s-6.5-17.77-9.07-26.88c-1.3-4.61-2.49-9.25-3.59-13.91-.84-3.56-1.97-7.24-2.32-10.89-.41-4.23.57-8.61,1.45-12.71,1.46-6.8,3.29-13.52,5.05-20.25,4.55-17.4,8.54-34.97,13.74-52.2,5.45-18.08,12.2-35.8,21.16-52.46,4.6-8.56,9.78-16.79,15.54-24.61.96-1.3-1.21-2.54-2.16-1.26Z"/>
    <path class="cls-2" d="m121.01,236.88c-3.12,12.4-6.25,24.79-9.37,37.19-1.56,6.2-3.19,12.4-4.58,18.64-1.28,5.7-2.15,11.46-3.14,17.21-1.1,6.4-2.48,12.82-5.39,18.67-.71,1.44,1.44,2.7,2.16,1.26,5.19-10.48,5.81-22.33,8.16-33.61,2.62-12.57,6.08-25,9.22-37.45,1.78-7.08,3.57-14.17,5.35-21.25.39-1.56-2.02-2.23-2.41-.66h0Z"/>
    <path class="cls-2" d="m133.74,240.02c-.03,12.78-.05,25.56-.08,38.34s0,25.14-.84,37.69c-.47,6.91-.9,13.85.48,20.69.32,1.58,2.73.91,2.41-.66-1.22-6.04-.91-12.23-.5-18.34s.72-12.4.83-18.61c.23-12.56.14-25.13.16-37.69l.05-21.41c0-1.61-2.5-1.61-2.5,0h0Z"/>
    <path class="cls-2" d="m144.89,244.48c.22,11.55.7,22.98,4.07,34.11.86,2.83,1.71,5.66,2.03,8.61s.45,5.64.96,8.44c1.06,5.77,2.65,11.46,4.04,17.16,1.61,6.63,3.22,13.27,4.83,19.9.38,1.56,2.79.9,2.41-.66-2.79-11.51-5.8-22.99-8.35-34.55-1.25-5.67-1.17-11.49-2.77-17.09s-3.06-10.89-3.72-16.6c-.74-6.41-.87-12.87-.99-19.31-.03-1.61-2.53-1.61-2.5,0h0Z"/>
    <path class="cls-2" d="m164.56,244.67c-.63,11.16,3.44,21.91,5.99,32.61,2.5,10.5,4.02,21.21,6.65,31.68,1.44,5.7,3.29,11.3,5.88,16.59.71,1.45,2.86.18,2.16-1.26-4.52-9.26-6.58-19.44-8.5-29.49-1.01-5.28-2.03-10.56-3.22-15.8s-2.76-10.76-4.12-16.15c-1.51-5.96-2.68-12.01-2.33-18.18.09-1.61-2.41-1.6-2.5,0h0Z"/>
    <path class="cls-2" d="m199.41,320.97c-3.67-9.7-7.37-19.44-9.76-29.56-1.19-5.04-1.86-10.19-3.43-15.14-1.55-4.87-3.5-9.59-4.95-14.5-1.64-5.59-2.87-11.29-3.7-17.06-.23-1.59-2.64-.91-2.41.66.73,5.07,1.76,10.08,3.11,15.02s3.19,9.7,4.86,14.53,2.52,9.98,3.63,15.05c1.1,5.07,2.55,10.06,4.19,14.98,1.86,5.61,3.96,11.15,6.05,16.68.56,1.49,2.98.84,2.41-.66h0Z"/>
    <path class="cls-2" d="m190.02,230.52c.53,11.18,2.5,22.28,5.95,32.93s8.64,21.43,13.28,31.97c2.72,6.17,5.43,12.34,8.15,18.5.65,1.47,2.8.2,2.16-1.26-4.67-10.6-9.34-21.2-14-31.8-4.52-10.27-8.5-20.62-10.73-31.65-1.25-6.16-2-12.41-2.3-18.69-.08-1.6-2.58-1.61-2.5,0h0Z"/>
    <path class="cls-2" d="m192.35,232.22c6.76,2.2,11.66,7.75,17.92,10.91,3.55,1.8,7.25,2.22,11.11,2.95,3.71.7,7.13,2.22,10.29,4.26s6,4.54,8.72,7.12c1.36,1.29,2.7,2.62,4.04,3.94s2.57,2.71,4.38,3.34,3.73.87,5.55,1.38c1.93.54,3.83,1.17,5.7,1.88,3.78,1.44,7.43,3.21,10.97,5.16,7.99,4.42,15.39,9.81,22.74,15.2,1.3.95,2.55-1.22,1.26-2.16-12.94-9.48-26.44-19.28-42.3-23.09-.89-.21-1.79-.37-2.68-.61-1.16-.31-1.89-.93-2.73-1.75-1.34-1.31-2.66-2.64-4.01-3.94-2.67-2.59-5.43-5.09-8.45-7.29s-6.15-3.93-9.62-5.05c-3.87-1.24-8.03-1.2-11.84-2.65-7.46-2.85-12.74-9.52-20.42-12.02-1.53-.5-2.19,1.91-.66,2.41h0Z"/>
    <path class="cls-2" d="m241.93,179.43c-1.93,4.78-5.7,8.48-9.47,11.87-4.38,3.93-8.84,7.78-13.27,11.67-9.17,8.06-18.35,16.12-27.52,24.17-4.28,3.76-8.55,7.45-12.38,11.68-1.81,2-3.74,3.41-6.42,3.99-2.54.54-5.21.41-7.79.29-12.11-.56-23.69-3.46-35.28-6.83-2.87-.83-5.85-1.57-8.48-3.01-2.28-1.25-4.1-3.06-5.43-5.29-2.62-4.39-3.41-9.67-4.07-14.66-.21-1.57-2.71-1.59-2.5,0,.63,4.73,1.36,9.49,3.34,13.87,2.1,4.62,5.68,7.79,10.39,9.59,2.66,1.02,5.45,1.73,8.19,2.52,3.11.9,6.23,1.77,9.37,2.56,6.03,1.52,12.14,2.68,18.34,3.3,3.08.31,6.19.53,9.28.54,2.58,0,5.24-.21,7.65-1.19,2.56-1.05,4.33-2.96,6.14-4.98,1.96-2.17,4.1-4.15,6.29-6.09,9.6-8.5,19.28-16.94,28.91-25.4,5.36-4.71,10.74-9.41,16.09-14.14,4.46-3.95,8.76-8.17,11.04-13.79.6-1.49-1.81-2.14-2.41-.66h0Z"/>
    <path class="cls-2" d="m72.62,303.89c16.35-15.07,23.18-36.79,32.13-56.46,2.7-5.93,5.65-11.76,9.15-17.27.86-1.36-1.3-2.62-2.16-1.26-11.92,18.81-17.2,40.98-29.46,59.6-3.27,4.97-7.04,9.58-11.42,13.62-1.19,1.09.59,2.86,1.77,1.77h0Z"/>
    <path class="cls-2" d="m44.18,279.67c4.87-3.73,9.74-7.46,14.61-11.18,4.72-3.61,9.51-7.15,13.9-11.16,4.15-3.78,7.87-8.03,12.27-11.53,4.46-3.55,9.39-6.38,13.68-10.17s8.43-8.04,13.59-10.79c1.42-.76.16-2.92-1.26-2.16-4.54,2.42-8.32,5.94-12.1,9.38-1.93,1.76-3.88,3.51-5.98,5.08-2.36,1.75-4.85,3.32-7.23,5.03-4.56,3.27-8.4,7.3-12.41,11.2-4.36,4.23-9.16,7.94-13.98,11.63-5.46,4.17-10.91,8.35-16.37,12.52-1.26.96-.02,3.14,1.26,2.16h0Z"/>
    <path class="cls-2" d="m32.29,262.18c11.56-2.58,21.28-9.69,30.48-16.81s19.13-15.03,29.46-21.46c5.84-3.64,11.92-6.89,18.31-9.46,1.47-.59.83-3.01-.66-2.41-11.28,4.53-21.56,11.04-31.36,18.18s-18.72,15.03-28.79,21.51c-5.59,3.6-11.58,6.57-18.11,8.03-1.57.35-.91,2.76.66,2.41h0Z"/>
    <path class="cls-2" d="m46.7,256.05c8.6,9.29,17.2,18.57,25.8,27.86l6.41,6.92c1.86,2.01,3.66,4.16,5.89,5.78s5.07,2.54,7.64,3.57c2.82,1.13,5.64,2.24,8.48,3.32,11.25,4.25,22.81,7.83,34.81,9.12,5.94.64,11.96.7,17.89-.04s11.51-2.3,17.07-4.23c6.34-2.2,12.57-4.71,19.03-6.54s13.29-3.16,20.07-3.88c1.58-.17,1.6-2.67,0-2.5-5.91.63-11.78,1.65-17.54,3.11s-11.07,3.35-16.52,5.35-11.1,4.06-16.88,5.3c-5.73,1.23-11.62,1.61-17.47,1.36-12.04-.51-23.78-3.69-35.08-7.72-5.6-2-11.15-4.16-16.64-6.45-2.62-1.09-4.62-2.64-6.56-4.7-2.06-2.19-4.09-4.41-6.13-6.62-9.5-10.26-19-20.52-28.5-30.78-1.1-1.18-2.86.59-1.77,1.77h0Z"/>
    <path class="cls-2" d="m62.25,247.24c8.3,7.03,16.6,14.06,24.9,21.09,3.79,3.21,7.55,6.54,11.75,9.21,4.02,2.56,8.46,4.39,12.96,5.89,4.76,1.58,9.63,2.87,14.48,4.15s10.05,2.49,15.19,3.13c10.33,1.28,20.91.7,31.27-.02s21.27-2.35,30.56-7.68c1.4-.8.14-2.96-1.26-2.16-8.13,4.66-17.46,6.36-26.69,7.14-9.84.83-19.92,1.36-29.78.62s-20.03-3.64-29.71-6.53c-4.49-1.34-8.94-2.9-13.08-5.13s-8.01-5.38-11.7-8.51c-9.05-7.66-18.08-15.32-27.13-22.98-1.22-1.03-3,.73-1.77,1.77h0Z"/>
    <path class="cls-2" d="m74.61,236.58c6.96,5.24,13.87,10.56,20.9,15.71,3.32,2.43,6.73,4.76,10.43,6.58s7.54,3.16,11.43,4.43c8.3,2.7,16.67,5.23,25.11,7.47,8.26,2.2,16.83,3.99,25.43,3.37,9.43-.69,18.23-4.3,26.86-7.91,1.46-.61.82-3.03-.66-2.41-7.44,3.11-15.01,6.29-23.04,7.48-8.58,1.27-17.24-.22-25.56-2.32s-16.4-4.56-24.5-7.13c-3.93-1.25-7.89-2.49-11.68-4.14s-7.19-3.75-10.51-6.09c-7.8-5.5-15.31-11.44-22.94-17.18-1.29-.97-2.53,1.2-1.26,2.16h0Z"/>
    <path class="cls-2" d="m96.25,222.39c2.3,6.55,7.02,11.66,12.45,15.83,5.94,4.56,12.61,8.32,19.3,11.64,13.61,6.77,28.77,11.09,44.03,8.5,7.85-1.33,15.31-4.54,21.41-9.7,1.23-1.04-.55-2.8-1.77-1.77-10.45,8.85-25.1,11.19-38.33,9-7.44-1.23-14.63-3.73-21.45-6.92-6.53-3.06-12.93-6.63-18.88-10.71-6.07-4.16-11.84-9.42-14.34-16.53-.53-1.51-2.95-.86-2.41.66h0Z"/>
    <path class="cls-2" d="m195.13,249.41c5.41.48,10.97-2.78,13.15-7.76.27-.62.18-1.34-.45-1.71-.53-.31-1.44-.17-1.71.45-1.87,4.26-6.36,6.94-10.99,6.52-.67-.06-1.25.62-1.25,1.25,0,.73.57,1.19,1.25,1.25h0Z"/>
    <path class="cls-2" d="m197.77,264.74c6.3.62,12.72-1.48,18.21-4.45,5-2.71,9.46-6.99,10.59-12.76.31-1.57-2.1-2.24-2.41-.66-1.05,5.34-5.19,9.04-9.82,11.47-5.05,2.65-10.82,4.47-16.57,3.91-1.6-.16-1.59,2.34,0,2.5h0Z"/>
    <path class="cls-2" d="m205.7,281.61c2.98-2.32,5.99-4.64,9.23-6.6,3.42-2.06,6.98-3.43,10.84-4.38,3.52-.86,7.2-1.68,10.23-3.79,1.4-.98,2.56-2.16,3.51-3.58,1.05-1.56,1.85-3.27,3.13-4.67,1.09-1.18-.68-2.96-1.77-1.77-2.43,2.65-3.49,6.18-6.64,8.18s-7.22,2.67-10.92,3.66c-7.39,1.98-13.44,6.54-19.38,11.17-1.27.99.51,2.75,1.77,1.77h0Z"/>
    <path class="cls-2" d="m211.88,295.14c3.99-5.91,8.3-11.91,15.46-14.05,3.74-1.11,7.64-1.56,11.38-2.65s7.03-2.44,10.32-4.16c1.92-1,3.78-2.11,5.57-3.33,1.57-1.07,3.09-2.17,3.71-4.05.5-1.53-1.91-2.19-2.41-.66-.54,1.63-2.64,2.64-4.01,3.51-1.58,1.01-3.22,1.93-4.89,2.77-3.39,1.7-6.95,3.02-10.62,3.97-3.64.94-7.42,1.34-10.97,2.6-3.27,1.16-6.11,3.1-8.55,5.55-2.75,2.76-4.97,6.01-7.15,9.23-.9,1.34,1.26,2.59,2.16,1.26h0Z"/>
    <path class="cls-2" d="m216.98,306.37c3.14-2,6.73-2.95,10.15-4.34,1.71-.69,3.4-1.47,4.91-2.55,1.6-1.15,2.85-2.58,4.11-4.08,5.26-6.28,13.13-8.64,20.09-12.46,4.55-2.49,8.8-5.49,13.03-8.48,1.3-.92.06-3.09-1.26-2.16-3.72,2.63-7.45,5.26-11.39,7.56-3.58,2.08-7.37,3.71-11.07,5.55-3.42,1.7-6.77,3.66-9.49,6.37-1.45,1.44-2.59,3.16-4.08,4.56-1.37,1.29-3.05,2.21-4.76,2.97-3.82,1.69-7.94,2.63-11.49,4.9-1.35.86-.1,3.03,1.26,2.16h0Z"/>
    <path class="cls-2" d="m252.56,302.4c6.71-10,16.5-17.82,27.75-22.13,1.49-.57.84-2.99-.66-2.41-11.89,4.56-22.14,12.7-29.25,23.28-.9,1.34,1.27,2.59,2.16,1.26h0Z"/>
    <path class="cls-2" d="m310.48,156.5c-6.22,6.31-12.56,12.5-19.03,18.56-6.25,5.85-12.52,11.76-19.17,17.15-3.64,2.95-7.52,5.6-11.77,7.58-.87.4-.76,1.72,0,2.16,22.62,12.93,45.66,24.99,68.91,36.74,5.46,2.76,12.05,6.82,11.85,13.8-.05,1.61,2.45,1.61,2.5,0,.17-5.84-3.93-10.47-8.59-13.45-2.61-1.67-5.45-2.97-8.22-4.36-3.05-1.52-6.09-3.06-9.12-4.6-12.14-6.18-24.18-12.55-36.12-19.11-6.68-3.67-13.33-7.39-19.95-11.18v2.16c7.55-3.51,13.81-9.12,19.97-14.62,6.67-5.96,13.21-12.05,19.63-18.27,3.67-3.56,7.29-7.16,10.88-10.8,1.13-1.15-.64-2.92-1.77-1.77h0Z"/>
    <path class="cls-2" d="m274.12,207.62c13.61-10.83,26.64-22.39,39-34.63,3.53-3.5,7.01-7.05,10.43-10.65,1.11-1.17-.66-2.94-1.77-1.77-11.98,12.61-24.64,24.58-37.91,35.82-3.79,3.21-7.64,6.36-11.52,9.46-1.26,1,.52,2.76,1.77,1.77h0Z"/>
    <path class="cls-2" d="m284.9,213.55c7.08-4.54,13.24-10.28,19.19-16.19,6.55-6.5,13.03-13.06,19.55-19.59,3.75-3.76,7.51-7.53,11.26-11.29,1.14-1.14-.63-2.91-1.77-1.77-6.51,6.53-13.02,13.05-19.53,19.58s-12.23,12.56-18.74,18.41c-3.53,3.17-7.23,6.12-11.22,8.68-1.35.87-.1,3.03,1.26,2.16h0Z"/>
    <path class="cls-2" d="m308.62,226.34c13.59-12.81,26.29-26.56,37.97-41.13,3.32-4.14,6.56-8.35,9.72-12.62.96-1.29-1.21-2.54-2.16-1.26-11.05,14.92-23.14,29.07-36.15,42.32-3.65,3.71-7.37,7.35-11.15,10.92-1.17,1.11.6,2.87,1.77,1.77h0Z"/>
    <path class="cls-2" d="m320.13,231.91c12.77-13.59,24.82-27.86,36.09-42.72,3.2-4.22,6.33-8.49,9.41-12.81.93-1.31-1.23-2.56-2.16-1.26-10.74,15.09-22.27,29.6-34.55,43.46-3.46,3.91-6.98,7.76-10.56,11.57-1.1,1.17.66,2.94,1.77,1.77h0Z"/>
    <path class="cls-2" d="m334.06,238.31c12.34-10.99,23.36-23.42,32.81-36.98,2.71-3.89,5.28-7.88,7.72-11.94.83-1.38-1.33-2.64-2.16-1.26-8.44,14.05-18.5,27.08-29.99,38.77-3.27,3.33-6.66,6.54-10.15,9.65-1.2,1.07.57,2.84,1.77,1.77h0Z"/>
    <path class="cls-2" d="m379.61,192.89c-4.96,7.04-9.52,14.34-14.07,21.65s-8.54,14.17-10.42,22.22c-1.05,4.48-1.31,9.07-.56,13.62.26,1.58,2.67.91,2.41-.66-1.31-7.96,1.04-16,4.54-23.1,3.55-7.2,8.09-13.94,12.4-20.7,2.54-3.98,5.14-7.92,7.86-11.77.93-1.32-1.24-2.57-2.16-1.26h0Z"/>
    <path class="cls-2" d="m386.63,211.37c-1.69,3.29-4.21,6.04-6.16,9.16s-3.36,6.15-4.53,9.45c-2.35,6.63-3.22,13.78-2.54,20.78.16,1.59,2.66,1.6,2.5,0-.67-6.81.17-13.66,2.45-20.12,1.14-3.23,2.66-6.32,4.5-9.21s4.31-5.64,5.94-8.8c.73-1.43-1.42-2.69-2.16-1.26h0Z"/>
    <path class="cls-2" d="m234.85,194.42c6.46,1.37,10.98,6.52,15.61,10.82,5.24,4.87,11.27,8.67,17.48,12.17,13.63,7.66,27.22,15.32,40.46,23.63,7.56,4.75,15.03,9.64,22.41,14.67,1.33.91,2.59-1.26,1.26-2.16-13.18-8.98-26.65-17.52-40.4-25.6-6.78-3.98-13.65-7.81-20.53-11.62-6.46-3.58-12.87-7.34-18.35-12.34-5.17-4.72-10.12-10.47-17.29-11.99-1.57-.33-2.24,2.08-.66,2.41h0Z"/>
    <path class="cls-2" d="m225.64,202.71c11.28,10.01,22.64,20.07,35.31,28.33,6.42,4.19,13.15,7.67,20.15,10.78,3.5,1.56,7.01,3.16,10.21,5.29,2.8,1.86,5.33,4.08,7.78,6.36,5.49,5.11,10.75,10.69,17.59,14,1.44.7,2.71-1.46,1.26-2.16-6.06-2.93-10.83-7.69-15.65-12.26-2.41-2.28-4.85-4.51-7.5-6.52-2.95-2.24-6.18-4-9.53-5.56s-6.9-3.03-10.27-4.72-6.62-3.52-9.81-5.49c-6.43-3.97-12.53-8.46-18.42-13.2-6.63-5.34-13-10.98-19.37-16.63-1.2-1.06-2.97.7-1.77,1.77h0Z"/>
    <path class="cls-2" d="m200.45,232.33c5.98-3.77,11.95-7.54,17.93-11.31,5.24-3.31,10.98-6.42,14.93-11.32,1-1.24-.76-3.02-1.77-1.77-3.92,4.86-9.63,7.91-14.84,11.19l-17.51,11.05c-1.36.86-.1,3.02,1.26,2.16h0Z"/>
    <path class="cls-2" d="m209.52,240.99c11.4-6.7,16.95-20.46,29.21-25.89,1.47-.65.2-2.8-1.26-2.16-12.33,5.45-17.81,19.19-29.21,25.89-1.39.81-.13,2.98,1.26,2.16h0Z"/>
    <path class="cls-2" d="m225.5,244.78c6.29-8.11,12.88-15.99,19.75-23.62,1.07-1.19-.69-2.97-1.77-1.77-6.87,7.63-13.46,15.5-19.75,23.62-.97,1.26.78,3.04,1.77,1.77h0Z"/>
    <path class="cls-2" d="m244.04,255.38c-.28-10.6,6.67-19.21,13.99-26.08,1.18-1.1-.6-2.87-1.77-1.77-7.8,7.33-15.02,16.59-14.72,27.85.04,1.61,2.54,1.61,2.5,0h0Z"/>
    <path class="cls-2" d="m49.36,250.52c-1.83-22.7-2.56-45.49-2.17-68.27.09-5.52-.02-11.16.82-16.63s3.19-10.1,5.72-14.87c5.11-9.61,10.69-18.96,16.73-28.01,4.9-7.34,10.19-15.83,18.56-19.59,1.53-.69,4.53-2.06,6.14-.98,1.71,1.15.31,4.74-.18,6.24-1.35,4.19-3.73,7.97-6.26,11.54s-5.5,7.23-8.01,11.02c-2.74,4.12-4.77,8.58-6.76,13.09s-4.06,9.04-6.97,13.08-6.07,7.54-7.25,12.32c-1.28,5.21-.81,10.91-.87,16.24-.06,5.63-.12,11.26-.18,16.89-.12,11.43-.25,22.85-.37,34.28-.03,2.82-.06,5.63-.09,8.45-.02,1.61,2.48,1.61,2.5,0,.13-11.76.25-23.52.38-35.27.06-5.96.13-11.92.19-17.88s-.04-11.44.22-17.14c.13-2.77.53-5.52,1.75-8.04,1.1-2.25,2.61-4.25,4.11-6.23,3.09-4.08,5.54-8.35,7.65-13.01s4.11-9.59,6.88-14.02c2.44-3.91,5.34-7.5,8.05-11.22s5.27-7.63,6.93-11.97c1.26-3.29,3.27-9.74-1.68-11.01-2.07-.53-4.38.22-6.29.98-2.08.83-4.02,1.94-5.81,3.28-3.63,2.72-6.6,6.16-9.3,9.78-6.48,8.68-12.2,18.03-17.56,27.43-2.75,4.83-5.56,9.71-7.86,14.77s-3.16,10.28-3.42,15.78c-.55,11.66-.48,23.38-.27,35.05s.71,23.51,1.52,35.25c.2,2.89.41,5.78.65,8.67.13,1.59,2.63,1.61,2.5,0h0Z"/>
    <path class="cls-2" d="m99.62,110.14c.77-1.08,2.27-1,3.37-.56,1.48.59,2.41,1.81,2.66,3.37.69,4.32-2.73,8.86-5,12.21-2.5,3.69-5.26,7.2-7.79,10.87s-4.77,7.68-6.71,11.79-3.61,8.28-5.26,12.48c-1.75,4.45-3.58,8.91-4.71,13.56s-1.44,9.27-1.64,13.95c-.21,4.92-.38,9.83-.57,14.75-.43,11.23-.85,22.45-1.28,33.68-.06,1.61,2.44,1.61,2.5,0,.4-10.57.8-21.13,1.21-31.7.2-5.34.4-10.68.61-16.02s.54-10.19,1.87-15.14,3.24-9.47,5.08-14.11,3.69-9.09,5.94-13.45,4.85-8.26,7.68-12.15,5.69-7.63,8.03-11.77c2.1-3.72,4.2-9.27.81-12.92-2.38-2.56-6.8-3.17-8.99-.1-.94,1.31,1.23,2.56,2.16,1.26h0Z"/>
    <path class="cls-2" d="m111.05,113.75c3.65-.8,7.56,1.08,9,4.59.71,1.73.79,3.71.22,5.49-.65,2.01-2.13,3.62-3.51,5.16-5.38,5.99-10.37,12.32-14.7,19.12-8.5,13.35-14.49,28.57-15.17,44.51-.45,10.61,1.52,21.14,1.19,31.75-.05,1.61,2.45,1.61,2.5,0,.31-9.92-1.39-19.76-1.24-29.67.12-8.42,1.8-16.73,4.62-24.66s6.78-15.42,11.41-22.43c2.33-3.52,4.82-6.92,7.47-10.2s5.77-6.25,8.2-9.68,2.89-8.48.33-12.19-6.83-5.1-10.97-4.19c-1.57.34-.91,2.76.66,2.41h0Z"/>
    <path class="cls-2" d="m124.39,124.18c1.56-.92,3.41-2.01,5.3-1.9,1.68.1,2.67,1.34,3.07,2.88.74,2.88-.25,6.27-1.47,8.89-2.69,5.8-7.54,10.26-11.93,14.78-4.95,5.11-9.18,10.58-12.08,17.13-3.08,6.95-4.79,14.38-5.65,21.91-1.1,9.72-.76,19.53-.42,29.28.06,1.6,2.56,1.61,2.5,0-.6-17.19-1.22-35.34,6.34-51.28,1.69-3.56,3.76-6.96,6.27-10.01,2.18-2.64,4.6-5.06,6.99-7.51,4.56-4.67,9.33-9.67,11.3-16.06.99-3.22,1.55-7.39-.61-10.28-2.81-3.76-7.58-1.92-10.88.01-1.39.81-.13,2.97,1.26,2.16h0Z"/>
    <path class="cls-2" d="m136.7,128.07c1.71-.6,3.49-1.18,5.32-1.16,2.09.02,3.27,1.11,4.32,2.82,2.27,3.66,5.31,6.68,8.27,9.77,1.67,1.74,3.34,3.49,5.01,5.23.81.84,1.61,1.68,2.42,2.53s1.57,1.85,2.51,2.52c1.66,1.19,3.74,0,5.4-.69,1.91-.8,3.77-1.71,5.55-2.77s3.47-2.25,5.09-3.54c1.52-1.21,3.16-2.84,5.19-3.07s4.44,1,6.37,1.71c2.12.78,4.24,1.59,6.3,2.53,4.09,1.87,7.71,4.38,11.34,7.02s7.3,5.38,10.74,8.34c7.61,6.55,14.4,13.96,21.18,21.35,1.09,1.19,2.85-.58,1.77-1.77-6.21-6.77-12.43-13.55-19.28-19.68-3.4-3.04-6.97-5.86-10.64-8.57s-7.44-5.63-11.57-7.76-8.18-3.63-12.38-5.04c-2.02-.68-4.05-.91-6.06-.07-1.85.78-3.33,2.16-4.89,3.38-3.47,2.73-7.43,4.93-11.6,6.39-.49.17-.75.33-1.2.07s-.83-.86-1.18-1.23c-.92-.96-1.84-1.93-2.77-2.89-1.67-1.74-3.34-3.49-5.01-5.23-1.82-1.9-3.69-3.77-5.42-5.75-1.54-1.76-2.6-3.81-4.05-5.62-2.86-3.58-7.65-2.56-11.4-1.25-1.51.53-.86,2.94.66,2.41h0Z"/>
    <path class="cls-2" d="m148.54,135.31c-8.47,7.02-15.72,15.51-21.29,25-1.5,2.56-2.88,5.2-3.97,7.97s-1.79,5.86-3.08,8.64c-1.21,2.59-2.84,4.96-4.1,7.52s-2.27,5.2-3.17,7.89c-2.14,6.36-4.73,13.23-4.17,20.04.13,1.59,2.63,1.61,2.5,0-.5-5.98,1.64-11.82,3.44-17.43.87-2.71,1.79-5.41,2.98-8s2.75-5.01,4.08-7.55,2.17-5.3,3.08-8.04,2.07-5.28,3.44-7.79c2.66-4.84,5.79-9.45,9.3-13.72,3.82-4.66,8.1-8.92,12.74-12.77,1.24-1.03-.54-2.79-1.77-1.77h0Z"/>
    <path class="cls-2" d="m157.19,144.4c-15.33,20.17-28.53,42.9-32.02,68.38-.99,7.26-1.18,14.6-.38,21.88.17,1.58,2.67,1.6,2.5,0-2.79-25.56,6.56-50.41,20-71.73,3.75-5.94,7.82-11.68,12.07-17.27.97-1.28-1.2-2.53-2.16-1.26h0Z"/>
    <path class="cls-2" d="m165.92,149.26c-8.07,23.26-13.24,47.51-15.36,72.04-.6,6.93-.95,13.88-1.07,20.84-.03,1.61,2.47,1.61,2.5,0,.4-24.4,3.82-48.72,10.19-72.28,1.82-6.72,3.87-13.36,6.15-19.94.53-1.52-1.89-2.18-2.41-.66h0Z"/>
    <path class="cls-2" d="m170.47,149.72c1,11.48,4.76,22.46,6.16,33.87.72,5.88.59,11.82.53,17.72s-.23,12.01-.49,18.01c-.3,6.91-.73,13.8-1.28,20.69-.13,1.6,2.37,1.6,2.5,0,.97-12.14,1.56-24.31,1.74-36.49.09-5.94.29-11.94-.27-17.87-.53-5.6-1.69-11.11-2.9-16.59-1.42-6.41-2.91-12.81-3.48-19.36-.14-1.59-2.64-1.61-2.5,0h0Z"/>
    <path class="cls-2" d="m180.36,144.12c2.37,9.96,6.46,19.37,9.93,28.97,1.72,4.76,3.29,9.58,4.39,14.53,1.15,5.2,1.48,10.34,1.55,15.64.04,3.17.33,6.25,1,9.35s1.4,6.12,1.02,9.29c-.19,1.59,2.31,1.58,2.5,0,.65-5.54-1.75-10.94-1.97-16.46-.11-2.78-.02-5.57-.2-8.35-.17-2.55-.5-5.1-.97-7.61-1.88-10.16-5.94-19.74-9.54-29.37-2.04-5.46-3.95-10.98-5.3-16.66-.37-1.56-2.78-.9-2.41.66h0Z"/>
    <path class="cls-2" d="m202.96,147.85c2.65,3.75,4.83,7.81,6.4,12.13s2.56,8.7,3.56,13.11c1.05,4.66,2.1,9.32,3.11,13.99.52,2.41,1.04,4.83,1.53,7.25s.9,4.92.37,7.39c-.34,1.57,2.07,2.24,2.41.66,1.03-4.79-.59-9.84-1.59-14.52-1.07-5-2.2-9.99-3.32-14.98-1.06-4.72-2.13-9.47-3.83-14.01s-3.8-8.49-6.49-12.29c-.92-1.3-3.09-.06-2.16,1.26h0Z"/>
    <path class="cls-2" d="m272.28,189.38c-3.86-5.29-7.74-10.6-12.08-15.52-2.15-2.43-4.53-4.59-6.78-6.91-2.09-2.15-2.25-5.04-1.14-7.74,2.56-6.25,9.63-8.3,15.8-7.69,3.27.32,6.64,1.13,9.55,2.7,1.29.69,2.48,1.54,3.76,2.24,1.43.79,2.97,1.38,4.52,1.88,3.52,1.12,7.14,1.91,10.53,3.41,3.08,1.37,5.77,3.83,9.22,4.16,1.6.15,1.59-2.35,0-2.5s-3.07-1.13-4.46-1.96c-1.49-.9-3.02-1.67-4.63-2.33-3.18-1.31-6.51-2.09-9.79-3.12-1.72-.54-3.34-1.21-4.89-2.13s-2.97-1.86-4.59-2.57c-3.05-1.33-6.36-2.04-9.67-2.31-6.47-.53-13.34,1.74-16.8,7.57-1.47,2.48-2.23,5.6-1.44,8.43.85,3.02,3.57,4.91,5.67,7.04,5.62,5.7,10.36,12.17,15.06,18.62.94,1.29,3.11.04,2.16-1.26h0Z"/>
    <path class="cls-2" d="m243.89,177.33c-.23-3.92.69-7.7,1.49-11.51s1.25-7.72,1.27-11.65-.27-7.88-.67-11.8c-.34-3.31-.92-6.64-2.81-9.45-.89-1.33-3.06-.08-2.16,1.26,1.88,2.79,2.29,6.13,2.59,9.41.34,3.84.61,7.69.54,11.54s-.64,7.61-1.46,11.39c-.77,3.56-1.51,7.15-1.29,10.81.1,1.6,2.6,1.61,2.5,0h0Z"/>
    <path class="cls-2" d="m226.59,159.4c.94-11.1.08-22.3-2.5-33.13-.37-1.56-2.78-.9-2.41.66,2.53,10.63,3.33,21.58,2.41,32.47-.14,1.6,2.37,1.59,2.5,0h0Z"/>
    <path class="cls-2" d="m202.77,120.85c.35,7.38.7,14.87-1.21,22.08-.41,1.56,2,2.22,2.41.66,1.96-7.43,1.66-15.14,1.3-22.75-.08-1.6-2.58-1.61-2.5,0h0Z"/>
    <path class="cls-2" d="m177.58,112.01c3.1,2.72,4.37,7.22,5.58,11.02,1.4,4.39,2.42,8.9,3.03,13.47.21,1.57,2.71,1.59,2.5,0-.66-4.95-1.72-9.83-3.27-14.58-1.33-4.07-2.76-8.76-6.08-11.67-1.2-1.06-2.98.7-1.77,1.77h0Z"/>
    <path class="cls-2" d="m144.86,123.53c-.63-1.48.82-3.12,1.52-4.29s1.14-2.38,1.28-3.72c.33-3.08-.88-6.02-2.28-8.69-1.5-2.87-2.94-5.58-3.53-8.81s-.52-6.52-.47-9.77c.02-1.61-2.48-1.61-2.5,0-.05,3.27-.06,6.54.45,9.77s1.88,6.29,3.47,9.27c1.48,2.76,3.19,6.13,2.08,9.32-.49,1.42-1.57,2.56-2.16,3.95s-.64,2.81-.04,4.23,2.79.2,2.16-1.26h0Z"/>
    <path class="cls-2" d="m51.01,34.02c10.4,11.7,20.88,23.46,33.3,33.07,3.14,2.43,6.38,4.74,9.55,7.14s6.23,5.11,9.33,7.7c5.68,4.73,12.52,7.63,18.43,12.06s11.86,9.59,19.33,11.4c1.56.38,2.23-2.03.66-2.41-6.51-1.57-11.78-5.84-16.99-9.82-2.67-2.05-5.38-4.04-8.3-5.73-3.39-1.96-6.88-3.69-9.96-6.12s-5.76-4.96-8.74-7.31-6.32-4.74-9.48-7.11c-6.25-4.68-12.07-9.87-17.59-15.4-6.17-6.18-11.97-12.71-17.77-19.23-1.07-1.21-2.83.57-1.77,1.77h0Z"/>
    <path class="cls-2" d="m40.71,46.47c3.41,6.53,8.8,11.62,14.27,16.41,2.82,2.47,5.68,4.89,8.37,7.49,1.32,1.27,2.59,2.58,3.8,3.95,1.36,1.55,2.53,3.26,3.91,4.79,2.95,3.26,7.06,5.6,10.7,7.98,3.95,2.58,7.96,5.06,12.01,7.47,7.85,4.67,15.75,9.48,24.04,13.35,4.62,2.16,9.41,3.75,14.27,5.29s9.89,3.38,14.61,5.69c1.44.71,2.71-1.45,1.26-2.16-4.05-1.99-8.24-3.68-12.52-5.09s-8.65-2.64-12.85-4.35c-8.32-3.4-16.09-8.18-23.83-12.7s-15.87-9.24-23.14-14.74c-3.32-2.51-5.51-6.13-8.36-9.12-2.54-2.66-5.3-5.09-8.07-7.51-6.13-5.34-12.5-10.71-16.32-18.03-.75-1.43-2.9-.16-2.16,1.26h0Z"/>
    <path class="cls-2" d="m34.6,62c7.33,5.85,14.44,11.98,21.3,18.38,6.04,5.64,11.83,11.63,18.61,16.41,3.69,2.61,7.68,4.77,11.97,6.23,1.53.52,2.18-1.89.66-2.41-7.54-2.57-13.89-7.52-19.72-12.81-6.37-5.79-12.48-11.84-18.97-17.49-3.96-3.45-7.99-6.8-12.09-10.08-1.25-.99-3.03.76-1.77,1.77h0Z"/>
    <path class="cls-2" d="m76.48,4.43c-1.47,17.77-.87,35.66,1.71,53.3.23,1.59,2.64.91,2.41-.66-2.55-17.41-3.07-35.1-1.62-52.64.13-1.6-2.37-1.59-2.5,0h0Z"/>
    <path class="cls-2" d="m90.89,4.81c-2.26,18.18-1.71,36.65,1.58,54.66.94,5.14,2.11,10.22,3.49,15.26.43,1.55,2.84.89,2.41-.66-4.81-17.53-6.92-35.73-6.23-53.89.2-5.14.62-10.26,1.25-15.36.2-1.59-2.3-1.58-2.5,0h0Z"/>
    <path class="cls-2" d="m106.33,15.07c-1.16,19.1-.06,38.48,3.66,57.26.98,4.93,2.34,9.78,4.7,14.24.75,1.42,2.91.16,2.16-1.26-4.18-7.88-5.3-17.3-6.47-26.03-1.24-9.31-1.9-18.7-1.98-28.09-.05-5.38.1-10.75.43-16.12.1-1.61-2.4-1.6-2.5,0h0Z"/>
    <path class="cls-2" d="m45.57,69.42c-8.31,15.86-13.06,33.2-17.93,50.33-2.6,9.15-5.2,18.31-7.81,27.46s-5.36,18.35-7.57,27.64c-2.42,10.19-4.01,20.57-4.77,31.02-.12,1.61,2.38,1.6,2.5,0,.67-9.24,2.01-18.43,4.02-27.47s4.72-18.16,7.28-27.18,5.16-18.15,7.74-27.22,4.83-17.26,7.56-25.79c3.02-9.44,6.53-18.73,11.14-27.52.75-1.42-1.41-2.69-2.16-1.26h0Z"/>
    <path class="cls-2" d="m42.88,80.5c9.72,11,20.04,21.46,30.93,31.3,1.19,1.08,2.96-.69,1.77-1.77-10.89-9.85-21.22-20.3-30.93-31.3-1.07-1.21-2.83.57-1.77,1.77h0Z"/>
    <path class="cls-2" d="m37.31,95.1c4.62,5.59,9.22,11.19,13.88,16.75s9.05,10.52,14.22,15.15c1.2,1.07,2.97-.69,1.77-1.77-5.17-4.63-9.77-9.84-14.22-15.15s-9.26-11.16-13.88-16.75c-1.03-1.24-2.79.54-1.77,1.77h0Z"/>
    <path class="cls-2" d="m31.91,110.18c3.85,5.27,7.89,10.4,12.12,15.37,3.94,4.62,7.95,9.44,13.2,12.63,1.38.84,2.64-1.32,1.26-2.16-5.05-3.07-8.9-7.8-12.69-12.24-4.1-4.8-8.01-9.76-11.73-14.86-.94-1.29-3.11-.04-2.16,1.26h0Z"/>
    <path class="cls-2" d="m25.54,131.51c4.24,10.45,10.98,19.75,19.7,26.92,1.23,1.01,3.01-.74,1.77-1.77-8.37-6.88-14.98-15.77-19.05-25.82-.6-1.47-3.02-.83-2.41.66h0Z"/>
    <path class="cls-2" d="m18.43,152.89c2.98,5.96,6.65,11.54,10.94,16.64,2.13,2.53,4.41,4.94,6.82,7.2s4.88,4.65,8,5.81c1.51.56,2.16-1.86.66-2.41-2.9-1.07-5.32-3.64-7.51-5.74s-4.45-4.51-6.48-6.94c-4.03-4.85-7.46-10.17-10.28-15.81-.72-1.44-2.88-.17-2.16,1.26h0Z"/>
    <path class="cls-2" d="m12.85,177.12c.77,3.39,3.96,5.96,6.26,8.38,2.68,2.81,5.4,5.59,8.17,8.31,4.64,4.55,9.83,9.04,16.37,10.4,1.57.33,2.24-2.08.66-2.41-6.13-1.27-10.92-5.49-15.27-9.75-2.49-2.44-4.93-4.93-7.34-7.44-1.22-1.28-2.44-2.56-3.64-3.86s-2.41-2.54-2.81-4.29c-.36-1.57-2.77-.9-2.41.66h0Z"/>
    <path class="cls-2" d="m9.79,199.6c4.02,5.5,8.95,10.24,14.66,13.97,2.92,1.91,6.02,3.48,9.22,4.85s6.74,2.78,9.71,4.93c1.31.94,2.56-1.22,1.26-2.16-2.85-2.06-6.09-3.39-9.31-4.76s-6.09-2.77-8.94-4.57c-5.61-3.55-10.54-8.16-14.45-13.52-.94-1.29-3.11-.04-2.16,1.26h0Z"/>
    <path class="cls-2" d="m14.58,229.08c2.53.8,5,1.78,7.37,2.98,2.5,1.26,4.85,2.81,7.36,4.07,4.72,2.37,9.97,3.46,15.25,3.19,1.6-.08,1.61-2.58,0-2.5-5.36.28-10.53-.94-15.24-3.5-2.31-1.26-4.53-2.66-6.91-3.81s-4.71-2.06-7.17-2.83c-1.54-.49-2.2,1.93-.66,2.41h0Z"/>
    <path class="cls-2" d="m55.36,83.17c-5.93,19.38-10.8,39.06-15.48,58.77-4.7,19.79-9.22,39.63-14.47,59.29-2.94,11.02-6.11,21.97-9.65,32.81-.5,1.53,1.91,2.19,2.41.66,6.29-19.26,11.39-38.87,16.16-58.56s9.24-39.64,14.28-59.35c2.82-11.05,5.83-22.05,9.16-32.96.47-1.54-1.94-2.2-2.41-.66h0Z"/>
    <path class="cls-2" d="m70.72,95.25c-3.09,13-6.79,25.85-11.09,38.49-.52,1.53,1.89,2.18,2.41.66,4.3-12.65,8-25.5,11.09-38.49.37-1.56-2.04-2.23-2.41-.66h0Z"/>
    <path class="cls-2" d="m43.39,206.1c-2.08,18.04-4.64,36.02-7.69,53.92-.27,1.57,2.14,2.25,2.41.66,3.09-18.12,5.68-36.32,7.78-54.58.18-1.6-2.32-1.58-2.5,0h0Z"/>
  </g>
  <path class="cls-1" d="m54.76,52.89c.02,2.63-1.41,3.89-2.96,7.2-2.96,6.3-3.2,9.17-4.36,9.14-1.15-.02-1.26-2.84-3.89-8.72-1.69-3.78-3.09-4.87-3.13-7.62-.02-.98-.02-3.22,1.59-5.08,1.88-2.16,4.65-2.27,5.58-2.25.48.01,3.65.14,5.68,2.73,1.45,1.85,1.49,3.89,1.5,4.59Z"/>
  <path class="cls-1" d="m61.15,185.03c.02,2.63-1.41,3.89-2.96,7.2-2.96,6.3-3.2,9.17-4.36,9.14-1.15-.02-1.26-2.84-3.89-8.72-1.69-3.78-3.09-4.87-3.13-7.62-.02-.98-.02-3.22,1.59-5.08,1.88-2.16,4.65-2.27,5.58-2.25.48.01,3.65.14,5.68,2.73,1.45,1.85,1.49,3.89,1.5,4.59Z"/>
  <path class="cls-1" d="m117.08,173.99c.02,2.63-1.41,3.89-2.96,7.2-2.96,6.3-3.2,9.17-4.36,9.14-1.15-.02-1.26-2.84-3.89-8.72-1.69-3.78-3.09-4.87-3.13-7.62-.02-.98-.02-3.22,1.59-5.08,1.88-2.16,4.65-2.27,5.58-2.25.48.01,3.65.14,5.68,2.73,1.45,1.85,1.49,3.89,1.5,4.59Z"/>
  <path class="cls-1" d="m145.69,306.84c.02,2.63-1.41,3.89-2.96,7.2-2.96,6.3-3.2,9.17-4.36,9.14-1.15-.02-1.26-2.84-3.89-8.72-1.69-3.78-3.09-4.87-3.13-7.62-.02-.98-.02-3.22,1.59-5.08,1.88-2.16,4.65-2.27,5.58-2.25.48.01,3.65.14,5.68,2.73,1.45,1.85,1.49,3.89,1.5,4.59Z"/>
  <path class="cls-1" d="m178.9,264.71c.02,2.63-1.41,3.89-2.96,7.2-2.96,6.3-3.2,9.17-4.36,9.14-1.15-.02-1.26-2.84-3.89-8.72-1.69-3.78-3.09-4.87-3.13-7.62-.02-.98-.02-3.22,1.59-5.08,1.88-2.16,4.65-2.27,5.58-2.25.48.01,3.65.14,5.68,2.73,1.45,1.85,1.49,3.89,1.5,4.59Z"/>
  <path class="cls-1" d="m122.95,243.7c.02,2.63-1.41,3.89-2.96,7.2-2.96,6.3-3.2,9.17-4.36,9.14-1.15-.02-1.26-2.84-3.89-8.72-1.69-3.78-3.09-4.87-3.13-7.62-.02-.98-.02-3.22,1.59-5.08,1.88-2.16,4.65-2.27,5.58-2.25.48.01,3.65.14,5.68,2.73,1.45,1.85,1.49,3.89,1.5,4.59Z"/>
  <path class="cls-1" d="m245.27,119.66c.02,2.63-1.41,3.89-2.96,7.2-2.96,6.3-3.2,9.17-4.36,9.14-1.15-.02-1.26-2.84-3.89-8.72-1.69-3.78-3.09-4.87-3.13-7.62-.02-.98-.02-3.22,1.59-5.08,1.88-2.16,4.65-2.27,5.58-2.25.48.01,3.65.14,5.68,2.73,1.45,1.85,1.49,3.89,1.5,4.59Z"/>
  <path class="cls-1" d="m223.52,185.82c.02,2.63-1.41,3.89-2.96,7.2-2.96,6.3-3.2,9.17-4.36,9.14-1.15-.02-1.26-2.84-3.89-8.72-1.69-3.78-3.09-4.87-3.13-7.62-.02-.98-.02-3.22,1.59-5.08,1.88-2.16,4.65-2.27,5.58-2.25.48.01,3.65.14,5.68,2.73,1.45,1.85,1.49,3.89,1.5,4.59Z"/>
  <path class="cls-1" d="m156.81,125.76c.02,2.63-1.41,3.89-2.96,7.2-2.96,6.3-3.2,9.17-4.36,9.14-1.15-.02-1.26-2.84-3.89-8.72-1.69-3.78-3.09-4.87-3.13-7.62-.02-.98-.02-3.22,1.59-5.08,1.88-2.16,4.65-2.27,5.58-2.25.48.01,3.65.14,5.68,2.73,1.45,1.85,1.49,3.89,1.5,4.59Z"/>
  <path class="cls-1" d="m199.86,219.42c.02,2.63-1.41,3.89-2.96,7.2-2.96,6.3-3.2,9.17-4.36,9.14-1.15-.02-1.26-2.84-3.89-8.72-1.69-3.78-3.09-4.87-3.13-7.62-.02-.98-.02-3.22,1.59-5.08,1.88-2.16,4.65-2.27,5.58-2.25.48.01,3.65.14,5.68,2.73,1.45,1.85,1.49,3.89,1.5,4.59Z"/>
  <path class="cls-1" d="m79.1,89.71c.02,2.63-1.41,3.89-2.96,7.2-2.96,6.3-3.2,9.17-4.36,9.14-1.15-.02-1.26-2.84-3.89-8.72-1.69-3.78-3.09-4.87-3.13-7.62-.02-.98-.02-3.22,1.59-5.08,1.88-2.16,4.65-2.27,5.58-2.25.48.01,3.65.14,5.68,2.73,1.45,1.85,1.49,3.89,1.5,4.59Z"/>
  <path class="cls-1" d="m118.79,290c.02,2.63-1.41,3.89-2.96,7.2-2.96,6.3-3.2,9.17-4.36,9.14-1.15-.02-1.26-2.84-3.89-8.72-1.69-3.78-3.09-4.87-3.13-7.62-.02-.98-.02-3.22,1.59-5.08,1.88-2.16,4.65-2.27,5.58-2.25.48.01,3.65.14,5.68,2.73,1.45,1.85,1.49,3.89,1.5,4.59Z"/>
  <path class="cls-1" d="m45.37,132.59c.02,2.63-1.41,3.89-2.96,7.2-2.96,6.3-3.2,9.17-4.36,9.14-1.15-.02-1.26-2.84-3.89-8.72-1.69-3.78-3.09-4.87-3.13-7.62-.02-.98-.02-3.22,1.59-5.08,1.88-2.16,4.65-2.27,5.58-2.25.48.01,3.65.14,5.68,2.73,1.45,1.85,1.49,3.89,1.5,4.59Z"/>
  <path class="cls-1" d="m294.33,197.54c.02,2.63-1.41,3.89-2.96,7.2-2.96,6.3-3.2,9.17-4.36,9.14-1.15-.02-1.26-2.84-3.89-8.72-1.69-3.78-3.09-4.87-3.13-7.62-.02-.98-.02-3.22,1.59-5.08,1.88-2.16,4.65-2.27,5.58-2.25.48.01,3.65.14,5.68,2.73,1.45,1.85,1.49,3.89,1.5,4.59Z"/>
  <path class="cls-1" d="m37.89,81.28c.02,2.63-1.41,3.89-2.96,7.2-2.96,6.3-3.2,9.17-4.36,9.14-1.15-.02-1.26-2.84-3.89-8.72-1.69-3.78-3.09-4.87-3.13-7.62-.02-.98-.02-3.22,1.59-5.08,1.88-2.16,4.65-2.27,5.58-2.25.48.01,3.65.14,5.68,2.73,1.45,1.85,1.49,3.89,1.5,4.59Z"/>
</svg>