<?xml version="1.0" encoding="UTF-8"?>
<svg id="kaartje_tekening" data-name="kaartje tekening" xmlns="http://www.w3.org/2000/svg" viewBox="0 0 830.05 1225.14">
  <defs>
    <style>
      .cls-1 {
        letter-spacing: 0em;
      }

      .cls-2 {
        fill: #9d9f77;
        font-family: BebasNeue-Regular, 'Bebas Neue';
        font-size: 34.65px;
        opacity: .2;
      }

      .cls-3 {
        letter-spacing: 0em;
      }
    </style>
  </defs>
  <g>
    <text class="cls-2" transform="translate(2.56 27.37) rotate(21.68) scale(2.08 1)"><tspan x="0" y="0">abcdefghijklmnopqrstu</tspan><tspan class="cls-3" x="277.84" y="0">v</tspan><tspan class="cls-1" x="291.25" y="0">w</tspan></text>
    <text class="cls-2" transform="translate(170.91 511.27) rotate(21.68) scale(2.08 1)"><tspan x="0" y="0">abcdefghijklmnopqrstu</tspan><tspan class="cls-3" x="277.84" y="0">v</tspan><tspan class="cls-1" x="291.25" y="0">w</tspan></text>
    <text class="cls-2" transform="translate(157.47 469.16) rotate(21.68) scale(2.08 1)"><tspan x="0" y="0">abcdefghijklmnopqrstu</tspan><tspan class="cls-3" x="277.84" y="0">v</tspan><tspan class="cls-1" x="291.25" y="0">w</tspan></text>
    <text class="cls-2" transform="translate(142.18 425.64) rotate(21.68) scale(2.08 1)"><tspan x="0" y="0">abcdefghijklmnopqrstu</tspan><tspan class="cls-3" x="277.84" y="0">v</tspan><tspan class="cls-1" x="291.25" y="0">w</tspan></text>
    <text class="cls-2" transform="translate(126.22 380.78) rotate(21.68) scale(2.08 1)"><tspan x="0" y="0">abcdefghijklmnopqrstu</tspan><tspan class="cls-3" x="277.84" y="0">v</tspan><tspan class="cls-1" x="291.25" y="0">w</tspan></text>
    <text class="cls-2" transform="translate(110.44 337.88) rotate(21.68) scale(2.08 1)"><tspan x="0" y="0">abcdefghijklmnopqrstu</tspan><tspan class="cls-3" x="277.84" y="0">v</tspan><tspan class="cls-1" x="291.25" y="0">w</tspan></text>
    <text class="cls-2" transform="translate(93.65 292.04) rotate(21.68) scale(2.08 1)"><tspan x="0" y="0">abcdefghijklmnopqrstu</tspan><tspan class="cls-3" x="277.84" y="0">v</tspan><tspan class="cls-1" x="291.25" y="0">w</tspan></text>
    <text class="cls-2" transform="translate(77.29 248.19) rotate(21.68) scale(2.08 1)"><tspan x="0" y="0">abcdefghijklmnopqrstu</tspan><tspan class="cls-3" x="277.84" y="0">v</tspan><tspan class="cls-1" x="291.25" y="0">w</tspan></text>
    <text class="cls-2" transform="translate(58.63 201.99) rotate(21.68) scale(2.08 1)"><tspan x="0" y="0">abcdefghijklmnopqrstu</tspan><tspan class="cls-3" x="277.84" y="0">v</tspan><tspan class="cls-1" x="291.25" y="0">w</tspan></text>
    <text class="cls-2" transform="translate(43.08 156.95) rotate(21.68) scale(2.08 1)"><tspan x="0" y="0">abcdefghijklmnopqrstu</tspan><tspan class="cls-3" x="277.84" y="0">v</tspan><tspan class="cls-1" x="291.25" y="0">w</tspan></text>
    <text class="cls-2" transform="translate(24.65 108.1) rotate(21.68) scale(2.08 1)"><tspan x="0" y="0">abcdefghijklmnopqrstu</tspan><tspan class="cls-3" x="277.84" y="0">v</tspan><tspan class="cls-1" x="291.25" y="0">w</tspan></text>
    <text class="cls-2" transform="translate(16.41 66.99) rotate(21.68) scale(2.08 1)"><tspan x="0" y="0">abcdefghijklmnopqrstu</tspan><tspan class="cls-3" x="277.84" y="0">v</tspan><tspan class="cls-1" x="291.25" y="0">w</tspan></text>
  </g>
  <g>
    <text class="cls-2" transform="translate(51.48 496.56) rotate(21.68) scale(2.08 1)"><tspan x="0" y="0">abcdefghijklmnopqrstu</tspan><tspan class="cls-3" x="277.84" y="0">v</tspan><tspan class="cls-1" x="291.25" y="0">w</tspan></text>
    <text class="cls-2" transform="translate(219.84 980.46) rotate(21.68) scale(2.08 1)"><tspan x="0" y="0">abcdefghijklmnopqrstu</tspan><tspan class="cls-3" x="277.84" y="0">v</tspan><tspan class="cls-1" x="291.25" y="0">w</tspan></text>
    <text class="cls-2" transform="translate(206.4 938.35) rotate(21.68) scale(2.08 1)"><tspan x="0" y="0">abcdefghijklmnopqrstu</tspan><tspan class="cls-3" x="277.84" y="0">v</tspan><tspan class="cls-1" x="291.25" y="0">w</tspan></text>
    <text class="cls-2" transform="translate(191.1 894.82) rotate(21.68) scale(2.08 1)"><tspan x="0" y="0">abcdefghijklmnopqrstu</tspan><tspan class="cls-3" x="277.84" y="0">v</tspan><tspan class="cls-1" x="291.25" y="0">w</tspan></text>
    <text class="cls-2" transform="translate(175.15 849.97) rotate(21.68) scale(2.08 1)"><tspan x="0" y="0">abcdefghijklmnopqrstu</tspan><tspan class="cls-3" x="277.84" y="0">v</tspan><tspan class="cls-1" x="291.25" y="0">w</tspan></text>
    <text class="cls-2" transform="translate(159.36 807.07) rotate(21.68) scale(2.08 1)"><tspan x="0" y="0">abcdefghijklmnopqrstu</tspan><tspan class="cls-3" x="277.84" y="0">v</tspan><tspan class="cls-1" x="291.25" y="0">w</tspan></text>
    <text class="cls-2" transform="translate(142.57 761.23) rotate(21.68) scale(2.08 1)"><tspan x="0" y="0">abcdefghijklmnopqrstu</tspan><tspan class="cls-3" x="277.84" y="0">v</tspan><tspan class="cls-1" x="291.25" y="0">w</tspan></text>
    <text class="cls-2" transform="translate(126.21 717.38) rotate(21.68) scale(2.08 1)"><tspan x="0" y="0">abcdefghijklmnopqrstu</tspan><tspan class="cls-3" x="277.84" y="0">v</tspan><tspan class="cls-1" x="291.25" y="0">w</tspan></text>
    <text class="cls-2" transform="translate(107.55 671.18) rotate(21.68) scale(2.08 1)"><tspan x="0" y="0">abcdefghijklmnopqrstu</tspan><tspan class="cls-3" x="277.84" y="0">v</tspan><tspan class="cls-1" x="291.25" y="0">w</tspan></text>
    <text class="cls-2" transform="translate(92 626.14) rotate(21.68) scale(2.08 1)"><tspan x="0" y="0">abcdefghijklmnopqrstu</tspan><tspan class="cls-3" x="277.84" y="0">v</tspan><tspan class="cls-1" x="291.25" y="0">w</tspan></text>
    <text class="cls-2" transform="translate(73.57 577.29) rotate(21.68) scale(2.08 1)"><tspan x="0" y="0">abcdefghijklmnopqrstu</tspan><tspan class="cls-3" x="277.84" y="0">v</tspan><tspan class="cls-1" x="291.25" y="0">w</tspan></text>
    <text class="cls-2" transform="translate(65.34 536.18) rotate(21.68) scale(2.08 1)"><tspan x="0" y="0">abcdefghijklmnopqrstu</tspan><tspan class="cls-3" x="277.84" y="0">v</tspan><tspan class="cls-1" x="291.25" y="0">w</tspan></text>
  </g>
</svg>