<?xml version="1.0" encoding="UTF-8"?>
<svg id="Layer_1" data-name="Layer 1" xmlns="http://www.w3.org/2000/svg" viewBox="0 0 490.13 65.98">
  <defs>
    <style>
      .cls-1 {
        opacity: .6;
      }

      .cls-2 {
        fill: #364024;
        stroke-width: 0px;
      }
    </style>
  </defs>
  <g class="cls-1">
    <path class="cls-2" d="m3.06,50.06c7.39-2.44,13.5-7.09,19.46-11.95s12.41-9.93,19.81-13.19c14.91-6.55,32.12-7.23,47.93-4.06,17.19,3.45,33.15,11.13,48.14,20.03s28.87,20.3,46.2,23.7c36.72,7.2,69.28-15.34,101.76-28.29,33.21-13.24,69.95-15.43,104.86-8.29,8.72,1.79,17.33,4.14,25.75,7.02s16.89,6.33,25.67,8.38c14.01,3.28,30.08,2.54,41.24-7.62,2.43-2.21,4.43-4.87,5.93-7.78s-2.84-5.39-4.32-2.52c-6.78,13.17-23.35,16.31-36.79,14.06-8.74-1.47-17.08-4.6-25.39-7.57s-16.65-5.56-25.21-7.56c-33.97-7.93-70.27-7.51-103.51,3.56-33.39,11.12-64.45,35.37-101.24,32.78-8.86-.62-17.26-3.25-25.09-7.39s-14.82-9.08-22.2-13.65c-14.61-9.05-30.06-17.18-46.7-21.79-15.5-4.3-32.13-5.32-47.82-1.38-7.58,1.91-14.93,5.02-21.42,9.39s-11.92,9.74-18.27,14.09c-3.16,2.17-6.5,4.02-10.15,5.23-3.04,1.01-1.74,5.84,1.33,4.82h0Z"/>
    <path class="cls-2" d="m42.79,18.29c-2.01-1.45-2.84-4.4-2.28-6.66.77-3.08,4.06-5.19,7.04-6.06,3.13-.92,6.74-.81,9.66.76s3.96,4.44,2.05,7.18c-.77,1.11-.2,2.78.9,3.42,1.25.73,2.64.21,3.42-.9,2.32-3.31,2.13-7.94-.34-11.11S56.68.38,52.82.06c-7.5-.63-16.64,3.95-17.43,12.11-.4,4.1,1.58,8.07,4.88,10.44,1.1.79,2.78.19,3.42-.9.74-1.26.2-2.63-.9-3.42h0Z"/>
    <path class="cls-2" d="m123.46,29.08c-3.6.47-7.37,1.66-9.82,4.5-2.77,3.21-3.03,7.52-1.19,11.27s5.55,5.93,9.37,6.89c4.07,1.02,9.17,1.07,12.67-1.57,4.01-3.02,4.49-9.54,2.17-13.72-1.56-2.82-5.88-.3-4.32,2.52.65,1.17.79,2.5.64,3.82-.12,1.09-.42,2.47-1.28,3.23-1.98,1.74-5.51,1.55-7.91,1.05s-4.93-1.55-6.39-3.62-1.64-4.43-.28-6.28c1.25-1.71,4.19-2.8,6.33-3.09,1.34-.18,2.5-1.02,2.5-2.5,0-1.21-1.15-2.68-2.5-2.5h0Z"/>
    <path class="cls-2" d="m198.43,59.62c-2.08-.7-3.77-2.69-3.84-5.06-.08-2.56,1.37-4.46,3.45-5.62s4.93-1.6,7.4-1.11,5.14,1.62,5.74,4.16c.64,2.74.43,6.35-2.11,7.98-1.14.73-1.6,2.22-.9,3.42.66,1.13,2.28,1.63,3.42.9,3.83-2.45,5.28-6.99,4.77-11.37-.27-2.34-.83-4.53-2.53-6.26-1.48-1.5-3.43-2.55-5.42-3.22-7.69-2.58-18.16,1.28-18.8,10.27-.35,4.89,2.97,9.21,7.5,10.73,1.28.43,2.73-.49,3.08-1.75.37-1.36-.46-2.65-1.75-3.08h0Z"/>
    <path class="cls-2" d="m262.89,42.87c-2.01,3.62-3.42,8.37.32,11.45,2.98,2.44,7.6,3.67,11.4,3.69,4.3.02,8.02-1.94,10.75-5.21s4.87-6.87,4.13-11.09-4.56-7.4-8.78-7.88c-1.34-.15-2.5,1.26-2.5,2.5,0,1.48,1.15,2.35,2.5,2.5,2.35.26,4.27,2.92,3.93,5.22-.24,1.61-1.19,3.06-2.12,4.34-.99,1.36-2.18,2.69-3.63,3.55-3,1.78-6.69,1.07-9.78-.08-1.03-.38-2.85-.94-3.22-2.11-.44-1.4.69-3.19,1.33-4.35,1.56-2.82-2.76-5.34-4.32-2.52h0Z"/>
    <path class="cls-2" d="m342.87,18.6c-2.24-1.73-4.38-4.47-3.04-7.25,1.44-2.97,5.18-3.99,8.22-4.22,2.84-.22,6.61.28,7.69,3.32.49,1.39-.17,2.69-1.01,3.96-1,1.52-2.27,2.84-3.65,4.03-1.03.88-.9,2.63,0,3.54,1.02,1.02,2.51.88,3.54,0,2.9-2.48,6-6.07,6.3-10.03s-2.76-7.54-6.34-8.96-7.98-1.09-11.59.07-7.15,3.8-8.25,7.72c-1.22,4.36,1.2,8.75,4.6,11.38,1.07.83,2.5,1.04,3.54,0,.86-.86,1.07-2.7,0-3.54h0Z"/>
    <path class="cls-2" d="m404.97,27.7c-4.02.02-7.93,2.32-9.84,5.88s-1.64,7.87.55,11.18c2.5,3.78,6.7,5.34,11.13,5.15,2.1-.09,4.39-.34,6.35-1.13,2.15-.87,3.66-2.46,4.51-4.6,1.88-4.73-.59-9.4-3.14-13.32-.74-1.13-2.21-1.6-3.42-.9-1.12.66-1.64,2.28-.9,3.42.91,1.4,1.89,2.82,2.52,4.37.26.65.47,1.38.58,2.07.07.43-.02-.31,0,.13,0,.13.02.27.02.4,0,.18,0,.36,0,.54,0,.06-.07.69-.03.47-.14.96-.59,1.92-1.28,2.41-.85.61-2.63.87-3.88,1.01-1.53.16-3.11.22-4.57-.15-1.35-.34-2.25-.91-3.06-1.78-1.52-1.63-2.07-4.02-1.36-6.13.14-.43.09-.3.36-.77.18-.31.37-.63.59-.91-.11.14.4-.42.5-.52.13-.13.26-.25.4-.37.25-.22.09-.09.25-.2,1.27-.92,2.39-1.26,3.72-1.27,3.22-.01,3.22-5.01,0-5h0Z"/>
    <path class="cls-2" d="m37.72,12.43c-.24,1.94-.3,3.88-.18,5.83.17,2.8,4.03,3.41,4.91.66.83-2.59,1.57-5.2,2.21-7.84l-4.82-1.33-1,7.34c-.18,1.34.32,2.68,1.75,3.08,1.25.34,2.79-.42,3.08-1.75l1.95-8.92-4.91-.66-.67,6.06c-.12,1.07.86,2.14,1.84,2.41,1.1.3,2.21-.22,2.82-1.15,1.77-2.69,2.98-5.76,3.5-8.94.2-1.23-.21-2.45-1.45-2.95-1.12-.45-2.51-.09-3.12,1.02-1.12,2.03-2.04,4.2-2.68,6.43-.3,1.07-.54,2.15-.71,3.25-.2,1.28-.54,2.7.16,3.9.78,1.33,2.38,1.74,3.79,1.29,1.16-.38,2.02-1.32,2.83-2.19,1.52-1.62,2.9-3.42,4.06-5.32s3.11-4.66,1.85-6.82c-.78-1.33-2.51-1.89-3.96-1.44-1.18.37-2.14,1.29-2.89,2.23-1.42,1.77-2.51,4.16-2.36,6.48.1,1.55,1.1,2.89,2.64,3.25,1.32.31,2.55-.18,3.72-.73,1.85-.87,3.57-2.14,4.99-3.61s3.67-3.96,3.19-6.23c-.29-1.36-1.37-2.45-2.73-2.77s-2.72.15-3.94.78c-1.87.96-3.49,2.59-4.5,4.42s-1.46,4.28-.37,6.25c1.36,2.46,4.48,2.58,6.68,1.27,1.9-1.13,3.51-3.09,4.18-5.2,1.01-3.15-2.27-4.95-4.96-4.11-2.38.74-4.42,3.42-3.64,5.99,1,3.3,5.46,2.64,7.69,1.18,2.07-1.35,5.58-4.58,3.07-7.09-1.26-1.26-3.33-.87-4.53.26-1.08,1.02-1.55,2.72-1.05,4.13.43,1.19,1.73,2.24,3.08,1.75,2.32-.84,3.52-2.95,3.05-5.38-.24-1.22-1.89-2.22-3.08-1.75-1.88.76-2.82,2.54-2.2,4.53.12.39.33.76.53,1.11.1.16.2.33.29.5l-.12-.47c.01-.31.3-.5-.07-.21-.3.25-.03.06-.38.28-2.55,1.59-5.37,2.75-8.23,3.63-1.29.4-2.11,1.75-1.75,3.08.39,1.42,1.74,1.95,3.08,1.75,1.89-.29,3.73-.76,5.52-1.44,1.35-.51,3.08-1.54,4.47-1.21,1.31.32,2.71-.42,3.08-1.75s-.43-2.76-1.75-3.08c-2.3-.56-4.36.1-6.48.95-1.99.8-4.04,1.37-6.16,1.7l1.33,4.82c3.13-.97,6.2-2.26,9.04-3.91,1.35-.79,2.7-1.89,3.15-3.46.28-1,.15-2.01-.29-2.95-.12-.27-.26-.51-.41-.76-.16-.3-.19-.34-.09-.13.1.47,0,.9-.31,1.27l-1.1.64.19-.08-3.08-1.75c-.08-.4.07-.64.45-.78l3.08,1.75c-.19-.54.03.2-.11.51-.23.54-1.06.79-1.57.61l-1.49-1.15.12.17-.34-1.26c0-.31.64-1.1.1-.63-.15.13-.28.31-.42.46-.28.29-.61.62-.9.84-.23.18-.58.4-.89.54-.41.18.21-.05-.21.07-.05.01-.59.16-.32.08-.22.06-.22-.06-.21.02l1.07,1.51-.03.19c-.03-.09.1-.38,0-.07.04-.13.19-.31.04-.07.07-.1.23-.28.05-.07.32-.37-.04,0,.17-.09.15-.04.15-.04.02-.02-.14.01-.13.02.02.01.15,0,.16,0,.02,0-.27,0-.5-.12-.7-.35l-.64-1.1c-.21-.66.11-.77-.27-.11-.14.25-.29.5-.47.72.09-.13.04-.08-.15.16-.13.14-.26.28-.4.41.04-.04-.63.5-.39.33-.08.05-.7.46-.73.37,0-.01.29.01.34.05.13.06.23.15.31.27.1.26.11.26.02-.03.03.28.03.27.01-.04.02-.27.02-.32-.01-.16-.02.19.13-.51.16-.63-.14.43.19-.37.25-.48.35-.61.53-.84.98-1.3.49-.5.73-.68,1.28-1,.14-.08.6-.34.58-.32.32-.07.4-.1.24-.1-.51-.09-.88-.35-1.13-.78v-1.33c-.12.78-1.19,1.96-1.9,2.69-.99,1.03-1.84,1.68-3.07,2.36-.3.17-.6.32-.91.47-.19.09-.36.14-.36.15.69-.07,1.19.39,1.5,1.36.03-.3.03-.37,0-.21.12-.32.14-.69.25-1.03.16-.53.42-1.04.8-1.57.12-.16.27-.34.47-.54.14-.14.29-.28.44-.42-.32.47-.87.4-1.65-.2l-.64-1.1c-.2-.51.19-.86-.01-.58-.15.21-.23.49-.35.72-.24.48-.49.94-.75,1.41-.5.88-1.04,1.73-1.63,2.55-.52.74-1.1,1.43-1.7,2.11-.36.4-.72.78-1.1,1.16-.05.05-.47.4-.46.45-.03-.1.53-.22.52-.22l1.26.34.19.15.64,1.1c.07.19-.03.32.01.01-.01.07.04-.42.03-.33.05-.44.14-.88.22-1.31.18-.93.41-1.84.68-2.75.51-1.66,1.19-3.23,2.03-4.75l-4.57-1.93c-.46,2.81-1.44,5.37-3,7.75l4.66,1.26.67-6.06c.14-1.22-1.05-2.32-2.17-2.46-1.17-.14-2.47.56-2.74,1.79l-1.95,8.92,4.82,1.33,1-7.34c.18-1.34-.32-2.68-1.75-3.08-1.27-.35-2.76.43-3.08,1.75-.64,2.64-1.38,5.25-2.21,7.84l4.91.66c-.12-1.95-.06-3.89.18-5.83.16-1.34-1.27-2.5-2.5-2.5-1.49,0-2.34,1.15-2.5,2.5h0Z"/>
    <path class="cls-2" d="m114.91,37.9c-.1,2.97.55,5.82,1.74,8.53.84,1.9,4.24,1.46,4.57-.6.43-2.66.64-5.32.53-8.01-.05-1.25-.91-2.29-2.17-2.46-1.11-.15-2.55.56-2.74,1.79-.51,3.33-.87,6.66.76,9.75.49.94,1.81,1.48,2.82,1.15,1.09-.35,1.77-1.27,1.84-2.41.21-3.64.42-7.27.63-10.91h-5c-.05,3.16.68,6.2,2.03,9.05.45.95,1.84,1.47,2.82,1.15,1.09-.35,1.77-1.27,1.84-2.41.14-2.5.28-4.99.43-7.49h-5c.01,1.91.03,3.83.04,5.74s.06,3.93.52,5.85c.24,1.02,1.35,1.88,2.41,1.84s2.24-.73,2.41-1.84c.54-3.48,1.08-6.95,1.63-10.43l-4.91-.66c-.23,1.81-.4,3.63-.49,5.46s-.33,3.91.72,5.51c.56.85,1.46,1.33,2.49,1.19.92-.12,1.88-.83,2.08-1.79.8-3.96,1.32-7.99,1.54-12.02h-5c.36,3.36.89,6.71,1.63,10.01.62,2.77,4.94,2.13,4.91-.66l-.04-3.12c-.01-1.31-1.14-2.56-2.5-2.5-1.5.07-2.32,1.1-2.5,2.5l-.94,7.41c-.16,1.23,1.07,2.31,2.17,2.46,1.16.16,2.49-.57,2.74-1.79,1-4.84,2.01-9.69,3.01-14.53l-4.91-.66c-.19,2.87-.23,5.74-.11,8.61.05,1.25.91,2.29,2.17,2.46s2.43-.58,2.74-1.79l.69-2.73-4.91-.66c.12,2.19.11,4.38-.02,6.57h5c-.02-.16-.03-.33-.03-.5-.05.21-.05.23-.01.05.02-.12.06-.24.1-.36-.09.22-.06.19.08-.07l-4.66-1.26c.04.53.09,1.06.13,1.59.09,1.07.71,2.15,1.84,2.41,1.05.24,2.29-.15,2.82-1.15.84-1.57,1.44-3.25,1.68-5.02.18-1.29-.31-2.75-1.75-3.08-1.17-.27-2.89.36-3.08,1.75-.1.73-.25,1.45-.47,2.15-.05.17-.11.33-.16.49-.02.04-.18.47-.11.31s-.12.25-.14.29c-.09.2-.19.39-.3.58l4.66,1.26c-.04-.53-.09-1.06-.13-1.59-.09-1.07-.71-2.15-1.84-2.41s-2.24.17-2.82,1.15-.93,2.22-.82,3.4c.13,1.3,1.06,2.56,2.5,2.5s2.41-1.1,2.5-2.5c.13-2.19.14-4.38.02-6.57-.07-1.25-.9-2.28-2.17-2.46-1.2-.16-2.43.58-2.74,1.79l-.69,2.73,4.91.66c-.11-2.87-.08-5.74.11-8.61s-4.34-3.43-4.91-.66c-1,4.84-2.01,9.69-3.01,14.53l4.91.66.94-7.41h-5l.04,3.12,4.91-.66c-.66-2.97-1.15-5.89-1.45-8.68-.14-1.3-1.05-2.56-2.5-2.5s-2.42,1.1-2.5,2.5c-.1,1.86-.27,3.72-.5,5.56-.07.58-.21,1.48-.34,2.31-.16.94-.33,1.88-.52,2.82l4.57-.6c-.23-.35-.05.01-.04.01-.05-.25-.07-.28-.05-.1q.01.15,0,0c0-.31-.02-.62-.01-.93.02-.84.05-1.69.1-2.53.09-1.64.25-3.27.46-4.89.16-1.23-1.07-2.31-2.17-2.46s-2.55.56-2.74,1.79c-.54,3.48-1.08,6.95-1.63,10.43h4.82c-.05-.22-.1-.44-.15-.67-.01-.06-.09-.61-.05-.28-.05-.41-.08-.82-.1-1.23-.04-.88-.04-1.76-.05-2.63-.01-1.82-.03-3.64-.04-5.46-.01-1.31-1.14-2.56-2.5-2.5s-2.42,1.1-2.5,2.5c-.14,2.5-.28,4.99-.43,7.49l4.66-1.26c-.23-.48-.33-.73-.55-1.39-.2-.59-.36-1.2-.5-1.81-.06-.26-.1-.53-.15-.79-.05-.31-.06-.35-.03-.13-.02-.18-.04-.36-.06-.53-.06-.62-.07-1.25-.06-1.87.02-1.31-1.16-2.56-2.5-2.5-1.42.06-2.42,1.1-2.5,2.5-.21,3.64-.42,7.27-.63,10.91l4.66-1.26c-.08-.15-.15-.29-.22-.44.1.22.09.19-.01-.09-.06-.24-.14-.47-.19-.71-.03-.16-.06-.32-.09-.48.03.26.04.23,0-.07-.01-.29-.03-.58-.03-.87,0-.59.04-1.18.1-1.77,0-.09.11-.92.05-.47.04-.33.1-.66.15-1l-4.91-.66c.05,1.18.04,2.36-.03,3.54-.03.57-.08,1.13-.14,1.7-.07.66-.08.74-.19,1.44l4.57-.6c.13.29-.17-.43-.2-.51-.09-.25-.17-.5-.25-.76-.17-.55-.31-1.11-.42-1.68,0,0-.13-.79-.08-.39-.04-.26-.06-.53-.08-.8-.05-.62-.05-1.24-.03-1.86.04-1.31-1.18-2.56-2.5-2.5-1.39.06-2.45,1.1-2.5,2.5h0Z"/>
    <path class="cls-2" d="m193.45,52.61c-.03,2.68-.05,5.36-.08,8.04s4.26,3.45,4.91.66c.8-3.43,1.67-6.84,2.63-10.23l-4.91-.66c-.25,4.18-.49,8.37-.25,12.55.07,1.3,1.1,2.56,2.5,2.5s2.47-1.1,2.5-2.5c.06-3.2.12-6.41.18-9.61l-4.91.66c.5,2.08,1,4.15,1.5,6.23.29,1.21,1.56,1.95,2.74,1.79,1.33-.18,2.01-1.2,2.17-2.46.46-3.63.91-7.26,1.37-10.89h-5c-.25,3.61.24,7.29,1.43,10.71.41,1.18,1.46,1.96,2.74,1.79s2.16-1.2,2.17-2.46c0-2.32.02-4.64.03-6.96h-5c.28,2.72.56,5.44.84,8.15.13,1.25.85,2.28,2.17,2.46,1.14.15,2.52-.56,2.74-1.79.76-4.18,1.22-8.4,1.33-12.65h-5c.31,3.34,1.16,6.48,2.6,9.51.45.95,1.84,1.47,2.82,1.15s1.97-1.3,1.84-2.41c-.18-1.52-.37-3.04-.55-4.56-.16-1.29-1.04-2.57-2.5-2.5s-2.43,1.1-2.5,2.5c-.18,3.61-.36,7.21-.54,10.82-.06,1.24,1,2.3,2.17,2.46s2.41-.58,2.74-1.79c.96-3.46,1.57-7.01,1.89-10.58l-4.91.66c.52,3.31,2.01,6.3,4.08,8.9.61.77,1.91.87,2.73.52.91-.38,1.54-1.28,1.54-2.28,0-3.18-.82-6.27-2.35-9.05-.63-1.15-2.3-1.62-3.42-.9-1.17.76-1.56,2.19-.9,3.42.43.8.86,1.6,1.29,2.4.59,1.1,2.02,1.49,3.12,1.02,1.17-.49,1.73-1.72,1.45-2.95-.57-2.53-1.77-4.78-3.39-6.8-.82-1.03-2.69-.92-3.54,0-1,1.09-.88,2.44,0,3.54-.24-.3.23.31.22.31.15.21.29.42.42.64.25.4.47.81.67,1.23.05.11.24.53.11.22.1.24.18.48.27.72.16.48.3.98.41,1.48l4.57-1.93c-.43-.8-.86-1.6-1.29-2.4l-4.32,2.52c.17.32.34.64.5.96,0-.01.3.7.18.4.23.59.43,1.19.58,1.8.34,1.3.41,1.94.41,3.36l4.27-1.77c.22.28-.32-.44-.37-.51-.19-.28-.37-.56-.55-.85-.35-.58-.66-1.18-.93-1.8.15.36-.18-.5-.21-.58-.11-.32-.21-.64-.31-.97-.18-.65-.32-1.31-.43-1.98-.19-1.22-1.63-1.94-2.74-1.79-1.3.17-2.06,1.2-2.17,2.46-.15,1.69-.3,2.81-.6,4.48s-.67,3.2-1.1,4.78l4.91.66c.18-3.61.36-7.21.54-10.82h-5c.18,1.52.37,3.04.55,4.56l4.66-1.26c-.92-1.95-1.73-4.91-1.92-6.99-.12-1.3-1.06-2.56-2.5-2.5s-2.46,1.1-2.5,2.5c-.11,3.94-.48,7.58-1.15,11.32l4.91.66c-.28-2.72-.56-5.44-.84-8.15-.13-1.3-1.05-2.56-2.5-2.5-1.36.06-2.49,1.1-2.5,2.5,0,2.32-.02,4.64-.03,6.96l4.91-.66c-1.11-3.21-1.49-5.99-1.25-9.38.09-1.31-1.21-2.56-2.5-2.5-1.49.07-2.33,1.1-2.5,2.5-.46,3.63-.91,7.26-1.37,10.89l4.91-.66c-.5-2.08-1-4.15-1.5-6.23-.29-1.21-1.56-1.95-2.74-1.79s-2.14,1.2-2.17,2.46c-.06,3.2-.12,6.41-.18,9.61h5c-.24-4.19,0-8.37.25-12.55.07-1.24-1.01-2.3-2.17-2.46-1.22-.16-2.4.58-2.74,1.79-.96,3.39-1.84,6.8-2.63,10.23l4.91.66c.03-2.68.05-5.36.08-8.04.01-1.31-1.16-2.56-2.5-2.5s-2.49,1.1-2.5,2.5h0Z"/>
    <path class="cls-2" d="m264.86,47.24v1.63c0,1.31,1.15,2.56,2.5,2.5s2.46-1.1,2.5-2.5c.05-1.58,0-3.15-.15-4.72-.12-1.3-1.06-2.56-2.5-2.5-1.33.06-2.53,1.1-2.5,2.5.06,3.15.91,6.21,2.5,8.94,1.03,1.77,4.12,1.56,4.57-.6l1.04-5.02-4.91-.66c-.15,2.25.16,4.55.91,6.68.94,2.69,4.71,2.19,4.91-.66.24-3.37.18-6.74-.19-10.1-.14-1.25-.85-2.28-2.17-2.46-1.19-.16-2.45.57-2.74,1.79-.73,3.04.69,5.73,2.48,8.08.66.86,1.69,1.52,2.82,1.15,1.02-.33,1.88-1.28,1.84-2.41-.1-2.31-.73-4.54-1.93-6.52s-4.71-1.27-4.66,1.26c.07,3.45,1.07,6.85,2.98,9.74,1.34,2.03,4.63,1.3,4.66-1.26.03-2.16.05-4.31.08-6.47.02-1.31-1.16-2.56-2.5-2.5-1.47.07-2.36,1.1-2.5,2.5-.25,2.55-.04,5.13.55,7.63.28,1.21,1.56,1.95,2.74,1.79,1.24-.17,2.14-1.2,2.17-2.46.06-2.39.1-4.77.12-7.16s.21-4.86-.91-7.07-4.77-1.17-4.66,1.26c.16,3.44,1.25,6.83,3.31,9.61.61.83,1.41,1.34,2.49,1.19.93-.13,1.87-.83,2.08-1.79.31-1.42.31-2.77,0-4.19-.27-1.21-1.58-1.95-2.74-1.79-1.33.18-2.01,1.2-2.17,2.46-.43,3.45.21,6.84,1.56,10.02.41.97,1.87,1.46,2.82,1.15s1.98-1.31,1.84-2.41c-.51-3.96-1.24-7.87-2.3-11.72-.33-1.2-1.53-1.95-2.74-1.79-1.32.18-2.02,1.2-2.17,2.46-.32,2.73-.1,5.67,1.97,7.71,1.27,1.26,3.78.78,4.18-1.1.72-3.39,1.44-6.77,2.16-10.16h-4.82c.72,2.69,1.45,5.37,2.17,8.06l4.57-1.93c-.65-1.22-1.23-2.86-2.45-3.62-1.67-1.05-3.49-.32-4.48,1.26-1.39,2.2-1.69,4.89-1.18,7.4.36,1.78,2.99,2.5,4.18,1.1,1.04-1.21,1.79-2.52,2.22-4.07l-4.91-.66c.12,1.76.79,3.43,2.14,4.61,1.71,1.48,4.07.42,4.27-1.77-.03.31.03-.2.05-.3.04-.18.08-.36.13-.54.11-.4.25-.8.39-1.2.3-.82.65-1.63.89-2.47.59-2.03.55-3.98-.3-5.92-.52-1.2-2.38-1.57-3.42-.9-1.25.81-1.46,2.13-.9,3.42-.15-.34.07.69.04.24.01.17,0,.35,0,.52,0,.11-.02.4.01.13-.08.75-.35,1.5-.61,2.21-.59,1.6-1.14,3.09-1.3,4.81l4.27-1.77c-.18-.15-.35-.31-.5-.49.22.27.01-.03-.06-.17-.2-.36.19.52-.06-.16-.18-.49-.02.31-.06-.25-.08-1.25-.89-2.28-2.17-2.46s-2.41.58-2.74,1.79c-.07.25-.14.5-.23.75.12-.3-.07.14-.12.23-.1.19-.22.37-.33.56-.23.39.08-.05-.24.32l4.18,1.1c-.16-.76,0,.44-.06-.33-.01-.17-.02-.34-.02-.51,0-.25,0-.51.03-.76-.03.36.01-.06.04-.21.04-.21.1-.41.16-.61.02-.05.22-.63.13-.41s.17-.34.2-.39l.13-.22c.26-.39.16-.3-.32.27l-1.26.34-1.33-.74c.07.11.13.22.18.33.12.23.24.46.36.69.24.46.48.91.73,1.37,1.34,2.53,5.3.78,4.57-1.93s-1.45-5.37-2.17-8.06c-.62-2.3-4.3-2.47-4.82,0-.72,3.39-1.44,6.77-2.16,10.16l4.18-1.1c-.13-.12-.4-.52-.18-.16-.11-.18-.23-.37-.31-.57.21.49,0-.11-.03-.23-.04-.14-.07-.29-.09-.44.03.25.03.29.01.1-.05-.97-.02-1.91.09-2.88l-4.91.66c.92,3.38,1.7,7.12,2.12,10.39l4.66-1.26c.08.17.06.1-.06-.18-.07-.17-.13-.35-.19-.53-.12-.35-.22-.71-.32-1.07-.07-.27-.13-.54-.19-.82-.02-.11-.18-.99-.14-.71-.19-1.38-.15-2.8.02-4.18l-4.91.66c.09.39.09,1.14,0,1.54l4.57-.6c-.79-1.07-1.54-2.43-1.87-3.35-.24-.66-.43-1.35-.56-2.04-.02-.09-.16-1.02-.11-.64-.04-.35-.06-.7-.08-1.05l-4.66,1.26c.07.13.19.59.21.78-.03-.25.02.39.02.44.01.26.01.52.01.78,0,1.05-.01,2.1-.02,3.15-.02,2.18-.06,4.37-.12,6.55l4.91-.66c-.13-.57-.25-1.14-.34-1.72.04.29-.03-.28-.04-.35-.03-.29-.05-.58-.07-.87-.07-1.12-.03-2.24.08-3.35h-5c-.03,2.16-.05,4.31-.08,6.47l4.66-1.26c-.81-1.23-1.3-2.21-1.68-3.45-.46-1.48-.59-2.32-.61-3.77l-4.66,1.26c.51.85.63,1.08.89,1.93.12.38.2.77.28,1.16.02.11.06.39.03.12.03.26.04.53.05.79l4.66-1.26c-.62-.82-1.23-1.65-1.69-2.57-.05-.1-.22-.55-.11-.24-.08-.24-.15-.49-.21-.74l-.05-.25c.04.25.05.22.03-.08.06-.54-.09.25.05-.34l-4.91-.66c.37,3.36.43,6.73.19,10.1l4.91-.66c-.67-1.9-.86-3.35-.73-5.35.19-2.79-4.34-3.43-4.91-.66l-1.04,5.02,4.57-.6c-1.18-2.03-1.77-4.14-1.82-6.42h-5c.15,1.57.2,3.14.15,4.72h5v-1.63c0-1.31-1.15-2.56-2.5-2.5s-2.5,1.1-2.5,2.5h0Z"/>
    <path class="cls-2" d="m338.88,13.26c-.19,1.56-.05,3.15.31,4.68.28,1.21,1.56,1.95,2.74,1.79,1.25-.17,2.12-1.2,2.17-2.46.08-2.27.06-4.53-.08-6.79-.06-1.06-.73-2.16-1.84-2.41s-2.29.15-2.82,1.15c-1.23,2.3-1.22,4.84-.11,7.18.42.89,1.59,1.31,2.49,1.19.96-.13,1.84-.83,2.08-1.79.45-1.79.9-3.59,1.36-5.38l-4.91-.66c-.03,3,0,5.97.53,8.93.43,2.42,4.33,2.35,4.82,0,.61-2.92.97-5.9,1.05-8.89.03-1.31-1.17-2.56-2.5-2.5-1.46.07-2.37,1.1-2.5,2.5-.2,2.19-.25,4.38-.13,6.57.06,1.25.9,2.29,2.17,2.46s2.28-.61,2.74-1.79c1.14-2.9,2.08-5.86,2.83-8.89l-4.91-.66c-.02,3.33-.03,6.66-.05,9.98,0,1.25.96,2.29,2.17,2.46s2.36-.59,2.74-1.79c.84-2.62,1.32-5.33,1.74-8.05l-4.91-.66c-.2,2.67-.03,5.32.41,7.96.17,1.03,1.4,1.88,2.41,1.84s2.18-.73,2.41-1.84c.54-2.58,1.07-5.17,1.61-7.75h-4.82c.27,1.88.54,3.77.81,5.65.17,1.23,1.65,1.94,2.74,1.79,1.19-.16,2.2-1.2,2.17-2.46-.03-1.02,0-2.05.11-3.07.01-.12.03-.24.04-.37-.03.22-.03.24,0,.06.04-.24.08-.49.12-.73.1-.52.21-1.04.34-1.56l-4.91-.66c.1,2.19.19,4.38.29,6.57.06,1.3,1.11,2.56,2.5,2.5s2.51-1.1,2.5-2.5c0-.14,0-.29,0-.43,0-.4.06-.03-.03.03l.04-.21-.11.2c.36-.34-.29.2-.35.23-.68.4-1.74.13-2.07-.63-.04-.1-.09-.58-.1-.39-.02.33.15-.62.02-.08l4.91.66c-.14-2.59-.5-5.18-1.09-7.71-.28-1.21-1.57-1.95-2.74-1.79-1.27.17-2.09,1.2-2.17,2.46-.09,1.49.33,2.94.68,4.37.08.34.15.67.21,1.01-.04-.25-.02-.21,0,.02,0,.16.01.31.01.46,0,.12-.02.25-.02.37,0,.31.11-.49,0-.02-.06.27-.12.54-.21.8-.02.06-.15.46-.04.13s-.03.06-.06.12c-.12.25-.26.49-.42.72-.04.06-.37.48-.13.2.21-.26-.06.06-.1.1-.19.21-.39.39-.59.59-.21.21-.05.08.07-.04-.1.11-.26.18-.38.26-.21.13-.43.23-.64.36-.26.15.45-.14,0,0-.12.04-.23.08-.35.12-.3.09-.6.15-.91.19-1.3.18-2.12,1.9-1.75,3.08.46,1.42,1.68,1.94,3.08,1.75,3.04-.43,5.59-2.76,6.75-5.52.67-1.59.79-3.21.53-4.91-.12-.76-.32-1.5-.51-2.25-.05-.19-.09-.37-.13-.56-.01-.06-.13-.67-.07-.34s-.02-.28-.02-.34c0-.23,0-.45.01-.68l-4.91.66c.26,1.12.46,2.24.64,3.38.03.18.02.17,0-.03.02.17.04.34.06.51.03.25.06.51.08.76.06.59.1,1.18.13,1.78.07,1.25.9,2.28,2.17,2.46,1.19.16,2.44-.58,2.74-1.79.56-2.26-.73-5.07-3.38-4.99-1.29.04-2.49.75-3.17,1.85-.57.93-.69,2.03-.68,3.09h5c-.1-2.19-.19-4.38-.29-6.57-.05-1.25-.91-2.29-2.17-2.46s-2.44.58-2.74,1.79c-.57,2.28-.85,4.65-.78,6.99l4.91-.66c-.27-1.88-.54-3.77-.81-5.65-.15-1.03-1.42-1.88-2.41-1.84-1.05.05-2.18.73-2.41,1.84-.54,2.58-1.07,5.17-1.61,7.75h4.82c-.01-.09-.15-1.04-.09-.58-.03-.25-.06-.5-.08-.75-.06-.59-.1-1.17-.12-1.76-.05-1.18-.02-2.36.07-3.53.09-1.24-1.02-2.3-2.17-2.46s-2.55.56-2.74,1.79c-.43,2.71-.9,5.42-1.74,8.05l4.91.66c.02-3.33.03-6.66.05-9.98,0-1.25-.96-2.29-2.17-2.46s-2.44.58-2.74,1.79c-.74,3.02-1.69,5.99-2.83,8.89l4.91.66c-.11-2.19-.07-4.39.13-6.57h-5c-.04,1.34-.12,2.68-.27,4.01,0,.09-.14,1.04-.07.58-.05.33-.1.66-.15.99-.11.66-.24,1.32-.37,1.97h4.82c-.02-.09-.17-1.04-.1-.57-.05-.33-.08-.66-.11-1-.06-.67-.1-1.33-.12-2-.05-1.34-.03-2.68-.01-4.02.01-1.25-.96-2.29-2.17-2.46s-2.44.58-2.74,1.79c-.45,1.79-.9,3.59-1.36,5.38l4.57-.6c.15.32.05.14-.02-.08-.04-.13-.08-.27-.11-.41-.06-.27-.03-.41-.02-.06,0-.18-.02-.35-.01-.53,0-.06.03-.51,0-.19-.04.36.05-.22.07-.29.03-.14.09-.27.12-.4-.11.46.01-.02.09-.17l-4.66-1.26c.13,2.26.16,4.53.08,6.79l4.91-.66c-.08-.33-.15-.66-.2-.99.06.45-.01-.37-.02-.47-.03-.63,0-1.26.08-1.89.16-1.3-1.26-2.56-2.5-2.5-1.49.07-2.33,1.1-2.5,2.5h0Z"/>
    <path class="cls-2" d="m396.26,37.67c-.16,2.46,0,4.89.34,7.33.17,1.23,1.65,1.94,2.74,1.79s2.27-1.21,2.17-2.46c-.24-3.05-.22-6.11.05-9.16l-4.66,1.26c1.07,1.5,1.87,3.15,2.7,4.79.89,1.77,1.87,3.44,3.15,4.97.68.81,2.16.95,3.03.39.95-.61,1.43-1.71,1.15-2.82-.69-2.71-1.52-5.38-2.48-8-.37-1-1.26-1.89-2.41-1.84-1.04.05-2.19.73-2.41,1.84-.65,3.32-.92,6.7-.72,10.08.08,1.25.89,2.28,2.17,2.46,1.1.15,2.57-.56,2.74-1.79.61-4.41,1.14-8.84,1.59-13.27l-4.66,1.26c1.35,2.74,2.77,5.43,4.84,7.71,1.66,1.84,4.94-.08,4.18-2.43-.82-2.53-1.86-5-3.1-7.36-1.14-2.16-4.79-1.2-4.66,1.26.19,3.65.76,7.29,1.74,10.82l4.82-1.33c-.73-2.32-1.34-4.68-1.84-7.06-.26-1.28-1.85-2.14-3.08-1.75-1.41.46-1.96,1.69-1.75,3.08.48,3.12,1.08,6.31,2.85,8.99,1.38,2.09,4.54,1.26,4.66-1.26.18-3.74.25-7.49.2-11.23l-4.66,1.26c1.21,2.34,2.82,4.5,4.7,6.35.89.88,2.3.95,3.28.2,1.03-.8,1.19-2.09.64-3.23s-1.25-2.32-2.02-3.39-2.21-1.68-3.42-.9c-1.12.72-1.63,2.23-.9,3.42.39.63.75,1.28,1.07,1.94.07.15.14.3.21.45.06.13.15.33.04.08.16.38.3.76.44,1.15l4.82-1.33c-1.17-3.08-2.53-6.09-4.12-8.97l-3.42,3.42c.1.06.78.59.33.21.21.18.41.36.61.55.17.17.32.36.48.53.11.14.09.1-.08-.1.08.11.16.22.23.34.15.23.29.47.41.71.06.12.12.24.18.37-.12-.28-.12-.29-.02-.03.15.46.28.91.37,1.39-.11-.59,0,.3.01.42,0,.22,0,.44-.01.66,0,.15-.02.29-.04.44.04-.3.04-.31-.01-.02-.07.28-.13.57-.21.85-.06.21-.14.42-.22.62.21-.52-.17.3-.22.39-.06.11-.5.64-.47.73.1-.16.24-.28.41-.37.41-.21.85-.26,1.32-.15l1.1.64-.07-.07.64,1.1-.03-.11c-.37-1.25-1.77-2.17-3.08-1.75s-2.15,1.73-1.75,3.08c.45,1.5,1.99,2.4,3.52,1.94,1.14-.34,1.86-1.19,2.49-2.16,1.03-1.59,1.56-3.51,1.63-5.39.12-3.71-1.92-7.18-5.01-9.15-.9-.57-2.3-.4-3.03.39-.77.84-.94,2.02-.39,3.03.72,1.31,1.4,2.64,2.03,4,.14.31.29.62.42.93.09.2.17.39.26.59.04.1.15.36.05.11.3.71.58,1.43.85,2.15.46,1.22,1.71,2.19,3.08,1.75,1.21-.39,2.21-1.76,1.75-3.08-.6-1.68-1.34-3.3-2.26-4.81l-4.32,2.52c.77,1.07,1.45,2.2,2.02,3.39l3.93-3.03c-.45-.44-.88-.89-1.29-1.37-.15-.18-.3-.36-.45-.54-.18-.23-.2-.24-.05-.05-.09-.12-.19-.25-.28-.38-.69-.95-1.3-1.96-1.85-3-1.15-2.23-4.69-1.15-4.66,1.26.05,3.74-.02,7.49-.2,11.23l4.66-1.26c-.21-.31-.4-.64-.58-.97-.07-.13-.14-.27-.2-.4-.03-.05-.27-.6-.15-.32s-.13-.34-.12-.33c-.05-.14-.1-.28-.15-.43-.12-.36-.23-.72-.32-1.09-.37-1.4-.6-2.83-.82-4.27l-4.82,1.33c.49,2.38,1.1,4.74,1.84,7.06.39,1.25,1.76,2.17,3.08,1.75s2.12-1.72,1.75-3.08c-.45-1.62-.81-3.25-1.09-4.9-.06-.38-.12-.76-.17-1.15.05.4-.02-.16-.03-.23-.03-.21-.05-.43-.07-.64-.09-.85-.15-1.71-.2-2.57l-4.66,1.26c.28.52.54,1.05.8,1.58.13.27.25.53.37.8.04.08.36.81.2.45.46,1.09.86,2.2,1.22,3.33l4.18-2.43c-.24-.26-.46-.53-.69-.8-.25-.3.18.27-.04-.05-.09-.13-.18-.25-.27-.38-.41-.58-.78-1.18-1.14-1.79-.69-1.19-1.3-2.43-1.91-3.67-.47-.95-1.83-1.47-2.82-1.15-1.13.36-1.72,1.26-1.84,2.41-.21,2.06-.43,4.12-.67,6.18s-.52,4.19-.74,5.76l4.91.66c-.09-1.53-.1-3.06,0-4.6.05-.74.12-1.48.21-2.22-.03.27,0,0,.02-.12.03-.17.05-.35.08-.52.07-.43.15-.86.23-1.29h-4.82c.96,2.62,1.79,5.29,2.48,8l4.18-2.43c-.09-.1-.42-.54-.16-.19-.13-.18-.26-.36-.39-.55-.25-.37-.48-.75-.71-1.14-.43-.74-.82-1.51-1.21-2.28-.79-1.57-1.57-3.15-2.6-4.59-.63-.88-1.71-1.51-2.82-1.15s-1.73,1.26-1.84,2.41c-.28,3.05-.3,6.11-.05,9.16l4.91-.66c.06.41-.04-.32-.05-.4-.03-.27-.06-.53-.08-.8-.05-.53-.08-1.07-.1-1.6-.04-1.07-.01-2.14.06-3.21.09-1.31-1.21-2.56-2.5-2.5-1.43.06-2.41,1.1-2.5,2.5h0Z"/>
  </g>
</svg>