<?xml version="1.0" encoding="UTF-8"?>
<svg id="Layer_1" data-name="Layer 1" xmlns="http://www.w3.org/2000/svg" viewBox="0 0 212.05 217.2">
  <defs>
    <style>
      .cls-1 {
        fill: #918873;
      }

      .cls-1, .cls-2, .cls-3, .cls-4, .cls-5, .cls-6, .cls-7 {
        stroke: #231f20;
        stroke-miterlimit: 10;
        stroke-width: 2px;
      }

      .cls-2 {
        fill: #7f7c77;
      }

      .cls-3 {
        fill: #848784;
      }

      .cls-4 {
        fill: #a09a82;
      }

      .cls-5 {
        fill: #b5a790;
      }

      .cls-6 {
        fill: #bdab94;
      }

      .cls-7 {
        fill: none;
      }

      .cls-8 {
        fill: #768974;
        stroke-width: 0px;
      }
    </style>
  </defs>
  <rect class="cls-6" x="3.52" y="77.65" width="22.96" height="138.5" rx="1.69" ry="1.69"/>
  <rect class="cls-1" x="26.48" y="86.19" width="40.95" height="130.01" rx="3.01" ry="3.01"/>
  <rect class="cls-5" x="121.95" y="70.52" width="39.71" height="145.68" rx="2.92" ry="2.92"/>
  <rect class="cls-2" x="67.43" y="94.78" width="23.89" height="121.42" rx="1.76" ry="1.76"/>
  <rect class="cls-4" x="92.36" y="53.04" width="28.54" height="163.16" rx="2.1" ry="2.1"/>
  <line class="cls-7" y1="216.15" x2="212.05" y2="216.15"/>
  <g>
    <path class="cls-8" d="m77.97,44.75c-1.89-.32-3.37-1.4-4.85-2.55s-2.99-2.31-4.62-3.29c-3.53-2.13-7.46-3.32-11.58-3.48s-8.07.65-11.81,2.09c-1.89.73-3.71,1.6-5.5,2.55s-3.55,1.97-5.55,2.21c-1.01.12-1.88.78-1.88,1.88,0,.92.86,2,1.88,1.88,4.09-.49,7.34-2.91,11.04-4.49s7.46-2.46,11.37-2.37,7.57,1.33,10.87,3.45c3.11,2,5.84,5.11,9.63,5.76,2.36.4,3.37-3.21,1-3.62h0Z"/>
    <path class="cls-8" d="m76.28,45.58c-3.18,2.5-5.59,5.62-9.49,7.09-3.26,1.23-6.86,1.51-10.26.66-3.84-.96-6.97-3.45-10.3-5.47-1.8-1.09-3.7-2.01-5.68-2.74-.99-.36-2-.67-3.03-.92s-2.07-.39-2.97-1.02c-1.98-1.39-3.85,1.86-1.89,3.24,1.85,1.3,4.37,1.43,6.47,2.17s4.06,1.79,5.95,2.97c3.68,2.3,7.22,4.83,11.58,5.64,3.97.74,8.1.35,11.85-1.19,1.86-.76,3.56-1.75,5.13-3.01,1.86-1.48,3.43-3.29,5.3-4.76.8-.63.65-1.99,0-2.65-.78-.79-1.86-.62-2.65,0h0Z"/>
    <g>
      <path class="cls-8" d="m80.9,46.56c2.05-3.06,5.67-4.45,8.98-5.71,3.73-1.42,7.31-2.98,10.11-5.91,5.13-5.39,7-12.84,8.96-19.79,1.22-4.31,2.56-8.58,5-12.38,1.31-2.03-1.93-3.92-3.24-1.89-4.3,6.67-5.34,14.64-8,21.98-1.16,3.21-2.69,6.45-5,9.01-2.64,2.93-6.07,4.3-9.67,5.68-4.03,1.55-7.91,3.42-10.39,7.11-1.35,2.01,1.9,3.89,3.24,1.89h0Z"/>
      <path class="cls-8" d="m80.2,45.56c-1.25-8.06-2.31-17.09,1.85-24.53,3.81-6.82,11.45-9.33,18.41-11.67,4.41-1.48,8.84-3.08,12.67-5.78,1.96-1.38.09-4.63-1.89-3.24-6.98,4.93-15.78,5.89-23.19,9.98-3.55,1.96-6.69,4.64-8.82,8.11s-3.29,7.75-3.7,11.91c-.54,5.42.23,10.87,1.06,16.21.16,1,1.41,1.56,2.31,1.31,1.07-.3,1.47-1.3,1.31-2.31h0Z"/>
    </g>
    <path class="cls-8" d="m108.08,77.16c-1.25-7.76-9.26-11.03-14.89-15.18-5.94-4.38-11.05-10.15-13.26-17.29-.71-2.3-4.33-1.32-3.62,1,2.23,7.21,7.01,13.24,12.85,17.9,2.98,2.38,6.24,4.3,9.37,6.47,2.86,1.99,5.36,4.54,5.93,8.11.16,1,1.41,1.56,2.31,1.31,1.06-.3,1.47-1.3,1.31-2.31h0Z"/>
  </g>
  <path class="cls-3" d="m207.69,214.6h-46.03v-120.16c3.42-2.14,10.78-6.1,20.92-6.59,12.56-.61,21.74,4.49,25.11,6.59v120.16Z"/>
</svg>