<?xml version="1.0" encoding="UTF-8"?>
<svg id="Layer_1" data-name="Layer 1" xmlns="http://www.w3.org/2000/svg" viewBox="0 0 305.18 314.49">
  <defs>
    <style>
      .cls-1 {
        fill: #7f7c77;
      }

      .cls-1, .cls-2, .cls-3, .cls-4, .cls-5, .cls-6 {
        stroke: #231f20;
        stroke-miterlimit: 10;
        stroke-width: 2px;
      }

      .cls-2 {
        fill: #667066;
      }

      .cls-3 {
        fill: #727456;
      }

      .cls-4 {
        fill: #757c75;
      }

      .cls-5 {
        fill: #838e82;
      }

      .cls-6 {
        fill: none;
      }

      .cls-7 {
        fill: #364023;
        stroke-width: 0px;
      }
    </style>
  </defs>
  <rect class="cls-3" x="5.07" y="114.09" width="33.04" height="199.33" rx="1.69" ry="1.69"/>
  <rect class="cls-2" x="38.11" y="126.38" width="58.94" height="187.11" rx="3.01" ry="3.01"/>
  <rect class="cls-1" x="175.5" y="103.82" width="57.15" height="209.67" rx="2.92" ry="2.92"/>
  <rect class="cls-4" x="97.05" y="138.73" width="34.38" height="174.75" rx="1.76" ry="1.76"/>
  <rect class="cls-3" x="132.93" y="78.66" width="41.08" height="234.82" rx="2.1" ry="2.1"/>
  <line class="cls-6" y1="313.42" x2="305.18" y2="313.42"/>
  <g>
    <path class="cls-7" d="m112.83,64.52c-.53-.08-1.04-.19-1.55-.35-.19-.06-.37-.14-.56-.2-.68-.21.7.4.1.03-.87-.53-1.77-.99-2.61-1.57-.45-.32-.89-.65-1.33-.98.78.59-.19-.15-.46-.36-1.14-.89-2.28-1.78-3.45-2.62-3.88-2.78-8.2-5.06-12.84-6.27-9.84-2.57-19.93-.71-29.1,3.27-2.3,1-4.5,2.21-6.72,3.36-.57.3-1.15.59-1.74.87-.19.09-.39.17-.58.27-.53.26.71-.24-.18.07-.53.18-1.06.38-1.61.53-.27.08-.54.15-.82.21s-1.52.22-.34.09c-2.59.29-5.13,2.09-5,5,.11,2.46,2.22,5.31,5,5s5.22-1.03,7.8-2.18c1.97-.88,3.84-1.95,5.76-2.94.94-.48,1.89-.94,2.86-1.38.28-.12.55-.25.83-.36-.19.08-.85.34.06-.02.56-.22,1.12-.44,1.69-.64,2.12-.76,4.29-1.38,6.5-1.81.51-.1,1.04-.17,1.55-.27.78-.16-.78.08,0,0,.22-.02.45-.05.67-.08,1.19-.12,2.39-.19,3.59-.2,1.05,0,2.1.04,3.14.13.3.03.6.06.89.09-.2-.02-.98-.16,0,0,.59.1,1.18.2,1.77.33,1.03.22,2.04.49,3.04.82.57.19,1.13.41,1.7.61-.07-.03-.71-.32-.18-.08.33.15.67.3,1,.46,1.99.96,3.87,2.12,5.68,3.38.48.34.96.68,1.44,1.04.24.18.47.36.71.53-.55-.41-.18-.14.15.12,1.15.9,2.29,1.81,3.49,2.65,2.08,1.46,4.49,2.7,7.02,3.1s5.51-.66,6.15-3.49c.55-2.4-.73-5.71-3.49-6.15h0Z"/>
    <path class="cls-7" d="m108.16,66.3c-1.92,1.5-3.61,3.24-5.38,4.89-.38.35-.76.7-1.14,1.04-.22.19-.45.38-.67.57-.73.62.01.04.09-.06-.61.75-1.91,1.33-2.75,1.8-.45.26-.9.5-1.36.73-.23.11-.46.23-.69.33-.15.07-.91.4-.28.13s-.14.05-.29.11c-.24.09-.48.18-.72.26-.54.19-1.09.36-1.65.52-.99.28-1.99.48-2.99.66-.92.17.93-.08-.38.05-.57.06-1.14.1-1.72.12-1.02.04-2.04.02-3.06-.05-.35-.03-1.88-.07-.57-.03-.55-.02-1.15-.19-1.69-.3-.94-.2-1.86-.45-2.77-.75-.49-.16-.96-.35-1.44-.53.96.36.24.11.04,0-.33-.16-.66-.31-.98-.47-4.26-2.12-8.02-5.1-12.2-7.36-2.59-1.4-5.33-2.57-8.14-3.47-1.31-.42-2.64-.76-3.98-1.06-.57-.13-1.12-.28-1.68-.43-.53-.14-.39.11.13.08-.27.01-.78-.47-.97-.61-2.12-1.55-5.67-.42-6.84,1.79-1.38,2.6-.47,5.18,1.79,6.84s4.9,1.88,7.41,2.58c1.21.34,2.41.73,3.58,1.18.28.11.55.22.83.33-.19-.07-.85-.38.03.02.61.28,1.21.56,1.81.86,4.51,2.29,8.48,5.5,12.99,7.78,9.28,4.69,19.99,4.68,29.33.13,2.5-1.22,4.79-2.86,6.88-4.69,2.22-1.93,4.2-4.12,6.53-5.93,2.07-1.62,1.82-5.4,0-7.07-2.2-2.02-4.86-1.72-7.07,0h0Z"/>
    <g>
      <path class="cls-7" d="m118.42,70.5c.11-.17.91-1.22.14-.27.16-.2.33-.4.51-.6.43-.49.9-.95,1.38-1.38.19-.17.39-.34.59-.51.96-.81-.58.36.08-.05.61-.38,1.19-.81,1.81-1.18,1.08-.64,2.19-1.2,3.33-1.71.26-.12,1.08-.52.07-.04.25-.12.51-.21.77-.31.81-.33,1.64-.64,2.46-.95,5.7-2.17,11.21-4.45,15.59-8.85,8-8.06,10.92-19.4,13.91-29.99.87-3.07,1.77-6.14,2.89-9.13.15-.4.31-.81.47-1.21.09-.22.6-1.4.16-.4.32-.72.64-1.44.99-2.14.73-1.48,1.54-2.91,2.43-4.29,1.42-2.2.52-5.62-1.79-6.84-2.49-1.31-5.32-.55-6.84,1.79-6.36,9.82-7.87,21.57-11.81,32.38-.23.62-.46,1.24-.71,1.85-.09.24-.18.5-.3.73.55-1.12-.03.07-.12.26-.53,1.2-1.11,2.37-1.73,3.52-.59,1.08-1.22,2.13-1.91,3.14-.32.47-.63.97-1,1.4.82-.95-.03.01-.17.18-.24.29-.49.58-.75.86-.76.84-1.58,1.63-2.45,2.36-.24.2-.93,1.03-.18.16-.13.16-.47.34-.62.44-.66.46-1.35.87-2.06,1.26-.57.32-1.16.62-1.75.9-.4.19-.8.36-1.19.55-.17.08-.89.36-.02,0-1.36.54-2.73,1.07-4.1,1.59-6.51,2.48-12.73,5.44-16.7,11.44-1.45,2.19-.5,5.63,1.79,6.84,2.51,1.32,5.3.54,6.84-1.79h0Z"/>
      <path class="cls-7" d="m117.64,67.29c-.25-1.61-.5-3.23-.72-4.84.11.85,0,.02-.01-.13-.06-.49-.12-.97-.18-1.46-.1-.89-.2-1.79-.28-2.68-.29-3.24-.42-6.51-.25-9.76.04-.76.09-1.52.17-2.27.03-.35.07-.7.11-1.05.11-.97.02-.11-.01.07.24-1.54.53-3.06.92-4.56.32-1.22.7-2.43,1.14-3.61.06-.16.59-1.45.12-.36.11-.26.22-.51.34-.76.35-.76.73-1.5,1.14-2.22.34-.6.7-1.19,1.08-1.77.15-.23.31-.46.47-.68,0,0,.83-1.06.36-.49s.39-.45.39-.45c.18-.2.36-.41.54-.61.54-.59,1.11-1.16,1.71-1.71.49-.45,1-.88,1.52-1.3.71-.59.08-.06-.06.05.32-.23.65-.47.97-.7,1.1-.76,2.24-1.46,3.41-2.11s2.38-1.25,3.61-1.81c.25-.11.49-.22.74-.33,1.24-.56-.97.38.29-.13.62-.25,1.25-.5,1.88-.75,2.62-1,5.29-1.88,7.95-2.77,6.58-2.21,13.28-4.57,18.98-8.62,2.13-1.51,3.35-4.43,1.79-6.84-1.36-2.11-4.56-3.41-6.84-1.79-2.57,1.82-5.32,3.22-8.17,4.55-.77.36,1.09-.43-.21.09-.34.14-.67.27-1.01.41-.74.29-1.49.58-2.25.85-1.44.53-2.89,1.02-4.34,1.51-5.82,1.96-11.71,3.87-17.12,6.81s-10.36,7.13-13.69,12.47-5.09,11.97-5.74,18.41c-.81,8.02.37,16.1,1.61,24.02.4,2.59,3.78,4.26,6.15,3.49,2.82-.91,3.93-3.37,3.49-6.15h0Z"/>
    </g>
    <path class="cls-7" d="m157.77,112.76c-1.44-9.35-9.74-14.82-17.06-19.52-1.78-1.14-3.52-2.32-5.23-3.57-.41-.3-.82-.61-1.23-.92.75.57-.32-.25-.54-.43-.85-.68-1.69-1.39-2.52-2.11-1.59-1.4-3.12-2.87-4.57-4.43-.68-.73-1.34-1.48-1.98-2.25-.32-.38-.63-.76-.93-1.15.62.79-.31-.43-.49-.68-1.32-1.84-2.52-3.77-3.57-5.78-.29-.57-.58-1.14-.85-1.72-.09-.19-.18-.39-.27-.58-.4-.86.13.38-.08-.18-.43-1.14-.85-2.27-1.21-3.43-.77-2.5-3.53-4.34-6.15-3.49s-4.31,3.47-3.49,6.15c2.61,8.5,7.61,16.05,13.94,22.24,3.22,3.15,6.79,5.96,10.48,8.54,1.73,1.21,3.51,2.35,5.29,3.48.86.55,1.72,1.1,2.57,1.67.42.28.84.57,1.26.87.24.17.47.34.71.51.35.26.4.32.03.02.87.72,1.73,1.44,2.52,2.25.37.38.74.77,1.08,1.18.17.2.34.41.51.62-.26-.34-.35-.49-.06-.05.33.5.66,1,.96,1.53.1.17.19.35.28.53.06.13.52,1.15.25.49-.23-.58.01.05.04.15.1.32.21.63.3.95.16.58.28,1.17.37,1.77.4,2.59,3.79,4.26,6.15,3.49,2.82-.91,3.92-3.37,3.49-6.15h0Z"/>
  </g>
  <path class="cls-5" d="m298.9,311.18h-66.25v-172.93c4.92-3.08,15.52-8.78,30.1-9.49,18.08-.87,31.29,6.46,36.14,9.49v172.93Z"/>
</svg>